<?xml version="1.0" encoding="UTF-8"?>
<svg id="Layer_1" xmlns="http://www.w3.org/2000/svg" version="1.1" viewBox="0 0 1323.8 250.7">
  <!-- Generator: Adobe Illustrator 29.1.0, SVG Export Plug-In . SVG Version: 2.1.0 Build 142)  -->
  <defs>
    <style>
      .st0 {
        fill: #f3922b;
      }

      .st1 {
        fill: #fff;
      }

      .st2 {
        fill: none;
        stroke: #f3922b;
        stroke-miterlimit: 10;
        stroke-width: 12px;
      }
    </style>
  </defs>
  <rect class="st0" x="57.7" y="57.9" width="73.6" height="73.6" transform="translate(-39.3 94.6) rotate(-45)"/>
  <rect class="st2" x="33.7" y="33.8" width="121.9" height="121.9" transform="translate(-39.2 94.7) rotate(-45)"/>
  <g>
    <path class="st0" d="M325.7,94.3c.6-.6.9-1.3.9-2.3v-24.3h29.8v26.7c0,10.2-2.8,18.1-8.3,23.7-5.5,5.7-13.2,8.5-23.1,8.5h-44.7c-9.8,0-17.4-2.7-22.7-8.1-5.3-5.4-7.9-13.2-7.9-23.3v-27.5h29.8v23.5c0,1.3.3,2.2.9,2.9.6.7,1.6,1,3.1,1h40c.9,0,1.7-.3,2.3-.9h0ZM288.1,158.8v-22.8h29.8v22.8h-29.8Z"/>
    <path class="st0" d="M401.1,94.5c.5.5,1.3.7,2.4.7h6.3c1,0,1.6,5.2,1.6,15.7s-.5,15.7-1.6,15.7h-3.1c-1.2,0-2.3,0-3.5-.2s-2.3-.4-3.2-.9c-.9,7-3.2,13.3-6.8,19-3.6,5.7-8.5,10.1-14.5,13.3-6.1,3.2-13.2,4.9-21.4,4.9h-18.1l-2.4-31.4h18.1c5.1,0,9-1,11.7-3.1s4-5.2,4-9.5v-51h29.8v24.3c0,1.2.2,2,.7,2.4h0Z"/>
    <path class="st0" d="M442,93.5c5.9-1.1,11-2.6,15.5-4.6l1.7-.8c-.4-1.5-1-2.5-1.7-3.1s-1.7-.9-3-.9h-35.3l2.4-29.8h40.8c4.9,0,9.2.9,12.9,2.7,3.7,1.8,7.1,5.3,10.2,10.3,3.1,5,6,12.2,8.6,21.5l-22.3,19.6c-7.4,6.6-15,11.3-22.8,14s-17.2,4.1-28.2,4.1h-11c-1,0-1.6-5.2-1.6-15.7s.2-11,.5-12.9.7-2.8,1.1-2.8h12.6c7.2,0,13.8-.5,19.6-1.6h0ZM485.7,95.2h17.5c1,0,1.6,5.2,1.6,15.7s-.2,11.1-.5,13c-.3,1.8-.7,2.7-1.1,2.7h-11.8c-4.7,0-8.8-.5-12.2-1.6-3.4-1.1-6.3-2.8-8.8-5.1-2.5-2.3-4.6-5.3-6.5-8.9l17.3-15.7h4.5Z"/>
    <path class="st0" d="M511.7,94.3c.6-.6.9-1.3.9-2.3V26.1h29.8v68.3c0,10.2-2.8,18.1-8.3,23.7-5.5,5.7-13.2,8.5-23.1,8.5h-7.9c-1,0-1.6-5.2-1.6-15.7s.5-15.7,1.6-15.7h6.3c.9,0,1.7-.3,2.3-.9Z"/>
    <path class="st0" d="M556.6,26.1h29.8v100.5h-29.8V26.1Z"/>
    <path class="st0" d="M631.2,118.5c-5.3-5.4-7.9-13.2-7.9-23.3v-27.5h29.8v23.5c0,1.3.3,2.2.9,2.9.6.7,1.6,1,3.1,1h25.1c-.3-.8-.6-1.8-.8-2.9s-.4-2.3-.5-3.5-.2-2.5-.2-3.8c0-5.4,1.3-10.7,3.8-15.8,2.6-5.1,6.4-9.2,11.5-12.4s11.2-4.8,18.4-4.8c10.6,0,18.6,3.1,24,9.2,5.4,6.1,8.2,15.1,8.2,26.9v6.3c0,10.2-3.3,18.1-10,23.7-6.6,5.7-15.9,8.5-27.7,8.5h-55c-9.8,0-17.4-2.7-22.7-8.1h0ZM699.4,43.4v-22.8h29.8v22.8h-29.8ZM718.9,93c0-1.3.2-2.6.2-4.1v-.8c0-2.1-.4-3.8-1.3-5.1-.9-1.3-2.3-2-4.2-2s-1.8.2-2.4.6c-.7.4-1.2,1-1.6,1.7-.4.7-.6,1.5-.6,2.4,0,1.6.3,3,1,4.4s1.7,2.5,3.1,3.5c1.4,1,3.2,1.8,5.3,2.3.3-.7.5-1.7.6-3h0Z"/>
    <path class="st0" d="M759.9,26.1h29.8v94.2h-29.8V26.1Z"/>
    <path class="st0" d="M802.2,128.2c2.7-2,4-5.2,4-9.5v-51h29.8v24.3c0,1.2.2,2,.7,2.4.5.5,1.3.7,2.4.7h6.3c1,0,1.6,5.2,1.6,15.7s-.5,15.7-1.6,15.7h-3.1c-1.2,0-2.3,0-3.5-.2s-2.3-.4-3.2-.9c-.9,7-3.2,13.3-6.8,19s-8.5,10.1-14.5,13.3c-6.1,3.2-13.2,4.9-21.4,4.9h-7.8l-2.4-31.4h7.9c5.1,0,9-1,11.7-3.1h-.1Z"/>
    <path class="st0" d="M854.1,89.7c0-6.5,1.4-12.3,4.1-17.4,2.7-5.1,6.5-9.1,11.5-12,4.9-2.9,10.5-4.3,16.6-4.3s8.5.6,12.6,1.9c4.1,1.3,8.6,3.2,13.3,6l-8.9,25.6c-7.1-2.4-12.2-3.6-15.4-3.6s-2,.2-2.8.5c-.8.4-1.5.9-2,1.6s-.7,1.5-.7,2.6.2,1.8.5,2.5c.4.7,1,1.3,1.8,1.6.8.4,1.9.5,3.1.5h27.5l-2.4,31.4h-67.5c-1,0-1.6-5.2-1.6-15.7s.2-11,.5-12.9.7-2.8,1.1-2.8h9.3c-.4-2.1-.6-3.9-.6-5.5h0ZM869.8,46.5v-22.8h29.8v22.8h-29.8Z"/>
    <path class="st0" d="M991.1,142c-3.4,6.7-8.1,11.8-14.4,15.4-6.2,3.6-13.6,5.3-22.2,5.3h-23.5l-2.4-30.6h31.4c1.5,0,2.7-.2,3.8-.6,1.1-.4,1.9-1,2.4-1.7s.8-1.5.8-2.4v-1.6h-3.9c-12.1,0-20.8-2.5-26-7.6s-7.8-13.5-7.8-25.4v-.8c0-6.7,1.4-12.7,4.2-18.1s6.6-9.6,11.6-12.6,10.7-4.6,17.2-4.6c10.7,0,19,3.2,24.9,9.7,5.9,6.4,8.9,15.5,8.9,27.2v24.3c0,9.3-1.7,17.3-5,24h0ZM959,95.6c.9.8,2.3,1.2,4.2,1.2h4.7v-4.7c0-2-.4-3.5-1.3-4.6-.8-1.1-2.2-1.6-4.1-1.6s-2.8.5-3.6,1.5-1.3,2.3-1.3,4v.8c0,1.6.4,2.7,1.3,3.5h0ZM1006.4,110.9c0,10.5-.5,15.7-1.6,15.7h-11v-31.4h11c1,0,1.6,5.2,1.6,15.7Z"/>
    <path class="st0" d="M1020.6,94.6c.5-.4.7-1,.7-1.8v-25.1h29.8v25.1c0,.7.2,1.3.7,1.7.5.4,1.3.6,2.4.6h3.1c1,0,1.6,5.2,1.6,15.7s-.5,15.7-1.6,15.7h-4.7c-3.7,0-7-.4-9.9-1.3s-5.4-2.3-7.4-4.2c-2,2-4.3,3.4-6.9,4.2-2.6.8-6.1,1.3-10.4,1.3h-13.3c-1,0-1.6-5.2-1.6-15.7s.2-11,.5-12.9.7-2.8,1.1-2.8h13.3c1.2,0,2-.2,2.4-.5h.2ZM1015,58.3v-22.8h29.8v22.8h-29.8Z"/>
    <path class="st0" d="M1046.4,158.8v-22.8h24.3v22.8h-24.3ZM1095.4,118.1c-5.5,5.7-13.2,8.5-23.1,8.5h-14.9c-1,0-1.6-5.2-1.6-15.7s.2-11,.5-12.9.7-2.8,1.1-2.8h13.3c.9,0,1.7-.3,2.3-.9.6-.6.9-1.3.9-2.3v-24.3h29.8v26.7c0,10.2-2.8,18.1-8.3,23.7h0ZM1069.2,158.8v-22.8h24.3v22.8h-24.3Z"/>
    <path class="st0" d="M1117.1,26.1h29.8v100.5h-29.8V26.1Z"/>
    <path class="st0" d="M1196.2,94.5c.6-.4.9-1,.9-1.7s-.3-2-.8-3.1l-14.1-36.1,28.3-13.3,18.8,51.8c.3.8.9,1.6,1.6,2.2.8.6,1.6.9,2.4.9h5.3c1,0,1.6,5.2,1.6,15.7s-.2,11.1-.5,13c-.3,1.8-.7,2.7-1.1,2.7h-8c-3,0-6-.4-8.9-1.2-2.9-.8-5.4-2.2-7.4-4.3-2.5,2.2-4.9,3.7-7.1,4.4-2.3.7-4.6,1.1-7,1.1h-39.2l-2.4-31.4h35.3c.8,0,1.6-.2,2.2-.6h0Z"/>
    <path class="st0" d="M1247.3,94.3c.6-.6.9-1.3.9-2.3V26.1h29.8v68.3c0,10.2-2.8,18.1-8.3,23.7-5.5,5.7-13.2,8.5-23.1,8.5h-7.8c-1,0-1.6-5.2-1.6-15.7s.5-15.7,1.6-15.7h6.3c.9,0,1.7-.3,2.3-.9h-.1Z"/>
    <path class="st0" d="M1292.1,26.1h29.8v100.5h-29.8V26.1Z"/>
  </g>
  <g>
    <path class="st1" d="M255,237.3c-2.1-2.2-3.1-5.4-3.1-9.4v-8.8h4.8v8.7c0,2.6.6,4.5,1.8,5.8,1.2,1.3,3,2,5.5,2h1.8c1.6,0,3-.3,4.1-.9,1.2-.6,2.1-1.4,2.7-2.6.6-1.1.9-2.4.9-3.9v-27.8h4.8v21.5c0,.9.3,1.6.8,2.1.5.5,1.3.7,2.3.7h1c.1,0,.2.2.3.5,0,.3.1,1,.1,2.1s0,1.6-.1,1.9c0,.3-.2.5-.3.5h-.9c-.7,0-1.3,0-1.9-.2-.6-.2-1-.4-1.3-.7v.2c0,2.3-.5,4.3-1.6,6-1.1,1.8-2.5,3.1-4.4,4.1-1.9,1-4.1,1.5-6.5,1.5h-1.9c-3.9,0-6.9-1.1-9-3.4Z"/>
    <path class="st1" d="M281.7,239.4v-4.5h6.4v4.5h-6.4ZM293.2,223.9c.6-.5.9-1.2.9-2v-7.3h4.8v7.1c0,1,.3,1.7.8,2.2.5.5,1.3.7,2.3.7h1.6c.3,0,.5.8.5,2.5s-.2,2.5-.5,2.5h-1.8c-1.3,0-2.4-.2-3.3-.6-.9-.4-1.6-1-2-1.8-.5.8-1.2,1.4-2.2,1.8s-2,.6-3.3.6h-8.5c-.3,0-.5-.8-.5-2.4s0-1.8.1-2.1c0-.3.2-.5.3-.5h8.5c.9,0,1.7-.2,2.3-.7ZM287.6,239.4v-4.5h6.4v4.5h-6.4Z"/>
    <path class="st1" d="M313.8,227.5c-1.4,1.4-3.3,2.1-5.7,2.1h-4.6c-.3,0-.5-.8-.5-2.4s0-1.8.1-2.1c0-.3.2-.5.3-.5h4.6c.9,0,1.7-.3,2.2-.8s.8-1.3.8-2.4v-6.9h4.8v6.8c0,2.7-.7,4.7-2.1,6.1ZM306.3,203.2c-.4-.7-.6-1.5-.6-2.4s.2-1.9.7-2.8c.5-.8,1.1-1.5,1.9-1.9.8-.5,1.8-.7,2.9-.7h2.3v3h-2.4c-.8,0-1.4.2-1.9.6-.5.4-.7,1-.7,1.6s.2,1.2.7,1.7c.5.4,1,.7,1.7.7s.9-.1,1.4-.4c.5-.2,1.5-.7,2.9-1.5l1.2,2.8-9.6,4.9-1.4-2.7,2.6-1.4c-.8-.4-1.3-1-1.8-1.7Z"/>
    <path class="st1" d="M323.1,200.4h4.8v29.3h-4.8v-29.3Z"/>
    <path class="st1" d="M335.9,233.6c1.3-1.3,1.9-3.1,1.9-5.5v-13.6h4.8v6.9c0,1.1.3,1.8.9,2.4.6.5,1.4.8,2.6.8h.6c.3,0,.5.9.5,2.6s-.2,2.4-.5,2.4h-.6c-.7,0-1.4-.1-2-.3-.6-.2-1.1-.5-1.4-.9v.2c0,2.4-.6,4.5-1.6,6.3s-2.5,3.2-4.3,4.2c-1.8,1-3.9,1.5-6.2,1.5h-1.3l-.4-5h1.7c2.3,0,4.1-.7,5.4-2Z"/>
    <path class="st1" d="M353.1,223.8c.6-.6,1-1.3,1-2.3v-6.9h4.8v6.9c0,1,.3,1.8.9,2.4s1.5.8,2.8.8,2.1-.3,2.8-.8,1-1.3,1-2.3v-6.9h4.8v6.9c0,1,.3,1.8.8,2.4.6.5,1.4.8,2.6.8s2-.3,2.6-.8c.6-.5.9-1.3.9-2.4v-6.9h4.8v6.8c0,2.6-.7,4.6-2.2,6.1-1.5,1.5-3.5,2.2-6.1,2.2s-2.9-.2-3.9-.7c-1-.4-1.7-1.1-2.2-2-.6.9-1.3,1.5-2.3,2-1,.4-2.2.7-3.6.7s-3.1-.2-4.1-.7c-1-.4-1.7-1.1-2.2-2-.6.9-1.4,1.5-2.3,2-1,.4-2.2.7-3.6.7h-3.6c-.3,0-.5-.8-.5-2.4s0-1.8.1-2.1c0-.3.2-.5.3-.5h3.6c1.2,0,2.1-.3,2.8-.8Z"/>
    <path class="st1" d="M387.5,241.9c-.4-.7-.6-1.5-.6-2.3s.2-2,.7-2.8c.5-.8,1.1-1.5,2-1.9.8-.5,1.8-.7,2.9-.7h2.3v3h-2.4c-.7,0-1.3.2-1.8.7-.5.4-.7,1-.7,1.6s.2,1.2.7,1.7c.5.4,1,.7,1.7.7s.9-.1,1.4-.3,1.5-.7,2.9-1.4l1.2,2.7-9.6,4.9-1.4-2.7,2.6-1.3c-.8-.4-1.3-1-1.8-1.7ZM389.8,200.4h4.8v29.3h-4.8v-29.3Z"/>
    <path class="st1" d="M412.3,218.2h22.7v4.8h-22.7v-4.8Z"/>
    <path class="st1" d="M455.4,237.3c-2.1-2.2-3.1-5.4-3.1-9.4v-8.8h4.8v8.7c0,2.6.6,4.5,1.8,5.8,1.2,1.3,3,2,5.5,2h1.8c1.6,0,3-.3,4.1-.9,1.2-.6,2.1-1.4,2.7-2.6.6-1.1.9-2.4.9-3.9v-13.6h4.8v13.2c0,2.7-.5,5-1.6,6.9-1,1.9-2.5,3.4-4.4,4.4-1.9,1-4.1,1.5-6.6,1.5h-1.9c-3.9,0-6.9-1.1-9-3.4ZM461.9,213.5v-4.5h5.4v4.5h-5.4Z"/>
    <path class="st1" d="M485.9,200.4h4.8v29.3h-4.8v-29.3Z"/>
    <path class="st1" d="M498.8,233.6c1.3-1.3,1.9-3.1,1.9-5.5v-13.6h4.8v6.9c0,1.1.3,1.8.9,2.4.6.5,1.4.8,2.6.8h.6c.3,0,.5.9.5,2.6s-.2,2.4-.5,2.4h-.6c-.7,0-1.4-.1-2-.3-.6-.2-1.1-.5-1.4-.9v.2c0,2.4-.6,4.5-1.6,6.3s-2.5,3.2-4.3,4.2c-1.8,1-3.9,1.5-6.2,1.5h-1.3l-.4-5h1.7c2.3,0,4.1-.7,5.4-2Z"/>
    <path class="st1" d="M522.8,223.8c.5-.5.8-1.3.8-2.4v-6.9h4.8v6.8c0,2.7-.7,4.7-2.1,6.1-1.4,1.4-3.3,2.1-5.8,2.1h-11c-.3,0-.5-.8-.5-2.4s0-1.8.1-2.1c0-.3.2-.5.3-.5h11c1,0,1.7-.3,2.3-.8ZM510,239.4v-4.5h6.4v4.5h-6.4ZM516,239.4v-4.5h6.4v4.5h-6.4Z"/>
    <path class="st1" d="M533.3,241.9c-.4-.7-.6-1.5-.6-2.3s.2-2,.7-2.8c.5-.8,1.1-1.5,2-1.9.8-.5,1.8-.7,2.9-.7h2.3v3h-2.4c-.7,0-1.3.2-1.8.7-.5.4-.7,1-.7,1.6s.2,1.2.7,1.7c.5.4,1,.7,1.7.7s.9-.1,1.4-.3,1.5-.7,2.9-1.4l1.2,2.7-9.6,4.9-1.4-2.7,2.6-1.3c-.8-.4-1.3-1-1.8-1.7ZM535.6,200.4h4.8v29.3h-4.8v-29.3Z"/>
    <path class="st1" d="M584.1,223.9c.6-.5.9-1.2.9-2v-7.3h4.8v7.5c0,2.4-.7,4.2-2.1,5.5-1.4,1.3-3.3,2-5.8,2h-15.5c-2.7,0-4.7-.7-6.1-2.1s-2.1-3.4-2.1-6v-7h4.8v6.3c0,1.2.3,2.2.9,2.8.6.6,1.5.9,2.8.9h15.3c.9,0,1.6-.2,2.2-.7ZM571.2,239.4v-4.5h5.4v4.5h-5.4Z"/>
    <path class="st1" d="M604.6,223.9c.6.5,1.4.8,2.6.8h.6c.3,0,.5.9.5,2.6s-.2,2.4-.5,2.4h-.6c-.7,0-1.4-.1-2-.3-.6-.2-1.1-.5-1.4-.9v.2c0,2.4-.6,4.5-1.6,6.3-1,1.8-2.4,3.2-4.2,4.2-1.8,1-3.9,1.5-6.3,1.5h-3.4l-.4-5h3.9c2.3,0,4.1-.7,5.4-2s1.9-3.1,1.9-5.5v-13.6h4.8v6.9c0,1.1.3,1.8.9,2.4Z"/>
    <path class="st1" d="M616.9,224.2c1.6-.3,3-.9,4.5-1.7l5.5-3.2c-.4-1.3-.9-2.2-1.7-2.7-.7-.5-1.8-.7-3.2-.7h-10.3l.4-5h10.7c1.9,0,3.4.3,4.6.9,1.2.6,2.2,1.6,2.9,3.1.8,1.5,1.5,3.5,2.1,6l-8.9,5.6c-1.9,1.2-3.8,2-5.7,2.5-1.9.4-4.2.7-7,.7h-3.1c-.3,0-.5-.8-.5-2.4s0-1.8.1-2.1c0-.3.2-.5.3-.5h3.3c2.3,0,4.3-.2,5.8-.5ZM630.2,223.6c.3.4.7.7,1.2.8.5.2,1.2.2,2.1.2h2.6c.3,0,.5.9.5,2.6s0,1.7-.1,2c0,.3-.2.4-.3.4h-2.8c-1.4,0-2.6-.2-3.5-.5-.9-.3-1.7-.9-2.5-1.7-.7-.8-1.4-2-2-3.6l4-2c.3.8.6,1.4.9,1.8Z"/>
    <path class="st1" d="M639.8,223.9c.6-.5.8-1.2.8-2v-21.5h4.8v21.6c0,2.4-.7,4.3-2.1,5.6-1.4,1.4-3.3,2-5.8,2h-1.5c-.3,0-.5-.8-.5-2.4s.2-2.6.5-2.6h1.5c.9,0,1.7-.2,2.2-.7Z"/>
    <path class="st1" d="M676.2,224.6h18.8c.3,0,.5.9.5,2.6s-.2,2.4-.5,2.4h-4.4c.2.2.3.4.3.7,0,.3.1.7.1,1.1,0,1.8-.5,3.4-1.5,4.7-1,1.4-2.5,2.5-4.3,3.2-1.9.8-4,1.2-6.5,1.2h-3.4c-3.9,0-6.9-1.1-9-3.4-2.1-2.2-3.1-5.4-3.1-9.4v-8.8h4.8v8.7c0,2.6.6,4.5,1.8,5.8,1.2,1.3,3,2,5.5,2h3.4c2.5,0,4.4-.4,5.7-1.1,1.3-.7,1.9-1.7,1.9-3.1s-.2-1.2-.6-1.5c-.4-.3-1-.5-1.8-.5h-8.1l.4-4.8ZM670.4,249.2v-4.5h6.4v4.5h-6.4ZM676.4,249.2v-4.5h6.4v4.5h-6.4Z"/>
    <path class="st1" d="M710,224c.6-.4.9-.9.9-1.6s-.1-1.1-.4-1.6c-.3-.5-.7-1-1.3-1.6l-10.2-10.1v-4l16.8-6.6,1.4,4.6-12.4,4.8,8.1,8.1c1,1,1.7,2,2.2,3.1.5,1.1.7,2.3.7,3.5,0,2.1-.7,3.7-2.2,5.1-1.4,1.3-3.5,2-6.2,2h-12.4c-.3,0-.5-.8-.5-2.4s0-1.8.1-2.1c0-.3.2-.5.3-.5h12.4c1.1,0,2-.2,2.6-.6Z"/>
    <path class="st1" d="M734.9,224.1c.5-.4.8-.9.8-1.7s-.2-1.2-.5-2l-4.4-12.1,4.4-2.1,5.3,15c.5,1.3.9,2.2,1.5,2.7.5.5,1.3.7,2.2.7h1.1c.3,0,.5.9.5,2.6s0,1.7-.1,2c0,.3-.2.4-.3.4h-1.3c-1.4,0-2.5-.2-3.5-.6s-1.7-1.1-2.2-2c-.5.9-1.2,1.6-2.2,2-.9.4-2.1.6-3.5.6h-10.3l-.4-5h10.7c1,0,1.8-.2,2.3-.6ZM730.4,201.7v-4.5h5.4v4.5h-5.4Z"/>
    <path class="st1" d="M749,223.9c.6-.5.8-1.2.8-2v-21.5h4.8v21.6c0,2.4-.7,4.3-2.1,5.6-1.4,1.4-3.3,2-5.8,2h-1.5c-.3,0-.5-.8-.5-2.4s.2-2.6.5-2.6h1.5c.9,0,1.7-.2,2.2-.7Z"/>
    <path class="st1" d="M762.2,200.4h4.8v29.3h-4.8v-29.3Z"/>
    <path class="st1" d="M788,233.6c1.3-1.3,1.9-3.1,1.9-5.5v-13.6h4.8v6.9c0,1.1.3,1.8.9,2.4.6.5,1.4.8,2.6.8h.6c.3,0,.5.9.5,2.6s-.2,2.4-.5,2.4h-.6c-.7,0-1.4-.1-2-.3-.6-.2-1.1-.5-1.4-.9v.2c0,2.4-.6,4.5-1.6,6.3-1,1.8-2.5,3.2-4.3,4.2s-3.9,1.5-6.2,1.5h-1.3l-.4-5h1.7c2.3,0,4.1-.7,5.4-2Z"/>
    <path class="st1" d="M812.1,223.8c.5-.5.8-1.3.8-2.4v-6.9h4.8v6.8c0,2.7-.7,4.7-2.1,6.1-1.4,1.4-3.3,2.1-5.8,2.1h-11c-.3,0-.5-.8-.5-2.4s0-1.8.1-2.1c0-.3.2-.5.3-.5h11c1,0,1.7-.3,2.3-.8ZM799.3,239.4v-4.5h6.4v4.5h-6.4ZM805.3,239.4v-4.5h6.4v4.5h-6.4Z"/>
    <path class="st1" d="M840.6,234.8c-1,1.9-2.3,3.3-4.1,4.3-1.8,1-3.9,1.5-6.3,1.5h-5.9l-.4-5h6.4c1.4,0,2.6-.2,3.6-.7,1-.5,1.8-1.2,2.4-2,.6-.9.8-1.8.8-3v-.2h-3.8c-3,0-5.2-.7-6.7-2.1-1.5-1.4-2.3-3.4-2.3-6.2v-.2c0-1.9.4-3.7,1.1-5.2.7-1.5,1.8-2.7,3.1-3.6,1.3-.9,2.9-1.3,4.6-1.3,2.7,0,4.8.9,6.4,2.7,1.6,1.8,2.3,4.3,2.3,7.5v6.9c0,2.5-.5,4.7-1.4,6.6ZM830.2,223.8c.6.5,1.7.8,3.2.8h3.8v-3.4c0-1.8-.4-3.1-1.1-4-.7-.9-1.7-1.4-3-1.4s-2.2.4-2.8,1.3c-.7.9-1,2.1-1,3.6v.2c0,1.3.3,2.2,1,2.8ZM846.3,227.3c0,1.6-.2,2.4-.5,2.4h-4.3v-5h4.3c.3,0,.5.9.5,2.6Z"/>
    <path class="st1" d="M850.7,223.8c.6-.6,1-1.3,1-2.3v-6.9h4.8v6.7c0,.8.1,1.4.3,1.8.2.4.6.7,1.1,1,2.7-4.6,5.2-7.9,7.5-9.9,2.3-2,4.8-3,7.4-3s3.2.4,4.5,1.2c1.3.8,2.3,1.9,3.1,3.3s1.1,3,1.1,4.8-.4,3.4-1.2,4.8c-.8,1.4-1.9,2.5-3.4,3.3-1.5.8-3.2,1.2-5.2,1.2h-11.8c-3.1,0-5.1-.8-6.1-2.4-.6.8-1.3,1.4-2.3,1.8s-2.2.6-3.6.6h-2.1c-.3,0-.5-.8-.5-2.4s0-1.8.1-2.1c0-.3.2-.5.3-.5h2.1c1.2,0,2.1-.3,2.8-.8ZM875.4,223.5c.9-.8,1.3-1.8,1.3-3.2s-.2-1.6-.5-2.3c-.3-.7-.8-1.2-1.5-1.5-.6-.4-1.4-.5-2.3-.5-1.5,0-3,.7-4.6,2.1s-3.3,3.6-5.3,6.6h9.2c1.6,0,2.8-.4,3.6-1.1ZM881.7,224.4c.6.2,1.4.2,2.6.2h1.1c.3,0,.5.9.5,2.6s-.2,2.4-.5,2.4h-1.1c-1.6,0-3-.2-4.1-.6-1.1-.4-2-1-2.7-1.9l2.9-3.6c.3.4.8.7,1.4.8Z"/>
    <path class="st1" d="M893.1,223.9c.6-.5.9-1.2.9-2v-7.3h4.8v7.1c0,1,.3,1.7.8,2.2.5.5,1.3.7,2.3.7h1.6c.3,0,.5.8.5,2.5s-.2,2.5-.5,2.5h-1.8c-1.3,0-2.4-.2-3.3-.6-.9-.4-1.6-1-2-1.8-.5.8-1.3,1.4-2.2,1.8-.9.4-2,.6-3.3.6h-5.4c-.3,0-.5-.8-.5-2.4s0-1.8.1-2.1c0-.3.2-.5.3-.5h5.4c.9,0,1.7-.2,2.3-.7ZM887.8,209.4v-4.5h6.4v4.5h-6.4ZM893.8,209.4v-4.5h6.4v4.5h-6.4Z"/>
    <path class="st1" d="M907.1,223.9c.6-.5.8-1.2.8-2v-21.5h4.8v21.6c0,2.4-.7,4.3-2.1,5.6-1.4,1.4-3.3,2-5.8,2h-1.5c-.3,0-.5-.8-.5-2.4s.2-2.6.5-2.6h1.5c.9,0,1.7-.2,2.2-.7Z"/>
    <path class="st1" d="M920.4,200.4h4.8v29.3h-4.8v-29.3Z"/>
    <path class="st1" d="M948.5,234.8c-1,1.9-2.3,3.3-4.1,4.3-1.8,1-3.9,1.5-6.3,1.5h-5.9l-.4-5h6.4c1.4,0,2.6-.2,3.6-.7,1-.5,1.8-1.2,2.4-2,.6-.9.8-1.8.8-3v-.2h-3.8c-3,0-5.2-.7-6.7-2.1-1.5-1.4-2.3-3.4-2.3-6.2v-.2c0-1.9.4-3.7,1.1-5.2.7-1.5,1.8-2.7,3.1-3.6,1.3-.9,2.9-1.3,4.6-1.3,2.7,0,4.8.9,6.4,2.7,1.6,1.8,2.3,4.3,2.3,7.5v6.9c0,2.5-.5,4.7-1.4,6.6ZM938.1,223.8c.6.5,1.7.8,3.2.8h3.8v-3.4c0-1.8-.4-3.1-1.1-4-.7-.9-1.7-1.4-3-1.4s-2.2.4-2.8,1.3c-.7.9-1,2.1-1,3.6v.2c0,1.3.3,2.2,1,2.8Z"/>
    <path class="st1" d="M989.8,228.3c-.5-.4-1.2-.6-2.1-.6h-8.6v-8.6c0-1.7.4-3.2,1.1-4.5.7-1.3,1.7-2.4,3-3.1,1.3-.7,2.8-1.1,4.6-1.1h5.8l.4,4.8h-6.3c-1.1,0-2.1.3-2.8,1-.7.7-1.1,1.6-1.1,2.8v3.6h4.6c2.3,0,4,.6,5.1,1.8,1.1,1.2,1.7,3,1.7,5.3s-.6,3.7-1.7,5.3c-1.1,1.7-2.6,3-4.6,4-1.9,1-4,1.5-6.3,1.5h-3.4c-3.9,0-6.9-1.1-9-3.4-2.1-2.2-3.1-5.4-3.1-9.4v-8.8h4.8v8.7c0,2.6.6,4.5,1.8,5.8,1.2,1.3,3,2,5.5,2h3.4c1.6,0,2.9-.2,4.1-.7,1.2-.5,2.1-1.1,2.7-1.9.6-.8.9-1.8.9-2.9s-.2-1.4-.7-1.8Z"/>
    <path class="st1" d="M1018.1,234.8c-1,1.9-2.3,3.3-4.1,4.3-1.8,1-3.9,1.5-6.3,1.5h-5.9l-.4-5h6.4c1.4,0,2.6-.2,3.6-.7,1-.5,1.8-1.2,2.4-2,.6-.9.8-1.8.8-3v-.2h-3.8c-3,0-5.2-.7-6.7-2.1-1.5-1.4-2.3-3.4-2.3-6.2v-.2c0-1.9.4-3.7,1.1-5.2.7-1.5,1.8-2.7,3.1-3.6,1.3-.9,2.9-1.3,4.6-1.3,2.7,0,4.8.9,6.4,2.7,1.6,1.8,2.3,4.3,2.3,7.5v6.9c0,2.5-.5,4.7-1.4,6.6ZM1007.8,223.8c.6.5,1.7.8,3.2.8h3.8v-3.4c0-1.8-.4-3.1-1.1-4-.7-.9-1.7-1.4-3-1.4s-2.2.4-2.8,1.3c-.7.9-1,2.1-1,3.6v.2c0,1.3.3,2.2,1,2.8ZM1023.9,227.3c0,1.6-.2,2.4-.5,2.4h-4.3v-5h4.3c.3,0,.5.9.5,2.6Z"/>
    <path class="st1" d="M1031.1,223.9c.6-.5.9-1.2.9-2v-7.3h4.8v7.1c0,1,.3,1.7.8,2.2.5.5,1.3.7,2.3.7h1.6c.3,0,.5.8.5,2.5s-.2,2.5-.5,2.5h-1.8c-1.3,0-2.4-.2-3.3-.6-.9-.4-1.6-1-2-1.8-.5.8-1.3,1.4-2.2,1.8-.9.4-2,.6-3.3.6h-5.4c-.3,0-.5-.8-.5-2.4s0-1.8.1-2.1c0-.3.2-.5.3-.5h5.4c.9,0,1.7-.2,2.3-.7ZM1025.8,209.4v-4.5h6.4v4.5h-6.4ZM1031.8,209.4v-4.5h6.4v4.5h-6.4Z"/>
    <path class="st1" d="M1050.6,224.2c1.6-.3,3-.9,4.5-1.7l5.5-3.2c-.4-1.3-.9-2.2-1.7-2.7s-1.8-.7-3.2-.7h-10.3l.4-5h10.7c1.9,0,3.4.3,4.6.9,1.2.6,2.2,1.6,2.9,3.1.8,1.5,1.5,3.5,2.1,6l-8.9,5.6c-1.9,1.2-3.8,2-5.7,2.5-1.9.4-4.2.7-7,.7h-3.1c-.3,0-.5-.8-.5-2.4s0-1.8.1-2.1c0-.3.2-.5.3-.5h3.3c2.3,0,4.3-.2,5.8-.5ZM1063.9,223.6c.3.4.7.7,1.2.8.5.2,1.2.2,2.1.2h2.6c.3,0,.5.9.5,2.6s0,1.7-.1,2c0,.3-.2.4-.3.4h-2.8c-1.4,0-2.6-.2-3.5-.5-.9-.3-1.7-.9-2.5-1.7-.7-.8-1.4-2-2-3.6l4-2c.3.8.6,1.4.9,1.8Z"/>
    <path class="st1" d="M1095.7,227.3c0,1.6-.2,2.4-.5,2.4h-1.1c-1.3,0-2.4-.2-3.2-.6-.9-.4-1.5-1-2-1.9-.6.8-1.5,1.4-2.6,1.9-1.1.4-2.4.6-3.8.6s-2.9-.2-3.9-.7c-1-.4-1.8-1-2.3-1.8-.5.9-1.2,1.5-2.1,1.9-.8.4-2,.6-3.4.6h-1.1c-.3,0-.5-.8-.5-2.4s0-1.8.1-2.1c0-.3.2-.5.3-.5h1.1c1,0,1.7-.2,2.1-.6s.6-1,.6-1.9v-1.5c0-2.9.8-5.2,2.4-6.9,1.6-1.7,3.8-2.5,6.6-2.5s4.9.8,6.4,2.4c1.5,1.6,2.2,3.9,2.2,6.8v1.2c0,1.1.2,1.8.7,2.3.5.5,1.2.7,2.1.7h1.1c.3,0,.5.9.5,2.6ZM1079.4,217.1c-.7.8-1,1.9-1,3.3v.2c0,1.3.3,2.3,1,3,.7.7,1.7,1,3,1s2.4-.3,3-1c.7-.7,1-1.7,1-3v-.2c0-1.5-.3-2.6-1-3.3-.7-.7-1.7-1.1-3-1.1s-2.4.4-3.1,1.1Z"/>
    <path class="st1" d="M1098.9,223.9c.6-.5.8-1.2.8-2v-21.5h4.8v21.6c0,2.4-.7,4.3-2.1,5.6-1.4,1.4-3.3,2-5.8,2h-1.5c-.3,0-.5-.8-.5-2.4s.2-2.6.5-2.6h1.5c.9,0,1.7-.2,2.2-.7Z"/>
    <path class="st1" d="M1112.2,200.4h4.8v29.3h-4.8v-29.3Z"/>
    <path class="st1" d="M1141.4,239c1.2.9,3.2,1.3,5.9,1.3h9.9l-.4,5h-9.7c-4.1,0-7.2-.9-9.3-2.6-2.1-1.7-3.1-4.3-3.1-7.6s.7-5.1,2.2-7.1c1.5-2,4-3.8,7.5-5.4l7.5-3.4c-.3-.9-.7-1.5-1-2-.3-.4-.7-.7-1.2-.9-.5-.2-1.2-.3-2.1-.3h-10.6l.4-5h11c1.8,0,3.3.3,4.5,1,1.2.6,2.1,1.7,2.9,3.1.7,1.5,1.4,3.5,1.8,6.1l-11.3,5.4c-1.8.8-3.2,1.7-4.1,2.5s-1.6,1.7-2,2.6c-.4.9-.6,2-.6,3.3,0,1.9.6,3.2,1.9,4.1ZM1147.8,234.9v-4.5h5.4v4.5h-5.4Z"/>
    <path class="st1" d="M1173.8,225.2c0,.3.1,1,.1,2.1s0,1.6-.1,1.9c0,.3-.2.5-.3.5h-1.4c-2.4,0-4.3-.7-5.5-2.1-1.2-1.4-1.9-3.4-1.9-6.1v-21.1h4.8v20.7c0,1.2.2,2.1.7,2.6.5.6,1.2.9,2.2.9h1.1c.2,0,.3.2.3.5Z"/>
    <path class="st1" d="M1184.2,223.9c.6-.5.9-1.2.9-2v-7.3h4.8v7.1c0,1,.3,1.7.8,2.2.5.5,1.3.7,2.3.7h1.6c.3,0,.5.8.5,2.5s-.2,2.5-.5,2.5h-1.8c-1.3,0-2.4-.2-3.3-.6s-1.6-1-2-1.8c-.5.8-1.2,1.4-2.2,1.8-.9.4-2,.6-3.3.6h-8.5c-.3,0-.5-.8-.5-2.4s0-1.8.1-2.1c0-.3.2-.5.3-.5h8.5c.9,0,1.7-.2,2.3-.7ZM1177.7,209.4v-4.5h6.4v4.5h-6.4ZM1183.7,209.4v-4.5h6.4v4.5h-6.4Z"/>
    <path class="st1" d="M1204.9,227.5c-1.4,1.4-3.3,2.1-5.7,2.1h-4.6c-.3,0-.5-.8-.5-2.4s0-1.8.1-2.1c0-.3.2-.5.3-.5h4.6c.9,0,1.7-.3,2.2-.8.5-.5.8-1.3.8-2.4v-6.9h4.8v6.8c0,2.7-.7,4.7-2.1,6.1ZM1199.3,209.4v-4.5h5.4v4.5h-5.4Z"/>
    <path class="st1" d="M1211.8,241.9c-.4-.7-.6-1.5-.6-2.3s.2-2,.7-2.8c.5-.8,1.1-1.5,2-1.9.8-.5,1.8-.7,2.9-.7h2.3v3h-2.4c-.7,0-1.3.2-1.8.7-.5.4-.7,1-.7,1.6s.2,1.2.7,1.7,1,.7,1.7.7.9-.1,1.4-.3,1.5-.7,2.9-1.4l1.2,2.7-9.6,4.9-1.4-2.7,2.6-1.3c-.8-.4-1.3-1-1.8-1.7ZM1214.2,200.4h4.8v29.3h-4.8v-29.3Z"/>
    <path class="st1" d="M1239.3,211.5h11.4c1.9,0,3.4.4,4.6,1.3s1.7,2.2,1.7,3.9-.1,1.6-.4,2.4c-.3.7-.8,1.5-1.5,2.4-.7.8-1.7,1.8-3,3,.7.1,1.3.2,1.7.2s1.1,0,2.1,0h4.8c.2,0,.3.2.3.5,0,.3.1,1,.1,2.1s0,1.6-.1,1.9c0,.3-.2.5-.3.5h-4.8c-1.9,0-3.4,0-4.5-.2-1.1-.1-2-.3-2.7-.6-.7-.3-1.4-.7-2-1.3-1.9,1.2-3.3,2.4-4.1,3.7s-1.2,2.6-1.2,4,.6,3,1.7,3.9,3,1.3,5.5,1.3h8.8l-.4,5h-8.7c-4,0-7-.8-8.9-2.5-1.9-1.6-2.9-4.1-2.9-7.5s.5-4,1.4-5.8c1-1.8,2.5-3.5,4.5-5l-5.8-8.4,2.5-4.7ZM1251.8,216.5c-.4-.3-1-.4-1.7-.4h-7.9l5,7.4c1.4-1.2,2.5-2.2,3.3-2.9.7-.7,1.3-1.3,1.5-1.7.3-.4.4-.8.4-1.2,0-.5-.2-.9-.6-1.2Z"/>
    <path class="st1" d="M1269.9,224.2c1.6-.3,3-.9,4.5-1.7l5.5-3.2c-.4-1.3-.9-2.2-1.7-2.7s-1.8-.7-3.2-.7h-10.3l.4-5h10.7c1.9,0,3.4.3,4.6.9,1.2.6,2.2,1.6,2.9,3.1.8,1.5,1.5,3.5,2.1,6l-8.9,5.6c-1.9,1.2-3.8,2-5.7,2.5-1.9.4-4.2.7-7,.7h-3.1c-.3,0-.5-.8-.5-2.4s0-1.8.1-2.1c0-.3.2-.5.3-.5h3.3c2.3,0,4.3-.2,5.8-.5ZM1268.5,239.4v-4.5h5.4v4.5h-5.4Z"/>
    <path class="st1" d="M1298.9,223.9c.6.5,1.4.8,2.6.8h.6c.3,0,.5.9.5,2.6s-.2,2.4-.5,2.4h-.6c-.7,0-1.4-.1-2-.3-.6-.2-1.1-.5-1.4-.9v.2c0,2.4-.6,4.5-1.6,6.3-1,1.8-2.4,3.2-4.2,4.2-1.8,1-3.9,1.5-6.3,1.5h-3.4l-.4-5h3.9c2.3,0,4.1-.7,5.4-2,1.3-1.3,1.9-3.1,1.9-5.5v-13.6h4.8v6.9c0,1.1.3,1.8.9,2.4Z"/>
    <path class="st1" d="M1321.4,213.5c1.5,1.6,2.2,3.9,2.2,6.8v.2c0,2.8-.8,5.1-2.4,6.7-1.6,1.6-3.7,2.4-6.5,2.4s-2.9-.2-3.9-.7c-1-.4-1.8-1-2.3-1.8-.5.9-1.2,1.5-2.1,1.9-.8.4-2,.6-3.4.6h-1.1c-.3,0-.5-.8-.5-2.4s0-1.8.1-2.1c0-.3.2-.5.3-.5h1.1c1,0,1.7-.2,2.1-.6s.6-1,.6-1.9v-1.5c0-2.9.8-5.2,2.4-6.9,1.6-1.7,3.8-2.5,6.6-2.5s4.9.8,6.4,2.4ZM1311.8,217.1c-.7.8-1,1.9-1,3.3v.2c0,1.3.3,2.3,1,3,.7.7,1.7,1,3,1s2.4-.3,3-1c.7-.7,1-1.7,1-3v-.2c0-1.5-.3-2.6-1-3.3-.7-.7-1.7-1.1-3-1.1s-2.4.4-3.1,1.1Z"/>
  </g>
</svg>