<?xml version="1.0" encoding="UTF-8"?>
<svg id="Layer_1" xmlns="http://www.w3.org/2000/svg" version="1.1" viewBox="0 0 1323.8 190.6">
  <!-- Generator: Adobe Illustrator 29.1.0, SVG Export Plug-In . SVG Version: 2.1.0 Build 142)  -->
  <defs>
    <style>
      .st0 {
        fill: #f3922b;
      }

      .st1 {
        fill: #fff;
      }

      .st2 {
        fill: none;
        stroke: #f3922b;
        stroke-miterlimit: 10;
        stroke-width: 12px;
      }
    </style>
  </defs>
  <rect class="st0" x="57.7" y="57.9" width="73.6" height="73.6" transform="translate(-39.3 94.6) rotate(-45)"/>
  <rect class="st2" x="33.8" y="33.8" width="121.9" height="121.9" transform="translate(-39.3 94.7) rotate(-45)"/>
  <g>
    <path class="st0" d="M307.3,108.2h-17.3v-36.6c0-4.9-1.3-8.9-3.8-11.8-2.5-3-6.6-4.4-12.3-4.4s-6.4.2-9.9.6c-3.5.4-9.3,1.4-17.5,2.9l1.4-14.1c10.1-2.4,20.1-3.5,29.8-3.5s16.8,2.6,22,7.7c5.1,5.1,7.7,12.5,7.7,22v37.2h-.1ZM264.9,108.2h-17.4v-37.8l17.4-8.4v46.2Z"/>
    <path class="st0" d="M385.1,84c0,5.7-.9,10.3-2.8,13.8s-4.8,6.3-8.6,8.4-8,3.1-12.7,3.1-4.7-.2-6.9-.6c-2.2-.4-4.3-1.2-6.4-2.4l3-11.9c2.6.9,5,1.3,7.2,1.3,6.7,0,10-3.9,10-11.7v-13.3c0-4.9-1.3-8.8-3.8-11.5-2.5-2.8-6.1-4.2-10.8-4.2s-4.6.5-6.7,1.6-3.8,2.5-5,4.3-1.8,3.4-1.8,4.9v42.4h-17.3v-52c0-1.6,0-3.2-.2-4.7s-.6-3.1-1.4-4.7l14.9-5.7c1.7,2,2.9,4.7,3.5,7.8,2.9-2.7,5.9-4.7,8.9-5.8,3-1.2,6.3-1.7,9.9-1.7,8.1,0,14.7,2.6,19.7,7.8s7.5,12.3,7.5,21.2v13.8l-.2-.2Z"/>
    <path class="st0" d="M459,108.2h-17.3v-37.3c0-5.2-1.1-9.1-3.4-11.7-2.3-2.6-5.8-3.8-10.7-3.8s-7.5.4-11.8,1.3v51.6h-17.3v-63.7c3.7-.6,8.2-1.3,13.4-2.1,5.2-.8,11-1.2,17.4-1.2,9.7,0,17.1,2.6,22.2,7.7,5.1,5.1,7.6,12.6,7.6,22.3v37h-.1Z"/>
    <path class="st0" d="M488,108.2h-10.2l4.5-13.8h3.8c3.7,0,6.7-.5,8.8-1.5,2.2-1,3.9-2.5,5.1-4.6,1.3-2,2.1-4.6,2.5-7.7s.9-7.9,1.5-14.4v-1.1c0-2.1-.3-3.8-1-5.1s-1.6-2.3-2.9-3-3.4-1-6.4-1h-27.2V17.1h17.3v25.1h12.2c8.4,0,14.7,1.8,18.8,5.3,4.1,3.5,6.1,9,6.1,16.3v3.1c0,0-1.4,14.6-1.4,14.6-.9,9.1-3.9,15.9-9,20.2-5.1,4.4-12.7,6.5-22.6,6.5h.1Z"/>
    <path class="st0" d="M598,84c0,5.7-.9,10.3-2.8,13.8-1.9,3.5-4.8,6.3-8.6,8.4s-8,3.1-12.7,3.1-4.7-.2-6.9-.6-4.3-1.2-6.4-2.4l3-11.9c2.6.9,5,1.3,7.2,1.3,6.7,0,10-3.9,10-11.7v-13.3c0-4.9-1.3-8.8-3.8-11.5-2.5-2.8-6.1-4.2-10.8-4.2s-4.6.5-6.7,1.6c-2.1,1.1-3.8,2.5-5,4.3s-1.8,3.4-1.8,4.9v42.4h-17.3v-52c0-1.6,0-3.2-.2-4.7s-.6-3.1-1.4-4.7l14.9-5.7c1.7,2,2.9,4.7,3.5,7.8,2.9-2.7,5.9-4.7,8.9-5.8,3-1.2,6.3-1.7,9.9-1.7,8.1,0,14.7,2.6,19.7,7.8s7.5,12.3,7.5,21.2v13.8l-.2-.2Z"/>
    <path class="st0" d="M657.7,108.2h-10.2l4.5-13.8h3.8c3.7,0,6.7-.5,8.8-1.5,2.2-1,3.9-2.5,5.1-4.6,1.3-2,2.1-4.6,2.5-7.7s.9-7.9,1.5-14.4v-1.1c0-2.1-.3-3.8-1-5.1s-1.6-2.3-2.9-3c-1.3-.7-3.4-1-6.4-1h-27.2V17.1h17.3v25.1h12.2c8.4,0,14.7,1.8,18.8,5.3s6.1,9,6.1,16.3v3.1c0,0-1.4,14.6-1.4,14.6-.9,9.1-3.9,15.9-9,20.2-5.1,4.4-12.7,6.5-22.6,6.5h.1Z"/>
    <path class="st0" d="M782.9,42.2l-3.9,33.3c-1.1,8.4-2.9,14.9-5.5,19.4-2.6,4.6-6.2,7.9-10.8,10.1-4.6,2.1-10.8,3.2-18.3,3.2h-34l-9.9-66h17.2l5,34.4c2.8-1.1,4.8-2.5,6.2-4s2.4-3.5,3.2-6,1.4-6.2,1.8-11l1.3-13.4h17.1l-1.8,15.5c-.9,8.1-2.3,13.8-4,17.4-1.7,3.5-4.3,6.5-7.7,8.9s-8.1,4.5-14,6.3l.6,4.4h15c4.9,0,8.9-.6,11.7-1.9,2.9-1.3,5.1-3.3,6.8-6.1,1.6-2.8,2.7-6.4,3.1-10.7l3.8-33.7h17.2,0Z"/>
    <path class="st0" d="M854,41.3c11.4,0,19.7,1.8,24.8,5.3s7.6,9.2,7.6,16.9l-.5,9.8c-.8,8.8-2.4,15.6-5,20.4s-6.4,8.5-11.4,10.9c-5,2.5-11.9,4-20.7,4.5l1.8-14.6c4.3-.6,7.5-1.5,9.7-2.7s3.9-2.9,5.2-5.1c1.2-2.2,2.2-5.4,2.8-9.6s.9-7.8.9-11.1-.6-5.3-1.7-6.8c-1.1-1.5-2.8-2.6-5.1-3.3s-5.8-1-10.6-1c-9.1,0-19.7,1.2-32,3.7l1.7-14.6c11.4-1.9,22.3-2.9,32.6-2.9v.2ZM842.4,135.8h-17.3v-67.8h17.3v67.8Z"/>
    <path class="st0" d="M918.4,79.6h-17.1v-37.4h17.1v37.4Z"/>
    <path class="st0" d="M995,74.6c0,11.6-3,20.3-8.9,26-5.9,5.7-15.1,8.6-27.4,8.6s-17.2-1-24.8-3l2.6-13.6c7.1,1.9,13.5,2.8,19.2,2.8s13.2-1.6,16.6-4.8c3.4-3.2,5.1-8.4,5.1-15.6s-1.4-12.7-4.2-15.7c-2.8-3.1-7.5-4.6-14.1-4.6s-4.8.2-7.6.6v11.8h8.1l-2.2,13.8h-23.2v-36.4c7.9-2.1,16.5-3.2,25.8-3.2s21.2,2.7,26.7,8c5.6,5.4,8.4,13.8,8.4,25.3h0Z"/>
    <path class="st0" d="M1057.3,108.2h-17.3v-37.1c0-5.1-1.3-9-3.9-11.7s-6.8-4.1-12.6-4.1-13.9.9-22.9,2.7l1.5-14.7c8.2-1.4,16.5-2.1,24.8-2.1s17.5,2.5,22.7,7.6,7.8,12.6,7.8,22.5v36.8h0Z"/>
    <path class="st0" d="M1114,108.2h-16.9l-1.1-20.3c-2.2.9-4,2.1-5.4,3.5s-2.6,3.3-3.5,5.6c-.9,2.3-1.9,6-2.9,11.2h-17.2c1.9-7.8,3.9-13.9,6-18.1s4.8-7.7,8.3-10.3c3.5-2.6,7.9-4.8,13.2-6.5l-1.1-9.7c-.3-2.8-1.2-4.7-2.8-5.8-1.6-1.1-4.1-1.7-7.7-1.7h-11l2.1-13.9h11.6c8.3,0,14.4,1.5,18.1,4.6s5.9,7.9,6.4,14.4l3.9,47.1h0Z"/>
    <path class="st0" d="M1145.7,108.2h-17.1V42.2h17.1v66Z"/>
    <path class="st0" d="M1193.3,108.2h-36.2l1.7-14.1h17.2v-24.9c0-5.5-.7-9.2-2.1-11.2-1.4-1.9-3.9-2.9-7.4-2.9s-4.2.4-7,1.1l2.4-13.7c3.1-.8,6.4-1.2,10-1.2s8.7.8,11.9,2.5c3.2,1.7,5.6,4.4,7.2,8,1.6,3.7,2.5,8.6,2.5,14.9v41.5h-.2Z"/>
    <path class="st0" d="M1226.1,79.6h-17.1v-37.4h17.1v37.4Z"/>
    <path class="st0" d="M1259.5,79.6h-17.1v-37.4h17.1v37.4Z"/>
    <path class="st0" d="M1294.9,108.2v-38.3c0-2.9.3-5.5.9-7.8.6-2.4,1.8-4.5,3.7-6.3-3.4.3-7.1.4-11.2.4h-21.1l2.4-14h53.8l-2,14h-1.6c-2.8,0-4.8.8-6,2.5s-1.9,4.7-1.9,9.2v40.3h-17Z"/>
  </g>
  <g>
    <path class="st1" d="M240.6,155.3h13.3v6c0,1.7-.2,3.1-.5,4.1-.3,1.1-.9,2.1-1.7,3.2l-1.2,1.6c-1.2,1.6-1.8,3.4-1.8,5.3v3.9h-4.3v-3.2c0-1.9.2-3.4.6-4.4.4-1,.9-1.9,1.7-2.9l1.4-1.7c.7-.8,1.1-1.6,1.3-2.3.2-.7.3-1.6.3-2.6v-3.2h-13.3v-12.8h4.3v9.2Z"/>
    <path class="st1" d="M281.3,179.3h-5.3l-9.2-13c-1.4.8-2.3,2.3-2.5,4.7l-1,8.3h-4.5l1-8.3c.5-3.9,2-6.5,4.7-7.8l-5.6-7.9h5.3l7.7,10.8c.9-.6,1.6-1.3,2-2.1s.7-2.1.9-3.8l.6-4.8h4.5l-.5,5c-.2,2.1-.7,3.9-1.4,5.2-.7,1.4-2,2.6-3.7,3.7l7.2,10.2Z"/>
    <path class="st1" d="M283.4,155.5c2.3-.3,4.5-.5,6.4-.5,4.9,0,8.3.9,10.2,2.8,1.9,1.9,2.9,4.7,2.9,8.5v13h-4.3v-11.8c0-2.2-.2-3.8-.7-5-.5-1.1-1.4-2-2.7-2.7s-3.2-1-5.6-1-3.5.2-5.8.5l-.4-3.7Z"/>
    <path class="st1" d="M312.8,155.3v3.9c.2,4,.4,6.8.6,8.3,1.6,0,3-.4,4.3-1.2,1.3-.8,1.9-2.3,1.9-4.6l.5-6.5h4.4l-.5,7.6c0,1.3-.2,2.3-.4,2.9-.2.7-.6,1.4-1.2,2.1-.6.7-1.6,1.4-2.9,1.9-1.3.6-3.1.9-5.3,1.1.4,1.6,1.3,2.9,2.6,3.9,1.4,1,3.1,1.5,5.1,1.5s3.5-.4,4.8-1.3,2.3-2,2.9-3.4c.6-1.4,1.1-3.4,1.3-6l1-10.3h4.4l-.8,8.9c-.3,3.3-.9,6.1-1.7,8.3-.8,2.2-2.2,4-4.2,5.4-2,1.4-4.6,2.1-7.8,2.1s-5.2-.7-7.1-2.1c-1.9-1.4-3.3-3.3-4.3-5.9-.9-2.5-1.4-5.9-1.4-10.2l-.3-6.6h4.4Z"/>
    <path class="st1" d="M346.3,155.3v12.4h-4.4v-12.4h4.4Z"/>
    <path class="st1" d="M349.7,168.9v-3.3h25.8v3.3h-25.8Z"/>
    <path class="st1" d="M383.5,155.3v33.3h-4.4v-33.3h4.4Z"/>
    <path class="st1" d="M411.9,179.3h-5.3l-9.2-13c-1.4.8-2.3,2.3-2.5,4.7l-1,8.3h-4.5l1-8.3c.5-3.9,2-6.5,4.7-7.8l-5.6-7.9h5.3l7.7,10.8c.9-.6,1.6-1.3,2-2.1s.7-2.1.9-3.8l.6-4.8h4.5l-.5,5c-.2,2.1-.7,3.9-1.4,5.2-.7,1.4-2,2.6-3.7,3.7l7.2,10.2Z"/>
    <path class="st1" d="M414.1,155.5c2.3-.3,4.5-.5,6.4-.5,4.9,0,8.3.9,10.2,2.8,1.9,1.9,2.9,4.7,2.9,8.5v13h-4.3v-11.8c0-2.2-.2-3.8-.7-5-.5-1.1-1.4-2-2.7-2.7s-3.2-1-5.6-1-3.5.2-5.8.5l-.4-3.7Z"/>
    <path class="st1" d="M444.7,155.3v12.4h-4.4v-12.4h4.4Z"/>
    <path class="st1" d="M473.1,179.3h-5.3l-9.2-13c-1.4.8-2.3,2.3-2.5,4.7l-1,8.3h-4.5l1-8.3c.5-3.9,2-6.5,4.7-7.8l-5.6-7.9h5.3l7.7,10.8c.9-.6,1.6-1.3,2-2.1s.7-2.1.9-3.8l.6-4.8h4.5l-.5,5c-.2,2.1-.7,3.9-1.4,5.2-.7,1.4-2,2.6-3.7,3.7l7.2,10.2Z"/>
    <path class="st1" d="M488.1,178.7l.7-3.2c.8.3,1.6.4,2.6.4s1.8-.2,2.2-.7c.4-.5.6-1.3.6-2.5v-13.9c-1.3,0-2.9.1-4.8.4l-.4-3.6c3.4-.4,6.9-.7,10.5-.7s6.4.3,8.3.9c1.9.6,3.4,1.7,4.4,3.3s1.5,4,1.5,7.1v13h-4.3v-11.8c0-2.3-.2-4.1-.5-5.1-.4-1.1-1.1-2-2.3-2.7-1.2-.7-3.2-1-5.9-1h-2.2v14.6c0,1.5-.1,2.7-.4,3.5-.3.8-.9,1.5-1.7,2-.9.5-2.2.8-4,.8s-2.8-.2-4.2-.7Z"/>
    <path class="st1" d="M522.6,165.3l-3.7-10h4.2l1.8,5.3c.7-1.6,1.8-2.9,3.3-4,1.5-1.1,3.1-1.6,4.9-1.6s3.4.5,4.8,1.4c1.3.9,2.3,2.3,2.9,4.1s.9,4.5.9,8.2v10.6h-12.4v-3.6h8v-7c0-2.7,0-4.6-.3-5.8-.2-1.2-.6-2.2-1.3-3-.7-.8-1.6-1.1-2.7-1.1-1.7,0-3.1.9-4.3,2.6-1.2,1.7-2.2,4.8-3,9.1l-1.7,8.9h-4.4l1.9-9.4c.2-.9.6-2.4,1.1-4.6Z"/>
    <path class="st1" d="M569.4,179.3h-4.3v-13c0-1.8-.2-3.2-.6-4.2-.4-1-1.2-1.8-2.4-2.4-1.2-.6-2.9-.9-5.1-.9s-2.7.1-4.3.3v20.2h-4.3v-23.5c3.2-.5,6.2-.8,8.9-.8s5.3.4,7.1,1.3c1.8.9,3.1,2,3.8,3.5.7,1.4,1.1,3.5,1.1,6.1v13.5Z"/>
    <path class="st1" d="M578.4,155.3h13.3v6c0,1.7-.2,3.1-.5,4.1-.3,1.1-.9,2.1-1.7,3.2l-1.2,1.6c-1.2,1.6-1.8,3.4-1.8,5.3v3.9h-4.3v-3.2c0-1.9.2-3.4.6-4.4.4-1,.9-1.9,1.7-2.9l1.4-1.7c.7-.8,1.1-1.6,1.3-2.3.2-.7.3-1.6.3-2.6v-3.2h-13.3v-12.8h4.3v9.2Z"/>
    <path class="st1" d="M599.7,165.3l-3.7-10h4.2l1.8,5.3c.7-1.6,1.8-2.9,3.3-4,1.5-1.1,3.1-1.6,4.9-1.6s3.4.5,4.8,1.4c1.3.9,2.3,2.3,2.9,4.1s.9,4.5.9,8.2v10.6h-12.4v-3.6h8v-7c0-2.7,0-4.6-.3-5.8-.2-1.2-.6-2.2-1.3-3-.7-.8-1.6-1.1-2.7-1.1-1.7,0-3.1.9-4.3,2.6-1.2,1.7-2.2,4.8-3,9.1l-1.7,8.9h-4.4l1.9-9.4c.2-.9.6-2.4,1.1-4.6Z"/>
    <path class="st1" d="M640.6,155.3h13.3v6c0,1.7-.2,3.1-.5,4.1-.3,1.1-.9,2.1-1.7,3.2l-1.2,1.6c-1.2,1.6-1.8,3.4-1.8,5.3v3.9h-4.3v-3.2c0-1.9.2-3.4.6-4.4.4-1,.9-1.9,1.7-2.9l1.4-1.7c.7-.8,1.1-1.6,1.3-2.3.2-.7.3-1.6.3-2.6v-3.2h-13.3v-12.8h4.3v9.2Z"/>
    <path class="st1" d="M663.1,155.3v3.9c.2,4,.4,6.8.6,8.3,1.6,0,3-.4,4.3-1.2s1.9-2.3,1.9-4.6l.5-6.5h4.3l-.5,7.6c0,1.3-.2,2.3-.4,2.9-.2.7-.6,1.4-1.2,2.1-.6.7-1.6,1.4-2.9,1.9-1.3.6-3.1.9-5.3,1.1.4,1.6,1.3,2.9,2.6,3.9,1.4,1,3.1,1.5,5.1,1.5s3.5-.4,4.8-1.3c1.3-.9,2.3-2,2.9-3.4.6-1.4,1.1-3.4,1.3-6l1-10.3h4.3l-.8,8.9c-.3,3.3-.9,6.1-1.7,8.3-.8,2.2-2.2,4-4.2,5.4-2,1.4-4.6,2.1-7.8,2.1s-5.2-.7-7.1-2.1c-1.9-1.4-3.3-3.3-4.3-5.9-.9-2.5-1.4-5.9-1.4-10.2l-.3-6.6h4.4Z"/>
    <path class="st1" d="M705,155.7c2.7-.5,5.4-.7,8-.7,5,0,8.5.9,10.4,2.8s2.9,4.7,2.9,8.5v13h-4.3v-11.8c0-2.4-.3-4.2-.8-5.3-.6-1.1-1.5-2-2.9-2.6s-3.4-.9-6-.9-4.3.2-6.9.6l-.4-3.7ZM709.6,165.8v13.5h-4.3v-13.5h4.3Z"/>
    <path class="st1" d="M735,165.3l-3.7-10h4.2l1.8,5.3c.7-1.6,1.8-2.9,3.3-4,1.5-1.1,3.1-1.6,4.9-1.6s3.4.5,4.8,1.4c1.3.9,2.3,2.3,2.9,4.1s.9,4.5.9,8.2v10.6h-12.4v-3.6h8v-7c0-2.7,0-4.6-.3-5.8-.2-1.2-.6-2.2-1.3-3-.7-.8-1.6-1.1-2.7-1.1-1.7,0-3.1.9-4.3,2.6-1.2,1.7-2.2,4.8-3,9.1l-1.7,8.9h-4.4l1.9-9.4c.2-.9.6-2.4,1.1-4.6Z"/>
    <path class="st1" d="M759.2,179l.6-3.9c1.4.5,2.9.7,4.4.7s3.1-.4,4.3-1.1,2.1-1.7,2.7-3c.6-1.3.9-2.8.9-4.4,0-2.5-.7-4.6-2.1-6.2s-3.3-2.4-5.9-2.4-3,.2-4.4.7l-.6-3.9c1.8-.5,3.3-.7,4.7-.7,4,0,7.2,1.2,9.4,3.5,2.3,2.3,3.4,5.3,3.4,8.9s-.5,4.4-1.5,6.3c-1,1.8-2.4,3.3-4.2,4.4-1.9,1.1-4.2,1.7-7.1,1.7s-3-.2-4.7-.7Z"/>
    <path class="st1" d="M803.3,179.3h-4.3v-13c0-1.8-.2-3.2-.6-4.2-.4-1-1.2-1.8-2.4-2.4-1.2-.6-2.9-.9-5.1-.9s-2.7.1-4.3.3v20.2h-4.3v-23.5c3.2-.5,6.2-.8,8.9-.8s5.3.4,7.1,1.3c1.8.9,3.1,2,3.8,3.5.7,1.4,1.1,3.5,1.1,6.1v13.5Z"/>
    <path class="st1" d="M822.8,155.7c2.7-.5,5.4-.7,8-.7,5,0,8.5.9,10.4,2.8s2.9,4.7,2.9,8.5v13h-4.3v-11.8c0-2.4-.3-4.2-.8-5.3-.6-1.1-1.5-2-2.9-2.6s-3.4-.9-6-.9-4.3.2-6.9.6l-.4-3.7ZM827.4,165.8v13.5h-4.3v-13.5h4.3Z"/>
    <path class="st1" d="M854,155.3v3.9c.2,4,.4,6.8.6,8.3,1.6,0,3-.4,4.3-1.2,1.3-.8,1.9-2.3,1.9-4.6l.5-6.5h4.3l-.5,7.6c0,1.3-.2,2.3-.4,2.9-.2.7-.6,1.4-1.2,2.1-.6.7-1.6,1.4-2.9,1.9-1.3.6-3.1.9-5.3,1.1.4,1.6,1.3,2.9,2.6,3.9,1.4,1,3.1,1.5,5.1,1.5s3.5-.4,4.8-1.3,2.3-2,2.9-3.4c.6-1.4,1.1-3.4,1.3-6l1-10.3h4.3l-.8,8.9c-.3,3.3-.9,6.1-1.7,8.3s-2.2,4-4.2,5.4c-2,1.4-4.6,2.1-7.8,2.1s-5.2-.7-7.1-2.1c-1.9-1.4-3.3-3.3-4.3-5.9-.9-2.5-1.4-5.9-1.4-10.2l-.3-6.6h4.4Z"/>
    <path class="st1" d="M904.1,179.3h-4.3v-13c0-1.8-.2-3.2-.6-4.2-.4-1-1.2-1.8-2.4-2.4-1.2-.6-2.9-.9-5.1-.9s-2.7.1-4.3.3v20.2h-4.3v-23.5c3.2-.5,6.2-.8,8.9-.8s5.3.4,7.1,1.3c1.8.9,3.1,2,3.8,3.5.7,1.4,1.1,3.5,1.1,6.1v13.5Z"/>
    <path class="st1" d="M912.9,165.3l-3.7-10h4.2l1.8,5.3c.7-1.6,1.8-2.9,3.3-4,1.5-1.1,3.1-1.6,4.9-1.6s3.4.5,4.8,1.4c1.3.9,2.3,2.3,2.9,4.1s.9,4.5.9,8.2v10.6h-12.4v-3.6h8v-7c0-2.7,0-4.6-.3-5.8-.2-1.2-.6-2.2-1.3-3-.7-.8-1.6-1.1-2.7-1.1-1.7,0-3.1.9-4.3,2.6-1.2,1.7-2.2,4.8-3,9.1l-1.7,8.9h-4.4l1.9-9.4c.2-.9.6-2.4,1.1-4.6Z"/>
    <path class="st1" d="M938.7,155.7c2.7-.5,5.4-.7,8-.7,5,0,8.5.9,10.4,2.8s2.9,4.7,2.9,8.5v13h-4.3v-11.8c0-2.4-.3-4.2-.8-5.3-.6-1.1-1.5-2-2.9-2.6s-3.4-.9-6-.9-4.3.2-6.9.6l-.4-3.7ZM943.3,165.8v13.5h-4.3v-13.5h4.3Z"/>
    <path class="st1" d="M971.1,155.3v24h-4.4v-24h4.4Z"/>
    <path class="st1" d="M995.5,155.3v33.3h-4.4v-33.3h4.4Z"/>
    <path class="st1" d="M1000.8,179l.6-3.9c1.4.5,2.9.7,4.4.7s3.1-.4,4.3-1.1,2.1-1.7,2.7-3c.6-1.3.9-2.8.9-4.4,0-2.5-.7-4.6-2.1-6.2s-3.3-2.4-5.9-2.4-3,.2-4.4.7l-.6-3.9c1.8-.5,3.3-.7,4.7-.7,4,0,7.2,1.2,9.4,3.5,2.3,2.3,3.4,5.3,3.4,8.9s-.5,4.4-1.5,6.3c-1,1.8-2.4,3.3-4.2,4.4-1.9,1.1-4.2,1.7-7.1,1.7s-3-.2-4.7-.7Z"/>
    <path class="st1" d="M1028.3,155.3v24h-4.4v-24h4.4Z"/>
    <path class="st1" d="M1032.7,178.7l.7-3.2c.8.3,1.6.4,2.6.4s1.8-.2,2.2-.7c.4-.5.6-1.3.6-2.5v-13.9c-1.3,0-2.9.1-4.8.4l-.4-3.6c3.4-.4,6.9-.7,10.5-.7s6.4.3,8.3.9c1.9.6,3.4,1.7,4.4,3.3s1.5,4,1.5,7.1v13h-4.3v-11.8c0-2.3-.2-4.1-.5-5.1-.4-1.1-1.1-2-2.3-2.7-1.2-.7-3.2-1-5.9-1h-2.2v14.6c0,1.5-.1,2.7-.4,3.5-.3.8-.9,1.5-1.7,2s-2.2.8-4,.8-2.8-.2-4.2-.7Z"/>
    <path class="st1" d="M1075.4,178.7l.7-3.2c.8.3,1.6.4,2.6.4s1.8-.2,2.2-.7c.4-.5.6-1.3.6-2.5v-13.9c-1.3,0-2.9.1-4.8.4l-.4-3.6c3.4-.4,6.9-.7,10.5-.7s6.4.3,8.3.9c1.9.6,3.4,1.7,4.4,3.3s1.5,4,1.5,7.1v13h-4.3v-11.8c0-2.3-.2-4.1-.5-5.1-.4-1.1-1.1-2-2.3-2.7-1.2-.7-3.2-1-5.9-1h-2.2v14.6c0,1.5-.1,2.7-.4,3.5-.3.8-.9,1.5-1.7,2s-2.2.8-4,.8-2.8-.2-4.2-.7Z"/>
    <path class="st1" d="M1105.2,155.5c2.3-.3,4.5-.5,6.4-.5,4.9,0,8.2.9,10.2,2.8,1.9,1.9,2.9,4.7,2.9,8.5v13h-4.3v-11.8c0-2.2-.2-3.8-.7-5-.5-1.1-1.4-2-2.7-2.7-1.3-.7-3.2-1-5.6-1s-3.5.2-5.8.5l-.4-3.7Z"/>
    <path class="st1" d="M1135.9,155.3v12.4h-4.4v-12.4h4.4Z"/>
    <path class="st1" d="M1159.1,155.3l-.2,4.3c0,1.4-.2,2.6-.5,3.5s-.8,1.8-1.6,2.7c-.8.9-2.1,1.9-3.8,2.9l5.1,8v2.6h-17.3v-3.6h12.1l-13.3-20.4h4.9l6.7,10.7c1.1-.8,1.9-1.7,2.4-2.7.5-.9.7-2.3.7-4l.2-4h4.5Z"/>
    <path class="st1" d="M1169.5,155.3v12.4h-4.4v-12.4h4.4Z"/>
    <path class="st1" d="M1178.7,155.3h13.3v6c0,1.7-.2,3.1-.5,4.1-.3,1.1-.9,2.1-1.7,3.2l-1.2,1.6c-1.2,1.6-1.8,3.4-1.8,5.3v3.9h-4.3v-3.2c0-1.9.2-3.4.6-4.4.4-1,.9-1.9,1.7-2.9l1.4-1.7c.7-.8,1.1-1.6,1.3-2.3.2-.7.3-1.6.3-2.6v-3.2h-13.3v-12.8h4.3v9.2Z"/>
    <path class="st1" d="M1224.1,158.3c-2.3,0-4.1.7-5.4,2s-2,3.1-2,5.3,0,1.3.2,2.6c.4,3.7.6,6.3.6,7.8v3.3h-4.3v-3.9c0-1.6-.2-4.1-.5-7.4-.1-1.1-.2-2-.2-2.8,0-2.5,1-4.6,3.1-6.3h-6.1v-3.6h14.6v3.1Z"/>
    <path class="st1" d="M1227,179l.6-3.9c1.4.5,2.9.7,4.4.7s3.1-.4,4.3-1.1,2.1-1.7,2.7-3c.6-1.3.9-2.8.9-4.4,0-2.5-.7-4.6-2.1-6.2s-3.3-2.4-5.9-2.4-3,.2-4.4.7l-.6-3.9c1.8-.5,3.3-.7,4.7-.7,4,0,7.2,1.2,9.4,3.5,2.3,2.3,3.4,5.3,3.4,8.9s-.5,4.4-1.5,6.3c-1,1.8-2.4,3.3-4.2,4.4-1.9,1.1-4.2,1.7-7.1,1.7s-3-.2-4.7-.7Z"/>
    <path class="st1" d="M1247.5,155.5c2.3-.3,4.5-.5,6.4-.5,4.9,0,8.2.9,10.2,2.8,1.9,1.9,2.9,4.7,2.9,8.5v13h-4.3v-11.8c0-2.2-.2-3.8-.7-5-.5-1.1-1.4-2-2.7-2.7-1.3-.7-3.2-1-5.6-1s-3.5.2-5.8.5l-.4-3.7Z"/>
    <path class="st1" d="M1275.7,165.3l-3.7-10h4.2l1.8,5.3c.7-1.6,1.8-2.9,3.3-4,1.5-1.1,3.1-1.6,4.9-1.6s3.4.5,4.8,1.4c1.3.9,2.3,2.3,2.9,4.1s.9,4.5.9,8.2v10.6h-12.4v-3.6h8v-7c0-2.7,0-4.6-.3-5.8-.2-1.2-.6-2.2-1.3-3-.7-.8-1.6-1.1-2.7-1.1-1.7,0-3.1.9-4.3,2.6-1.2,1.7-2.2,4.8-3,9.1l-1.7,8.9h-4.4l1.9-9.4c.2-.9.6-2.4,1.1-4.6Z"/>
    <path class="st1" d="M1301.5,155.7c2.7-.5,5.4-.7,8-.7,5,0,8.5.9,10.4,2.8s2.9,4.7,2.9,8.5v13h-4.3v-11.8c0-2.4-.3-4.2-.8-5.3-.6-1.1-1.5-2-2.9-2.6s-3.4-.9-6-.9-4.3.2-6.9.6l-.4-3.7ZM1306.1,165.8v13.5h-4.3v-13.5h4.3Z"/>
  </g>
</svg>