<?xml version="1.0" encoding="UTF-8"?>
<svg id="Layer_1" xmlns="http://www.w3.org/2000/svg" version="1.1" viewBox="0 0 1323.8 250.7">
  <!-- Generator: Adobe Illustrator 29.1.0, SVG Export Plug-In . SVG Version: 2.1.0 Build 142)  -->
  <defs>
    <style>
      .st0 {
        fill: #f3922b;
      }

      .st1 {
        fill: #fff;
      }

      .st2 {
        fill: none;
        stroke: #f3922b;
        stroke-miterlimit: 10;
        stroke-width: 12px;
      }
    </style>
  </defs>
  <rect class="st0" x="57.7" y="57.9" width="73.6" height="73.6" transform="translate(-39.3 94.6) rotate(-45)"/>
  <rect class="st2" x="33.8" y="33.8" width="121.9" height="121.9" transform="translate(-39.3 94.7) rotate(-45)"/>
  <g>
    <path class="st0" d="M253,134c-5.3-5.4-7.9-13.2-7.9-23.4v-27.5h29.9v23.6c0,1.3.3,2.2.9,2.9s1.6,1,3.1,1h43.3c.9,0,1.7-.2,2.3-.7.6-.5.9-1,.9-1.7s-.2-1.1-.6-1.8-1-1.4-1.7-2.1l-29.9-29.1v-22l64.5-23.6,7.1,29.9-31.5,11.8,12.6,12.6c8.1,8.1,14.4,14,19,17.7s8.3,6.2,11.2,7.3c2.9,1.2,6.2,1.7,10,1.7s1.6,5.2,1.6,15.7-.5,15.7-1.6,15.7c-6.8,0-12.1-.2-16-.7-3.8-.5-7-1.4-9.5-2.7s-4.9-3.3-7.2-6.1c-1,1.3-2.5,2.5-4.2,3.8-2.4,1.7-5.5,3-9.3,4.1-3.8,1-7.8,1.6-12,1.6h-51.9c-9.9,0-17.4-2.7-22.7-8.1h-.4,0ZM352.1,3.6l3.9,17.3-62.9,22.8v-18.9s59-21.2,59-21.2Z"/>
    <path class="st0" d="M401.8,110.1c.5-.4.7-1,.7-1.8v-25.2h29.9v25.2c0,.7.2,1.3.7,1.7s1.3.6,2.4.6h3.1c1,0,1.6,5.2,1.6,15.7s-.5,15.7-1.6,15.7h-4.7c-3.7,0-7-.4-9.9-1.3-2.9-.9-5.4-2.3-7.4-4.2-2,2-4.3,3.4-6.9,4.2s-6.1,1.3-10.4,1.3h-13.4c-1,0-1.6-5.2-1.6-15.7s.2-11,.5-12.9.7-2.8,1.1-2.8h13.4c1.2,0,2-.2,2.4-.6h.1,0ZM396.2,73.7v-22.8h29.9v22.8h-29.9Z"/>
    <path class="st0" d="M470.9,109c5.9-1.1,11.1-2.6,15.6-4.6l1.7-.8c-.4-1.5-1-2.5-1.7-3.1s-1.7-.9-3-.9h-35.4l2.4-29.9h40.9c5.9,0,10.8,1.3,14.9,3.9,4,2.6,7.6,7,10.5,13.1,3,6.1,5.8,14.6,8.4,25.4l-36.2,20.5c-5.8,3.4-11.6,5.8-17.5,7.2-5.9,1.5-13.2,2.2-21.9,2.2h-11c-1,0-1.6-5.2-1.6-15.7s.2-11,.5-12.9.7-2.8,1.1-2.8h12.6c7.2,0,13.8-.6,19.7-1.7h0ZM459.9,174.4v-22.8h29.9v22.8h-29.9Z"/>
    <path class="st0" d="M567.8,134c-5.3-5.4-7.9-13.2-7.9-23.4v-27.5h29.9v23.6c0,1.3.3,2.2.9,2.9.6.7,1.6,1,3.1,1h43.3c.9,0,1.7-.2,2.3-.7s.9-1,.9-1.7-.2-1.1-.6-1.8c-.4-.7-1-1.4-1.7-2.1l-29.9-29.1v-22l64.5-23.6,7.1,29.9-31.5,11.8,12.6,12.6c8.1,8.1,14.4,14,19,17.7s8.3,6.2,11.2,7.3c2.9,1.2,6.2,1.7,10,1.7s1.6,5.2,1.6,15.7-.5,15.7-1.6,15.7c-6.8,0-12.1-.2-16-.7-3.8-.5-7-1.4-9.5-2.7s-4.9-3.3-7.2-6.1c-1,1.3-2.5,2.5-4.2,3.8-2.4,1.7-5.5,3-9.3,4.1-3.8,1-7.8,1.6-12,1.6h-51.9c-9.9,0-17.4-2.7-22.7-8.1h-.4,0Z"/>
    <path class="st0" d="M683.4,174.2v-22.8h24.4v22.8h-24.4ZM716.5,109.9c.5-.4.7-1,.7-1.8v-25.2h29.9v25.2c0,.7.2,1.3.7,1.7s1.3.6,2.4.6h3.1c1,0,1.6,5.2,1.6,15.7s-.5,15.7-1.6,15.7h-4.7c-3.7,0-7-.4-9.9-1.3-2.9-.9-5.4-2.3-7.4-4.2-2,2-4.3,3.4-6.9,4.2-2.6.8-6.1,1.3-10.4,1.3h-13.4c-1,0-1.6-5.2-1.6-15.7s.2-11,.5-12.9.7-2.8,1.1-2.8h13.4c1.2,0,2-.2,2.4-.6h0q0,0,0,.1ZM706.2,174.2v-22.8h24.4v22.8h-24.4Z"/>
    <path class="st0" d="M764,110.6h.4c-.3-.8-.6-1.8-.8-2.9s-.4-2.3-.6-3.5c-.2-1.3-.2-2.5-.2-3.8,0-5.5,1.3-10.7,3.9-15.8,2.6-5.1,6.4-9.2,11.5-12.4,5.1-3.2,11.3-4.8,18.5-4.8,10.6,0,18.6,3.1,24.1,9.2s8.2,15.1,8.2,27v6.3c0,10.2-3.3,18.1-10,23.8s-15.9,8.5-27.8,8.5h-37.8c-1,0-1.6-5.2-1.6-15.7s.2-11,.5-12.9.7-2.8,1.1-2.8h10.6v-.2h0ZM781.7,58.7v-22.8h29.9v22.8h-29.9ZM801.3,108.4c0-1.3.2-2.6.2-4.1v-.8c0-2.1-.4-3.8-1.3-5.1-.9-1.3-2.3-2-4.2-2s-1.8.2-2.4.6c-.7.4-1.2,1-1.7,1.7-.4.7-.6,1.5-.6,2.4,0,1.6.3,3,1,4.4s1.7,2.5,3.1,3.5c1.4,1,3.2,1.8,5.3,2.3.3-.7.5-1.7.6-3h0Z"/>
    <path class="st0" d="M842.3,41.4h29.9v94.4h-29.9V41.4Z"/>
    <path class="st0" d="M884.7,143.8c2.7-2,4-5.2,4-9.5v-51.1h29.9v24.4c0,1.2.2,2,.7,2.4.5.5,1.3.7,2.4.7h6.3c1,0,1.6,5.2,1.6,15.7s-.5,15.7-1.6,15.7h-3.1c-1.2,0-2.3,0-3.5-.2s-2.3-.4-3.2-.9c-.9,7-3.2,13.4-6.8,19-3.6,5.7-8.5,10.1-14.6,13.4-6.1,3.3-13.2,4.9-21.4,4.9h-7.9l-2.4-31.5h7.9c5.1,0,9-1,11.7-3.1h0q0,.1,0,.1Z"/>
    <path class="st0" d="M965.8,109.9c.6-.5.9-1,.9-1.7s-.2-1.1-.6-1.8c-.4-.7-1-1.4-1.7-2.1l-29.9-29.1v-22l64.5-23.6,7.1,29.9-31.5,11.8,12.6,12.6c5.7,5.7,9.4,10.6,11.3,14.8s2.8,9,2.8,14.3c0,9.8-3,17.1-8.9,21.9s-13.7,7.2-23.4,7.2h-40.9c-1,0-1.6-5.2-1.6-15.7s.2-11,.5-12.9.7-2.8,1.1-2.8h35.4c.9,0,1.7-.2,2.3-.7h0q0,0,0-.1ZM993.4,3.6l3.9,17.3-62.9,22.8v-18.9s59-21.2,59-21.2Z"/>
    <path class="st0" d="M1078.9,157.5c-3.4,6.7-8.2,11.9-14.4,15.4-6.2,3.6-13.7,5.4-22.3,5.4h-23.6l-2.4-30.7h31.5c1.5,0,2.8-.2,3.9-.6,1.1-.4,1.9-1,2.4-1.7s.8-1.5.8-2.4v-1.6h-3.9c-12.2,0-20.9-2.5-26-7.6-5.2-5.1-7.8-13.6-7.8-25.4v-.8c0-6.7,1.4-12.8,4.2-18.2,2.8-5.4,6.7-9.6,11.6-12.7,5-3,10.7-4.6,17.2-4.6,10.7,0,19,3.2,24.9,9.7s8.9,15.6,8.9,27.3v24.4c0,9.3-1.7,17.4-5,24.1h0ZM1046.7,111c.9.8,2.3,1.2,4.2,1.2h4.7v-4.7c0-2-.4-3.5-1.3-4.6-.8-1.1-2.2-1.7-4.1-1.7s-2.8.5-3.6,1.5c-.8,1-1.3,2.3-1.3,4v.8c0,1.6.4,2.8,1.3,3.5h.1ZM1094.1,126.4c0,10.5-.5,15.7-1.6,15.7h-11v-31.5h11c1,0,1.6,5.2,1.6,15.7h0Z"/>
    <path class="st0" d="M1108.4,110.1c.5-.4.7-1,.7-1.8v-25.2h29.9v25.2c0,.7.2,1.3.7,1.7s1.3.6,2.4.6h3.1c1,0,1.6,5.2,1.6,15.7s-.5,15.7-1.6,15.7h-4.7c-3.7,0-7-.4-9.9-1.3-2.9-.9-5.4-2.3-7.4-4.2-2,2-4.3,3.4-6.9,4.2s-6.1,1.3-10.4,1.3h-13.4c-1,0-1.6-5.2-1.6-15.7s.2-11,.5-12.9.7-2.8,1.1-2.8h13.4c1.2,0,2-.2,2.4-.6h.1ZM1102.8,73.7v-22.8h29.9v22.8h-29.9Z"/>
    <path class="st0" d="M1134.3,174.4v-22.8h24.4v22.8h-24.4ZM1183.4,133.6c-5.6,5.7-13.3,8.5-23.1,8.5h-15c-1,0-1.6-5.2-1.6-15.7s.2-11,.5-12.9.7-2.8,1.1-2.8h13.4c.9,0,1.7-.3,2.3-.9.6-.6.9-1.3.9-2.3v-24.4h29.9v26.8c0,10.2-2.8,18.1-8.3,23.8h-.1ZM1157.1,174.4v-22.8h24.4v22.8h-24.4Z"/>
    <path class="st0" d="M1205.1,41.4h29.9v100.7h-29.9V41.4Z"/>
    <path class="st0" d="M1285.3,54.8l26,32.3c4.4,5.5,7.5,10.3,9.2,14.6s2.6,8.6,2.6,12.9c0,8.3-2.8,15-8.3,20-5.6,5-13,7.6-22.3,7.6h-43.3l-2.4-31.5h37.8c.8,0,1.6-.2,2.2-.6s.9-1,.9-1.7-.2-1.3-.5-1.9-.8-1.3-1.4-2l-23.3-27.5,22.8-22v-.2h0Z"/>
  </g>
  <g>
    <path class="st1" d="M239.1,240.6c-2.1-2.2-3.1-5.2-3.1-9.2v-8.8h5.6v8.6c0,2.3.5,4,1.5,5.1,1,1.1,2.6,1.7,4.9,1.7h1.7c1.4,0,2.7-.3,3.7-.8,1-.5,1.8-1.2,2.3-2.2.5-.9.8-2.1.8-3.4v-26.8h5.6v20.2c0,.8.2,1.3.6,1.7.4.4,1,.6,1.8.6h1.1c.1,0,.2.2.3.6,0,.4.1,1.2.1,2.4s0,1.9-.1,2.3c0,.4-.2.5-.3.5h-1c-.6,0-1.1,0-1.6-.2-.5-.1-.8-.3-1.1-.4,0,2.2-.5,4.1-1.6,5.8-1.1,1.7-2.5,3-4.4,3.9-1.9.9-4,1.4-6.4,1.4h-1.8c-3.8,0-6.8-1.1-8.8-3.3Z"/>
    <path class="st1" d="M264.8,243v-5h6.4v5h-6.4ZM275.6,227c.4-.4.7-1,.7-1.7v-7h5.6v6.8c0,.9.2,1.5.6,1.9.4.4,1,.6,1.9.6h1.6c.3,0,.4,1,.4,2.9s-.1,2.9-.4,2.9h-1.9c-1.2,0-2.2-.2-3.1-.5-.9-.3-1.5-.9-2-1.7-.5.8-1.2,1.3-2.1,1.7-.9.3-1.9.5-3.1.5h-8.1c-.3,0-.4-.9-.4-2.8s0-2,.1-2.4c0-.4.2-.6.3-.6h8.1c.8,0,1.4-.2,1.8-.6ZM270.8,243v-5h6.4v5h-6.4Z"/>
    <path class="st1" d="M296.2,231.2c-1.4,1.5-3.4,2.2-5.9,2.2h-4.4c-.3,0-.4-.9-.4-2.8s0-2,.1-2.4c0-.4.2-.6.3-.6h4.4c.8,0,1.4-.2,1.8-.7.4-.5.7-1.1.7-2v-6.6h5.5v6.7c0,2.7-.7,4.8-2.1,6.2ZM288.4,207.2c-.4-.7-.5-1.4-.5-2.2,0-1.1.2-2,.7-2.8.5-.8,1.1-1.4,1.9-1.9.8-.5,1.8-.7,2.9-.7h2.5v3.4h-2.4c-.6,0-1.2.2-1.6.5-.4.4-.6.8-.6,1.4s.2,1.1.6,1.4c.4.4.9.5,1.4.5s.9-.1,1.5-.3c.5-.2,1.4-.7,2.7-1.4l1.4,3.1-9.5,4.9-1.6-3.1,2.4-1.3c-.7-.4-1.2-1-1.6-1.7Z"/>
    <path class="st1" d="M304.7,205h5.5v28.2h-5.5v-28.2Z"/>
    <path class="st1" d="M317.4,236.4c1.1-1.1,1.7-2.7,1.7-4.7v-13.5h5.5v6.6c0,1,.2,1.7.7,2.1.5.4,1.2.6,2.2.6h.7c.3,0,.4,1,.4,2.9s-.1,2.8-.4,2.8h-.7c-.6,0-1.2,0-1.7-.2-.5-.2-1-.4-1.3-.7,0,2.3-.6,4.3-1.6,6-1,1.7-2.4,3-4.1,4-1.8,1-3.8,1.4-6.1,1.4h-1.4l-.5-5.8h1.8c2,0,3.6-.6,4.7-1.7Z"/>
    <path class="st1" d="M334,226.9c.5-.5.8-1.1.8-2v-6.6h5.5v6.6c0,.9.2,1.6.7,2,.5.5,1.3.7,2.4.7s1.7-.2,2.2-.7c.5-.5.8-1.1.8-2v-6.6h5.6v6.6c0,.9.2,1.5.7,2,.5.5,1.2.7,2.2.7s1.7-.2,2.1-.7c.5-.5.7-1.2.7-2v-6.6h5.5v6.7c0,2.6-.7,4.7-2.2,6.2-1.5,1.5-3.5,2.2-6.2,2.2s-2.8-.2-3.7-.6c-.9-.4-1.6-1-2.1-1.8-.6.8-1.3,1.4-2.2,1.8-.9.4-2,.6-3.4.6s-3-.2-3.9-.6c-.9-.4-1.7-1-2.2-1.8-.6.8-1.3,1.4-2.2,1.8-.9.4-2.1.6-3.4.6h-3.4c-.3,0-.4-.9-.4-2.8s0-2,.1-2.4c0-.4.2-.6.3-.6h3.4c1,0,1.8-.2,2.3-.7Z"/>
    <path class="st1" d="M369.6,205h5.5v28.3h-5.5v-28.3Z"/>
    <path class="st1" d="M381.5,221.8h19.9v5.5h-19.9v-5.5Z"/>
    <path class="st1" d="M410.4,240.6c-2.1-2.2-3.1-5.2-3.1-9.2v-8.8h5.6v8.6c0,2.3.5,4,1.5,5.1,1,1.1,2.6,1.7,4.9,1.7h1.7c1.4,0,2.7-.3,3.7-.8,1-.5,1.8-1.2,2.3-2.2.5-.9.8-2.1.8-3.4v-13.5h5.6v13c0,2.6-.5,4.9-1.5,6.8-1,1.9-2.5,3.3-4.3,4.3-1.9,1-4,1.5-6.5,1.5h-1.8c-3.8,0-6.8-1.1-8.8-3.3ZM416.4,217.6v-5h5.9v5h-5.9Z"/>
    <path class="st1" d="M439.7,205h5.5v28.2h-5.5v-28.2Z"/>
    <path class="st1" d="M452.4,236.4c1.1-1.1,1.7-2.7,1.7-4.7v-13.5h5.5v6.6c0,1,.2,1.7.7,2.1.5.4,1.2.6,2.2.6h.7c.3,0,.4,1,.4,2.9s-.1,2.8-.4,2.8h-.7c-.6,0-1.2,0-1.7-.2-.5-.2-1-.4-1.3-.7,0,2.3-.6,4.3-1.6,6-1,1.7-2.4,3-4.1,4-1.8,1-3.8,1.4-6.1,1.4h-1.4l-.5-5.8h1.8c2,0,3.6-.6,4.7-1.7Z"/>
    <path class="st1" d="M475.8,226.9c.5-.5.7-1.1.7-2v-6.6h5.5v6.7c0,2.7-.7,4.8-2.1,6.2-1.4,1.5-3.4,2.2-5.9,2.2h-10.8c-.3,0-.4-.9-.4-2.8s0-2,.1-2.4c0-.4.2-.6.3-.6h10.7c.8,0,1.4-.2,1.8-.7ZM463.6,243v-5h6.4v5h-6.4ZM469.6,243v-5h6.4v5h-6.4Z"/>
    <path class="st1" d="M488.4,205h5.5v28.3h-5.5v-28.3Z"/>
    <path class="st1" d="M512.2,231.3c-1.4-1.4-2.1-3.4-2.1-6v-7h5.6v6.3c0,1,.2,1.8.7,2.3.4.5,1.2.8,2.2.8h14.7c.9,0,1.7-.1,2.2-.4.5-.3.7-.7.7-1.2s-.1-.9-.4-1.3c-.2-.4-.6-.9-1.1-1.4l-9.5-9.3v-4.6l16.6-6.4,1.5,5.4-11.4,4.3,6.9,6.9c2.6,2.6,4.5,4.4,5.7,5.5,1.2,1.1,2.3,1.8,3,2.1.8.4,1.7.5,2.7.5s.4,1,.4,2.9-.1,2.8-.4,2.8c-1.5,0-2.7-.1-3.6-.3-.9-.2-1.8-.6-2.6-1.2-.8-.6-1.8-1.4-3-2.5-.1.4-.4.8-.7,1.3-.7.8-1.6,1.5-2.8,2-1.2.5-2.6.7-4,.7h-15.1c-2.6,0-4.7-.7-6.1-2.1ZM539.9,195.9l1,3.4-15.8,6.4v-3.7l14.8-6.1Z"/>
    <path class="st1" d="M557.2,227c.4-.4.7-1,.7-1.7v-7h5.5v6.8c0,.9.2,1.5.6,1.9.4.4,1,.6,1.9.6h1.7c.3,0,.4,1,.4,2.9s-.1,2.9-.4,2.9h-1.9c-1.2,0-2.2-.2-3.1-.5-.9-.3-1.5-.9-1.9-1.7-.5.8-1.2,1.3-2.1,1.7-.9.3-1.9.5-3.1.5h-5.1c-.3,0-.4-.9-.4-2.8s0-2,.1-2.4c0-.4.2-.6.3-.6h5.1c.8,0,1.4-.2,1.8-.6ZM555.5,213.6v-5h5.9v5h-5.9Z"/>
    <path class="st1" d="M576.5,227.2c1.5-.3,2.9-.8,4.3-1.6l4.3-2.4c-.3-1-.8-1.7-1.3-2.1-.6-.4-1.4-.6-2.6-.6h-9.9l.4-5.8h10.5c1.8,0,3.4.3,4.5.9,1.2.6,2.1,1.7,2.9,3.2.8,1.5,1.4,3.5,2,6.2l-8.5,5.3c-1.8,1.2-3.7,2-5.5,2.4-1.9.4-4.2.6-6.8.6h-3.1c-.3,0-.4-.9-.4-2.8s0-2,.1-2.4c0-.4.2-.6.3-.6h3.3c2.3,0,4.1-.1,5.6-.4ZM574.8,243v-5h5.9v5h-5.9Z"/>
    <path class="st1" d="M617,227.1c.4-.3.6-.8.6-1.4s-.1-1-.4-1.7l-4.2-11.4,5.2-2.5,5.1,14.4c.4,1.1.8,1.8,1.3,2.3.4.4,1,.7,1.9.7h1.1c.3,0,.4,1,.4,2.9s0,2-.1,2.3c0,.3-.2.5-.3.5h-1.4c-1.3,0-2.4-.2-3.3-.5-.9-.4-1.6-1-2.1-1.8-.5.8-1.2,1.4-2.1,1.8-.9.4-2,.5-3.2.5h-10l-.4-5.8h10.3c.9,0,1.5-.2,1.9-.5Z"/>
    <path class="st1" d="M634.5,227c.4-.4.7-1,.7-1.7v-7h5.5v6.8c0,.9.2,1.5.6,1.9.4.4,1,.6,1.9.6h1.7c.3,0,.4,1,.4,2.9s-.1,2.9-.4,2.9h-1.9c-1.2,0-2.2-.2-3.1-.5-.9-.3-1.5-.9-1.9-1.7-.5.8-1.2,1.3-2.1,1.7-.9.3-1.9.5-3.1.5h-5.1c-.3,0-.4-.9-.4-2.8s0-2,.1-2.4c0-.4.2-.6.3-.6h5.1c.8,0,1.4-.2,1.8-.6ZM632.8,213.6v-5h5.9v5h-5.9Z"/>
    <path class="st1" d="M669.8,230.5c0,1.9-.1,2.8-.4,2.8h-1.1c-1.2,0-2.3-.2-3.1-.5-.9-.3-1.5-.9-1.9-1.6-.6.7-1.5,1.2-2.6,1.6-1.1.4-2.3.5-3.5.5s-2.7-.2-3.7-.6c-1-.4-1.7-.9-2.2-1.6-.5.8-1.2,1.3-2,1.7-.8.3-1.9.5-3.2.5h-1.1c-.3,0-.4-.9-.4-2.8s0-2,.1-2.4c0-.4.2-.6.3-.6h1.1c.8,0,1.4-.2,1.8-.5.4-.3.5-.9.5-1.7v-1.2c0-2.8.8-5.1,2.4-6.8,1.6-1.7,3.8-2.5,6.6-2.5s4.9.8,6.4,2.4c1.5,1.6,2.2,3.8,2.2,6.7v1c0,.9.2,1.5.6,1.9.4.4.9.6,1.7.6h1.1c.3,0,.4,1,.4,2.9ZM654.6,221.4c-.5.6-.8,1.5-.8,2.6v.2c0,1.1.3,1.9.8,2.5.5.6,1.4.9,2.5.9s2-.3,2.5-.8c.5-.5.8-1.4.8-2.5v-.2c0-1.2-.3-2.1-.8-2.7-.5-.6-1.4-.9-2.5-.9s-1.9.3-2.5.9Z"/>
    <path class="st1" d="M675.1,226.9c.5-.5.8-1.1.8-2v-6.6h5.5v6.6c0,.9.2,1.6.7,2,.5.5,1.3.7,2.4.7s1.7-.2,2.2-.7c.5-.5.8-1.1.8-2v-6.6h5.6v6.6c0,.9.2,1.5.7,2,.5.5,1.2.7,2.2.7s1.7-.2,2.1-.7c.5-.5.7-1.2.7-2v-6.6h5.5v6.7c0,2.6-.7,4.7-2.2,6.2s-3.5,2.2-6.2,2.2-2.8-.2-3.7-.6c-.9-.4-1.6-1-2.1-1.8-.6.8-1.3,1.4-2.2,1.8-.9.4-2,.6-3.4.6s-3-.2-3.9-.6c-.9-.4-1.7-1-2.2-1.8-.6.8-1.3,1.4-2.2,1.8-.9.4-2.1.6-3.4.6h-3.4c-.3,0-.4-.9-.4-2.8s0-2,.1-2.4c0-.4.2-.6.3-.6h3.4c1,0,1.8-.2,2.3-.7ZM683.9,213.6v-5h6.4v5h-6.4ZM687.6,206.5v-4.8h5v4.8h-5ZM689.9,213.6v-5h6.4v5h-6.4Z"/>
    <path class="st1" d="M726.4,238.2c-.9,1.8-2.2,3.3-4,4.2-1.7,1-3.8,1.5-6.1,1.5h-6l-.4-5.8h6.8c1.2,0,2.2-.2,3-.6.8-.4,1.5-.9,1.9-1.6.4-.7.7-1.4.7-2.4v-.2h-3.1c-2.9,0-5.1-.7-6.6-2.1-1.5-1.4-2.2-3.5-2.2-6.2v-.2c0-1.9.4-3.6,1.1-5.1s1.8-2.7,3.1-3.5c1.3-.8,2.9-1.3,4.6-1.3,2.7,0,4.8.9,6.3,2.6,1.6,1.7,2.3,4.2,2.3,7.3v6.6c0,2.6-.5,4.8-1.4,6.6ZM716.6,226.9c.5.4,1.4.7,2.6.7h3.1v-2.7c0-1.4-.3-2.5-.9-3.3-.6-.7-1.4-1.1-2.5-1.1s-1.8.4-2.3,1.1-.8,1.7-.8,2.9v.2c0,1.1.2,1.8.7,2.2ZM731.6,230.5c0,1.9-.1,2.8-.4,2.8h-3.9v-5.8h3.9c.3,0,.4,1,.4,2.9Z"/>
    <path class="st1" d="M734.8,225.6c-.3-.8-.4-1.5-.4-2.3,0-1.6.4-3,1.1-4.3.7-1.3,1.8-2.3,3.1-3,1.3-.7,2.8-1.1,4.5-1.1s3.1.4,4.3,1.1c1.3.7,2.3,1.7,3,2.9.7,1.2,1.1,2.6,1.1,4.1s-.2,1.6-.5,2.4c-.3.8-.7,1.5-1.2,2.1h3.2c.9,0,1.6-.1,2-.4.4-.3.7-.7.7-1.2s-.1-.9-.3-1.3c-.2-.4-.7-.9-1.3-1.6l-8.4-8.7,3.9-4.1,8.6,9.3c1.1,1.1,1.9,2.3,2.4,3.3.5,1.1.7,2.2.7,3.5s-.3,2.6-1,3.7-1.6,1.9-2.8,2.5c-1.2.6-2.7.9-4.4.9h-4.1c-1.9,0-3.2,0-4-.2-.8-.1-1.5-.3-2.1-.7-.6.3-1.3.5-2.3.6-1,.1-2.3.2-4,.2h-5.5c-.3,0-.4-.9-.4-2.8s0-2,.1-2.4c0-.4.2-.6.3-.6h4.7c-.4-.6-.7-1.2-1-2ZM745.5,225.8c.5-.6.8-1.4.8-2.2s-.3-1.7-.9-2.2c-.6-.6-1.4-.9-2.4-.9s-1.8.3-2.4.9-.9,1.3-.9,2.2.3,1.6.8,2.3,1.4,1.2,2.5,1.7c1.1-.5,2-1.1,2.5-1.8Z"/>
    <path class="st1" d="M798.6,232.1c-.4-.3-.9-.5-1.7-.5h-8.4v-8.5c0-1.7.4-3.3,1.1-4.6.7-1.3,1.7-2.4,3-3.1s2.8-1.1,4.5-1.1h5.9l.4,5.6h-6.3c-.9,0-1.6.3-2.2.8-.6.6-.9,1.3-.9,2.2v2.9h3.7c2.4,0,4.1.6,5.3,1.9,1.1,1.2,1.7,3.1,1.7,5.4s-.5,3.7-1.6,5.3c-1.1,1.6-2.6,2.9-4.5,3.9-1.9,1-4,1.5-6.3,1.5h-3.3c-3.8,0-6.8-1.1-8.8-3.3-2.1-2.2-3.1-5.2-3.1-9.2v-8.8h5.6v8.6c0,2.3.5,4,1.5,5.1,1,1.1,2.6,1.7,4.9,1.7h3.3c1.4,0,2.7-.2,3.7-.6,1-.4,1.8-.9,2.3-1.6s.8-1.5.8-2.4-.2-1.1-.6-1.4Z"/>
    <path class="st1" d="M818.6,238.1c-1,1.8-2.3,3.2-4.1,4.2-1.8,1-3.9,1.5-6.3,1.5h-1.4l-.5-5.8h1.8c2,0,3.6-.6,4.7-1.7,1.1-1.1,1.7-2.7,1.7-4.7v-13.5h5.5v13.5c0,2.4-.5,4.6-1.5,6.4ZM814.2,213.6v-5h5.9v5h-5.9Z"/>
    <path class="st1" d="M835.8,228.1c0,.4.1,1.2.1,2.4s0,1.9-.1,2.3c0,.4-.2.5-.3.5h-1.6c-2.5,0-4.3-.7-5.6-2.1-1.3-1.4-1.9-3.5-1.9-6.1v-20.1h5.5v19.8c0,1,.2,1.7.6,2.1.4.5,1,.7,1.8.7h1.2c.1,0,.2.2.3.5Z"/>
    <path class="st1" d="M841.2,226.9c.5-.5.8-1.1.8-2v-6.6h5.5v6.6c0,.9.2,1.6.7,2,.5.5,1.3.7,2.4.7s1.7-.2,2.2-.7c.5-.5.8-1.1.8-2v-6.6h5.6v6.6c0,.9.2,1.5.7,2,.5.5,1.2.7,2.2.7s1.7-.2,2.1-.7c.5-.5.7-1.2.7-2v-6.6h5.5v6.7c0,2.6-.7,4.7-2.2,6.2s-3.5,2.2-6.2,2.2-2.8-.2-3.7-.6c-.9-.4-1.6-1-2.1-1.8-.6.8-1.3,1.4-2.2,1.8-.9.4-2,.6-3.4.6s-3-.2-3.9-.6c-.9-.4-1.7-1-2.2-1.8-.6.8-1.3,1.4-2.2,1.8-.9.4-2.1.6-3.4.6h-3.4c-.3,0-.4-.9-.4-2.8s0-2,.1-2.4c0-.4.2-.6.3-.6h3.4c1,0,1.8-.2,2.3-.7Z"/>
    <path class="st1" d="M882.5,238.1c-1,1.8-2.3,3.2-4.1,4.2-1.8,1-3.9,1.5-6.3,1.5h-3.7l-.4-5.8h4c2,0,3.6-.6,4.7-1.7,1.1-1.1,1.7-2.7,1.7-4.7v-13.5h5.5v13.5c0,2.4-.5,4.6-1.5,6.4Z"/>
    <path class="st1" d="M906.1,238.2c-.9,1.8-2.2,3.3-4,4.2-1.7,1-3.8,1.5-6.1,1.5h-6l-.4-5.8h6.8c1.2,0,2.2-.2,3-.6.8-.4,1.5-.9,1.9-1.6.4-.7.7-1.4.7-2.4v-.2h-3.1c-2.9,0-5.1-.7-6.6-2.1-1.5-1.4-2.2-3.5-2.2-6.2v-.2c0-1.9.4-3.6,1.1-5.1s1.8-2.7,3.1-3.5c1.3-.8,2.9-1.3,4.6-1.3,2.7,0,4.8.9,6.3,2.6,1.6,1.7,2.3,4.2,2.3,7.3v6.6c0,2.6-.5,4.8-1.4,6.6ZM896.2,226.9c.5.4,1.4.7,2.6.7h3.1v-2.7c0-1.4-.3-2.5-.9-3.3-.6-.7-1.4-1.1-2.5-1.1s-1.8.4-2.3,1.1-.8,1.7-.8,2.9v.2c0,1.1.2,1.8.7,2.2ZM911.3,230.5c0,1.9-.1,2.8-.4,2.8h-3.9v-5.8h3.9c.3,0,.4,1,.4,2.9Z"/>
    <path class="st1" d="M915.3,226.9c.5-.5.8-1.1.8-2v-6.6h5.5v6.3c0,.7,0,1.2.2,1.5.1.3.4.5.8.7,2.5-4.2,4.8-7.2,7-9s4.6-2.8,7.1-2.8,3.1.4,4.4,1.1c1.3.8,2.3,1.8,3.1,3.2.7,1.4,1.1,3,1.1,4.7s-.4,3.4-1.2,4.8-1.9,2.5-3.4,3.3-3.2,1.2-5.1,1.2h-11.2c-2.8,0-4.8-.7-5.8-2.2-.6.8-1.3,1.3-2.2,1.7-.9.3-2.1.5-3.4.5h-2.2c-.3,0-.4-.9-.4-2.8s0-2,.1-2.4c0-.4.2-.6.3-.6h2.2c1,0,1.8-.2,2.3-.7ZM938.7,226.7c.7-.6,1.1-1.5,1.1-2.6s-.1-1.3-.4-1.8c-.3-.5-.7-.9-1.2-1.2-.5-.3-1.2-.4-1.9-.4-1.2,0-2.5.6-3.8,1.7-1.3,1.1-2.8,2.9-4.5,5.4h7.7c1.3,0,2.3-.3,3.1-.9ZM945.5,227.4c.5.1,1.2.2,2.1.2h1.1c.3,0,.4,1,.4,2.9s-.1,2.8-.4,2.8h-1.1c-1.5,0-2.8-.2-3.8-.5-1-.4-1.9-1-2.7-1.8l3.2-4.2c.3.3.7.5,1.2.6Z"/>
    <path class="st1" d="M967.6,217.4c1.5,1.6,2.2,3.8,2.2,6.7v.2c0,2.8-.8,5.1-2.4,6.7-1.6,1.6-3.7,2.4-6.5,2.4s-2.7-.2-3.7-.6c-1-.4-1.7-.9-2.2-1.6-.5.8-1.2,1.3-2,1.7-.8.3-1.9.5-3.2.5h-1.1c-.3,0-.4-.9-.4-2.8s0-2,.1-2.4c0-.4.2-.6.3-.6h1.1c.8,0,1.4-.2,1.8-.5.4-.3.5-.9.5-1.7v-1.2c0-2.8.8-5.1,2.4-6.8,1.6-1.7,3.8-2.5,6.6-2.5s4.9.8,6.4,2.4ZM958.5,221.4c-.5.6-.8,1.5-.8,2.6v.2c0,1.1.3,1.9.8,2.5.5.6,1.4.9,2.5.9s2-.3,2.5-.8c.5-.5.8-1.4.8-2.5v-.2c0-1.2-.3-2.1-.8-2.7-.5-.6-1.4-.9-2.5-.9s-1.9.3-2.5.9Z"/>
    <path class="st1" d="M1001.8,238.2c-.9,1.8-2.2,3.3-4,4.2-1.7,1-3.8,1.5-6.1,1.5h-6l-.4-5.8h6.8c1.2,0,2.2-.2,3-.6.8-.4,1.5-.9,1.9-1.6.4-.7.7-1.4.7-2.4v-.2h-3.1c-2.9,0-5.1-.7-6.6-2.1-1.5-1.4-2.2-3.5-2.2-6.2v-.2c0-1.9.4-3.6,1.1-5.1s1.8-2.7,3.1-3.5c1.3-.8,2.9-1.3,4.6-1.3,2.7,0,4.8.9,6.3,2.6,1.6,1.7,2.3,4.2,2.3,7.3v6.6c0,2.6-.5,4.8-1.4,6.6ZM991.9,226.9c.5.4,1.4.7,2.6.7h3.1v-2.7c0-1.4-.3-2.5-.9-3.3-.6-.7-1.4-1.1-2.5-1.1s-1.8.4-2.3,1.1-.8,1.7-.8,2.9v.2c0,1.1.2,1.8.7,2.2Z"/>
    <path class="st1" d="M1019.3,205h5.5v28.3h-5.5v-28.3Z"/>
    <path class="st1" d="M1047.3,238.2c-.9,1.8-2.2,3.3-4,4.2-1.7,1-3.8,1.5-6.1,1.5h-6l-.4-5.8h6.8c1.2,0,2.2-.2,3-.6.8-.4,1.5-.9,1.9-1.6.4-.7.7-1.4.7-2.4v-.2h-3.1c-2.9,0-5.1-.7-6.6-2.1-1.5-1.4-2.2-3.5-2.2-6.2v-.2c0-1.9.4-3.6,1.1-5.1s1.8-2.7,3.1-3.5c1.3-.8,2.9-1.3,4.6-1.3,2.7,0,4.8.9,6.3,2.6,1.6,1.7,2.3,4.2,2.3,7.3v6.6c0,2.6-.5,4.8-1.4,6.6ZM1037.5,226.9c.5.4,1.4.7,2.6.7h3.1v-2.7c0-1.4-.3-2.5-.9-3.3-.6-.7-1.4-1.1-2.5-1.1s-1.8.4-2.3,1.1-.8,1.7-.8,2.9v.2c0,1.1.2,1.8.7,2.2ZM1052.6,230.5c0,1.9-.1,2.8-.4,2.8h-3.9v-5.8h3.9c.3,0,.4,1,.4,2.9Z"/>
    <path class="st1" d="M1059.1,227c.4-.4.7-1,.7-1.7v-7h5.5v6.8c0,.9.2,1.5.6,1.9.4.4,1,.6,1.9.6h1.7c.3,0,.4,1,.4,2.9s-.1,2.9-.4,2.9h-1.9c-1.2,0-2.2-.2-3.1-.5-.9-.3-1.5-.9-1.9-1.7-.5.8-1.2,1.3-2.1,1.7-.9.3-1.9.5-3.1.5h-5.1c-.3,0-.4-.9-.4-2.8s0-2,.1-2.4c0-.4.2-.6.3-.6h5.1c.8,0,1.4-.2,1.8-.6ZM1054.1,213.6v-5h6.4v5h-6.4ZM1060.1,213.6v-5h6.4v5h-6.4Z"/>
    <path class="st1" d="M1078.4,227.2c1.5-.3,2.9-.8,4.3-1.6l4.3-2.4c-.3-1-.8-1.7-1.3-2.1-.6-.4-1.4-.6-2.6-.6h-9.9l.4-5.8h10.5c1.8,0,3.3.3,4.4.9,1.1.6,2.1,1.6,2.9,3.1s1.5,3.5,2,6.1l-8.2,5.2c-1.9,1.3-3.8,2.2-5.7,2.6s-4.2.7-7,.7h-3.1c-.3,0-.4-.9-.4-2.8s0-2,.1-2.4c0-.4.2-.6.3-.6h3.3c2.3,0,4.1-.1,5.6-.4ZM1091.3,226.8c.3.3.6.5,1,.6.4.1,1,.2,1.8.2h2.5c.3,0,.4,1,.4,2.9s0,2-.1,2.3c0,.3-.2.5-.3.5h-2.7c-1.4,0-2.5-.2-3.5-.5s-1.7-.9-2.5-1.6-1.4-1.9-2-3.3l4.4-2.5c.3.6.5,1,.8,1.3Z"/>
    <path class="st1" d="M1115.5,217.4c1.5,1.6,2.2,3.8,2.2,6.7v.2c0,2.8-.8,5.1-2.4,6.7-1.6,1.6-3.7,2.4-6.5,2.4s-2.7-.2-3.7-.6c-1-.4-1.7-.9-2.2-1.6-.5.8-1.2,1.3-2,1.7-.8.3-1.9.5-3.2.5h-1.1c-.3,0-.4-.9-.4-2.8s0-2,.1-2.4c0-.4.2-.6.3-.6h1.1c.8,0,1.4-.2,1.8-.5.4-.3.5-.9.5-1.7v-1.2c0-2.8.8-5.1,2.4-6.8,1.6-1.7,3.8-2.5,6.6-2.5s4.9.8,6.4,2.4ZM1106.4,221.4c-.5.6-.8,1.5-.8,2.6v.2c0,1.1.3,1.9.8,2.5.5.6,1.4.9,2.5.9s2-.3,2.5-.8c.5-.5.8-1.4.8-2.5v-.2c0-1.2-.3-2.1-.8-2.7-.5-.6-1.4-.9-2.5-.9s-1.9.3-2.5.9Z"/>
    <path class="st1" d="M1144.4,227.1c.4-.3.6-.8.6-1.4s-.1-1-.4-1.7l-4.2-11.4,5.2-2.5,5.1,14.4c.4,1.1.8,1.8,1.3,2.3.4.4,1,.7,1.9.7h1.1c.3,0,.4,1,.4,2.9s0,2-.1,2.3c0,.3-.2.5-.3.5h-1.4c-1.3,0-2.4-.2-3.3-.5-.9-.4-1.6-1-2.1-1.8-.5.8-1.2,1.4-2.1,1.8-.9.4-2,.5-3.2.5h-10l-.4-5.8h10.3c.9,0,1.5-.2,1.9-.5Z"/>
    <path class="st1" d="M1150.5,243v-5h6.4v5h-6.4ZM1161.8,227c.4-.4.7-1,.7-1.7v-7h5.5v6.8c0,.9.2,1.5.6,1.9.4.4,1,.6,1.9.6h1.7c.3,0,.4,1,.4,2.9s-.1,2.9-.4,2.9h-1.9c-1.2,0-2.2-.2-3.1-.5-.9-.3-1.5-.9-1.9-1.7-.5.8-1.2,1.3-2.1,1.7-.9.3-1.9.5-3.1.5h-5.1c-.3,0-.4-.9-.4-2.8s0-2,.1-2.4c0-.4.2-.6.3-.6h5.1c.8,0,1.4-.2,1.8-.6ZM1156.4,243v-5h6.4v5h-6.4Z"/>
    <path class="st1" d="M1175.6,227c.5-.4.7-1,.7-1.7v-20.3h5.5v20.5c0,2.4-.7,4.3-2.2,5.7-1.4,1.4-3.4,2.1-5.9,2.1h-1.6c-.3,0-.4-.9-.4-2.8s.1-2.9.4-2.9h1.5c.7,0,1.3-.2,1.8-.6Z"/>
    <path class="st1" d="M1204.3,238.2c-.9,1.8-2.2,3.3-4,4.2-1.7,1-3.8,1.5-6.1,1.5h-6l-.4-5.8h6.8c1.2,0,2.2-.2,3-.6.8-.4,1.5-.9,1.9-1.6.4-.7.7-1.4.7-2.4v-.2h-3.1c-2.9,0-5.1-.7-6.6-2.1-1.5-1.4-2.2-3.5-2.2-6.2v-.2c0-1.9.4-3.6,1.1-5.1s1.8-2.7,3.1-3.5c1.3-.8,2.9-1.3,4.6-1.3,2.7,0,4.8.9,6.3,2.6,1.6,1.7,2.3,4.2,2.3,7.3v6.6c0,2.6-.5,4.8-1.4,6.6ZM1194.5,226.9c.5.4,1.4.7,2.6.7h3.1v-2.7c0-1.4-.3-2.5-.9-3.3-.6-.7-1.4-1.1-2.5-1.1s-1.8.4-2.3,1.1-.8,1.7-.8,2.9v.2c0,1.1.2,1.8.7,2.2ZM1209.5,230.5c0,1.9-.1,2.8-.4,2.8h-3.9v-5.8h3.9c.3,0,.4,1,.4,2.9Z"/>
    <path class="st1" d="M1219.4,231.2c-1.4,1.5-3.4,2.2-5.9,2.2h-4.4c-.3,0-.4-.9-.4-2.8s0-2,.1-2.4c0-.4.2-.6.3-.6h4.4c.8,0,1.4-.2,1.8-.7.4-.5.7-1.1.7-2v-6.6h5.5v6.7c0,2.7-.7,4.8-2.1,6.2ZM1210.1,213.6v-5h6.4v5h-6.4ZM1216.1,213.6v-5h6.4v5h-6.4Z"/>
    <path class="st1" d="M1240.3,215.1h10.9c2,0,3.5.5,4.7,1.4,1.2.9,1.8,2.2,1.8,4s-.1,1.6-.4,2.3c-.2.7-.7,1.4-1.3,2.2-.6.8-1.4,1.7-2.5,2.7.6,0,1.1,0,1.4,0,.3,0,.7,0,1.3,0h4.9c.1,0,.3.2.3.5,0,.4.1,1.2.1,2.4s0,1.9-.1,2.3c0,.4-.2.5-.3.5h-4.9c-1.7,0-3.1,0-4.2-.2-1.1-.1-1.9-.3-2.6-.6-.7-.3-1.3-.7-1.9-1.2-1.7,1-2.9,2.1-3.6,3.3-.7,1.1-1.1,2.3-1.1,3.6s.5,2.6,1.5,3.4c1,.7,2.6,1.1,4.9,1.1h8.6l-.5,5.8h-8.3c-4,0-7-.8-8.9-2.5-1.9-1.7-2.9-4.2-2.9-7.5s.5-3.8,1.4-5.6c.9-1.8,2.3-3.4,4.1-4.9l-5.1-7.7,2.7-5.2ZM1251.9,220.8c-.3-.2-.8-.3-1.4-.3h-6.8l4.2,6.2c1.2-1,2.1-1.9,2.8-2.5.6-.6,1.1-1.1,1.3-1.5.2-.4.4-.7.4-1,0-.4-.2-.8-.5-1Z"/>
    <path class="st1" d="M1270,227.2c1.5-.3,2.9-.8,4.3-1.6l4.3-2.4c-.3-1-.8-1.7-1.3-2.1-.6-.4-1.4-.6-2.6-.6h-9.9l.4-5.8h10.5c1.8,0,3.4.3,4.5.9,1.2.6,2.1,1.7,2.9,3.2.8,1.5,1.4,3.5,2,6.2l-8.5,5.3c-1.8,1.2-3.7,2-5.5,2.4-1.9.4-4.2.6-6.8.6h-3.1c-.3,0-.4-.9-.4-2.8s0-2,.1-2.4c0-.4.2-.6.3-.6h3.3c2.3,0,4.1-.1,5.6-.4ZM1268.2,243v-5h5.9v5h-5.9Z"/>
    <path class="st1" d="M1298,227c.5.4,1.2.6,2.2.6h.7c.3,0,.4,1,.4,2.9s-.1,2.8-.4,2.8h-.7c-.6,0-1.2,0-1.7-.2-.5-.2-1-.4-1.3-.7,0,2.3-.6,4.2-1.6,5.9s-2.3,3-4.1,4c-1.8,1-3.8,1.5-6.2,1.5h-3.7l-.4-5.8h4c2,0,3.6-.6,4.7-1.7,1.1-1.1,1.7-2.7,1.7-4.7v-13.5h5.5v6.6c0,1,.2,1.7.7,2.1Z"/>
    <path class="st1" d="M1319.8,217.4c1.5,1.6,2.2,3.8,2.2,6.7v.2c0,2.8-.8,5.1-2.4,6.7-1.6,1.6-3.7,2.4-6.5,2.4s-2.7-.2-3.7-.6c-1-.4-1.7-.9-2.2-1.6-.5.8-1.2,1.3-2,1.7-.8.3-1.9.5-3.2.5h-1.1c-.3,0-.4-.9-.4-2.8s0-2,.1-2.4c0-.4.2-.6.3-.6h1.1c.8,0,1.4-.2,1.8-.5.4-.3.5-.9.5-1.7v-1.2c0-2.8.8-5.1,2.4-6.8,1.6-1.7,3.8-2.5,6.6-2.5s4.9.8,6.4,2.4ZM1310.7,221.4c-.5.6-.8,1.5-.8,2.6v.2c0,1.1.3,1.9.8,2.5.5.6,1.4.9,2.5.9s2-.3,2.5-.8c.5-.5.8-1.4.8-2.5v-.2c0-1.2-.3-2.1-.8-2.7-.5-.6-1.4-.9-2.5-.9s-1.9.3-2.5.9Z"/>
  </g>
</svg>