<?xml version="1.0" encoding="UTF-8"?>
<svg id="Layer_1" xmlns="http://www.w3.org/2000/svg" version="1.1" viewBox="0 0 1323.8 250.7">
  <!-- Generator: Adobe Illustrator 29.1.0, SVG Export Plug-In . SVG Version: 2.1.0 Build 142)  -->
  <defs>
    <style>
      .st0 {
        fill: #f3922b;
      }

      .st1 {
        fill: #fff;
      }

      .st2 {
        fill: none;
        stroke: #f3922b;
        stroke-miterlimit: 10;
        stroke-width: 12px;
      }
    </style>
  </defs>
  <rect class="st0" x="57.7" y="57.9" width="73.6" height="73.6" transform="translate(-39.3 94.6) rotate(-45)"/>
  <rect class="st2" x="33.7" y="33.7" width="121.9" height="121.9" transform="translate(-39.2 94.7) rotate(-45)"/>
  <g>
    <path class="st0" d="M253,134c-5.3-5.4-7.9-13.2-7.9-23.4v-27.5h29.9v23.6c0,1.3.3,2.2.9,2.9s1.6,1,3.1,1h43.3c.9,0,1.7-.2,2.3-.7.6-.5.9-1,.9-1.7s-.2-1.1-.6-1.8-1-1.4-1.7-2.1l-29.9-29.1v-22l64.5-23.6,7.1,29.9-31.5,11.8,12.6,12.6c8.1,8.1,14.4,14,19,17.7s8.3,6.2,11.2,7.3c2.9,1.2,6.2,1.7,10,1.7s1.6,5.2,1.6,15.7-.5,15.7-1.6,15.7c-6.8,0-12.1-.2-16-.7-3.8-.5-7-1.4-9.5-2.7s-4.9-3.3-7.2-6.1c-1,1.3-2.5,2.5-4.2,3.8-2.4,1.7-5.5,3-9.3,4.1-3.8,1-7.8,1.6-12,1.6h-51.9c-9.9,0-17.4-2.7-22.7-8.1h-.4q0,.1,0,0ZM352.1,3.6l3.9,17.3-62.9,22.8v-18.9l59-21.2Z"/>
    <path class="st0" d="M401.8,110.1c.5-.4.7-1,.7-1.8v-25.2h29.9v25.2c0,.7.2,1.3.7,1.7s1.3.6,2.4.6h3.1c1,0,1.6,5.2,1.6,15.7s-.5,15.7-1.6,15.7h-4.7c-3.7,0-7-.4-9.9-1.3-2.9-.9-5.4-2.3-7.4-4.2-2,2-4.3,3.4-6.9,4.2s-6.1,1.3-10.4,1.3h-13.4c-1,0-1.6-5.2-1.6-15.7s.2-11,.5-12.9.7-2.8,1.1-2.8h13.4c1.2,0,2-.2,2.4-.6h.1q0,0,0,.1ZM396.2,73.7v-22.8h29.9v22.8h-29.9Z"/>
    <path class="st0" d="M470.9,109c5.9-1.1,11.1-2.6,15.6-4.6l1.7-.8c-.4-1.5-1-2.5-1.7-3.1s-1.7-.9-3-.9h-35.4l2.4-29.9h40.9c5.9,0,10.8,1.3,14.9,3.9,4,2.6,7.6,7,10.5,13.1,3,6.1,5.8,14.6,8.4,25.4l-36.2,20.5c-5.8,3.4-11.6,5.8-17.5,7.2-5.9,1.5-13.2,2.2-21.9,2.2h-11c-1,0-1.6-5.2-1.6-15.7s.2-11,.5-12.9.7-2.8,1.1-2.8h12.6c7.2,0,13.8-.6,19.7-1.7h0q0,0,0,.1ZM459.9,174.4v-22.8h29.9v22.8h-29.9Z"/>
    <path class="st0" d="M567.8,134c-5.3-5.4-7.9-13.2-7.9-23.4v-27.5h29.9v23.6c0,1.3.3,2.2.9,2.9.6.7,1.6,1,3.1,1h43.3c.9,0,1.7-.2,2.3-.7s.9-1,.9-1.7-.2-1.1-.6-1.8c-.4-.7-1-1.4-1.7-2.1l-29.9-29.1v-22l64.5-23.6,7.1,29.9-31.5,11.8,12.6,12.6c8.1,8.1,14.4,14,19,17.7s8.3,6.2,11.2,7.3c2.9,1.2,6.2,1.7,10,1.7s1.6,5.2,1.6,15.7-.5,15.7-1.6,15.7c-6.8,0-12.1-.2-16-.7-3.8-.5-7-1.4-9.5-2.7s-4.9-3.3-7.2-6.1c-1,1.3-2.5,2.5-4.2,3.8-2.4,1.7-5.5,3-9.3,4.1-3.8,1-7.8,1.6-12,1.6h-51.9c-9.9,0-17.4-2.7-22.7-8.1h-.4q0,.1,0,0Z"/>
    <path class="st0" d="M683.4,174.2v-22.8h24.4v22.8h-24.4ZM716.5,109.9c.5-.4.7-1,.7-1.8v-25.2h29.9v25.2c0,.7.2,1.3.7,1.7s1.3.6,2.4.6h3.1c1,0,1.6,5.2,1.6,15.7s-.5,15.7-1.6,15.7h-4.7c-3.7,0-7-.4-9.9-1.3-2.9-.9-5.4-2.3-7.4-4.2-2,2-4.3,3.4-6.9,4.2-2.6.8-6.1,1.3-10.4,1.3h-13.4c-1,0-1.6-5.2-1.6-15.7s.2-11,.5-12.9.7-2.8,1.1-2.8h13.4c1.2,0,2-.2,2.4-.6h0q0,0,0,.1ZM706.2,174.2v-22.8h24.4v22.8h-24.4Z"/>
    <path class="st0" d="M764,110.6h.4c-.3-.8-.6-1.8-.8-2.9s-.4-2.3-.6-3.5c-.2-1.3-.2-2.5-.2-3.8,0-5.5,1.3-10.7,3.9-15.8,2.6-5.1,6.4-9.2,11.5-12.4,5.1-3.2,11.3-4.8,18.5-4.8,10.6,0,18.6,3.1,24.1,9.2s8.2,15.1,8.2,27v6.3c0,10.2-3.3,18.1-10,23.8-6.7,5.7-15.9,8.5-27.8,8.5h-37.8c-1,0-1.6-5.2-1.6-15.7s.2-11,.5-12.9.7-2.8,1.1-2.8h10.6v-.2h0ZM781.7,58.7v-22.8h29.9v22.8h-29.9ZM801.3,108.4c0-1.3.2-2.6.2-4.1v-.8c0-2.1-.4-3.8-1.3-5.1-.9-1.3-2.3-2-4.2-2s-1.8.2-2.4.6c-.7.4-1.2,1-1.7,1.7-.4.7-.6,1.5-.6,2.4,0,1.6.3,3,1,4.4s1.7,2.5,3.1,3.5c1.4,1,3.2,1.8,5.3,2.3.3-.7.5-1.7.6-3h0q0,0,0,0Z"/>
    <path class="st0" d="M842.3,41.4h29.9v94.4h-29.9s0-94.4,0-94.4Z"/>
    <path class="st0" d="M884.7,143.8c2.7-2,4-5.2,4-9.5v-51.1h29.9v24.4c0,1.2.2,2,.7,2.4.5.5,1.3.7,2.4.7h6.3c1,0,1.6,5.2,1.6,15.7s-.5,15.7-1.6,15.7h-3.1c-1.2,0-2.3,0-3.5-.2s-2.3-.4-3.2-.9c-.9,7-3.2,13.4-6.8,19-3.6,5.7-8.5,10.1-14.6,13.4-6.1,3.3-13.2,4.9-21.4,4.9h-7.9l-2.4-31.5h7.9c5.1,0,9-1,11.7-3.1h0q0,.1,0,.1Z"/>
    <path class="st0" d="M965.8,109.9c.6-.5.9-1,.9-1.7s-.2-1.1-.6-1.8c-.4-.7-1-1.4-1.7-2.1l-29.9-29.1v-22l64.5-23.6,7.1,29.9-31.5,11.8,12.6,12.6c5.7,5.7,9.4,10.6,11.3,14.8s2.8,9,2.8,14.3c0,9.8-3,17.1-8.9,21.9s-13.7,7.2-23.4,7.2h-40.9c-1,0-1.6-5.2-1.6-15.7s.2-11,.5-12.9.7-2.8,1.1-2.8h35.4c.9,0,1.7-.2,2.3-.7h0q0,0,0-.1ZM993.4,3.6l3.9,17.3-62.9,22.8v-18.9l59-21.2Z"/>
    <path class="st0" d="M1078.9,157.5c-3.4,6.7-8.2,11.9-14.4,15.4-6.2,3.6-13.7,5.4-22.3,5.4h-23.6l-2.4-30.7h31.5c1.5,0,2.8-.2,3.9-.6,1.1-.4,1.9-1,2.4-1.7s.8-1.5.8-2.4v-1.6h-3.9c-12.2,0-20.9-2.5-26-7.6-5.2-5.1-7.8-13.6-7.8-25.4v-.8c0-6.7,1.4-12.8,4.2-18.2,2.8-5.4,6.7-9.6,11.6-12.7,5-3,10.7-4.6,17.2-4.6,10.7,0,19,3.2,24.9,9.7s8.9,15.6,8.9,27.3v24.4c0,9.3-1.7,17.4-5,24.1h0ZM1046.7,111c.9.8,2.3,1.2,4.2,1.2h4.7v-4.7c0-2-.4-3.5-1.3-4.6-.8-1.1-2.2-1.7-4.1-1.7s-2.8.5-3.6,1.5c-.8,1-1.3,2.3-1.3,4v.8c0,1.6.4,2.8,1.3,3.5h.1ZM1094.1,126.4c0,10.5-.5,15.7-1.6,15.7h-11v-31.5h11c1,0,1.6,5.2,1.6,15.7h0Z"/>
    <path class="st0" d="M1108.4,110.1c.5-.4.7-1,.7-1.8v-25.2h29.9v25.2c0,.7.2,1.3.7,1.7s1.3.6,2.4.6h3.1c1,0,1.6,5.2,1.6,15.7s-.5,15.7-1.6,15.7h-4.7c-3.7,0-7-.4-9.9-1.3-2.9-.9-5.4-2.3-7.4-4.2-2,2-4.3,3.4-6.9,4.2s-6.1,1.3-10.4,1.3h-13.4c-1,0-1.6-5.2-1.6-15.7s.2-11,.5-12.9.7-2.8,1.1-2.8h13.4c1.2,0,2-.2,2.4-.6h0q0,0,0,.1ZM1102.8,73.7v-22.8h29.9v22.8h-29.9Z"/>
    <path class="st0" d="M1134.3,174.4v-22.8h24.4v22.8h-24.4ZM1183.4,133.6c-5.6,5.7-13.3,8.5-23.1,8.5h-15c-1,0-1.6-5.2-1.6-15.7s.2-11,.5-12.9.7-2.8,1.1-2.8h13.4c.9,0,1.7-.3,2.3-.9.6-.6.9-1.3.9-2.3v-24.4h29.9v26.8c0,10.2-2.8,18.1-8.3,23.8h0q0-.1,0,0ZM1157.1,174.4v-22.8h24.4v22.8h-24.4Z"/>
    <path class="st0" d="M1205.1,41.4h29.9v100.7h-29.9V41.4Z"/>
    <path class="st0" d="M1285.3,54.8l26,32.3c4.4,5.5,7.5,10.3,9.2,14.6s2.6,8.6,2.6,12.9c0,8.3-2.8,15-8.3,20-5.6,5-13,7.6-22.3,7.6h-43.3l-2.4-31.5h37.8c.8,0,1.6-.2,2.2-.6s.9-1,.9-1.7-.2-1.3-.5-1.9-.8-1.3-1.4-2l-23.3-27.5,22.8-22v-.2h0Z"/>
  </g>
  <g>
    <path class="st1" d="M245.5,242c-2-2.1-3-5.1-3-8.9v-8.3h4.5v8.2c0,2.4.6,4.3,1.7,5.5,1.1,1.2,2.9,1.9,5.3,1.9h1.7c1.5,0,2.8-.3,3.9-.8,1.1-.6,1.9-1.4,2.5-2.4.6-1.1.9-2.3.9-3.7v-26.3h4.5v20.3c0,.9.2,1.5.7,2,.5.4,1.2.7,2.1.7h1c.1,0,.2.2.3.5s.1,1,.1,2,0,1.6-.1,1.8c0,.3-.2.4-.3.4h-.9c-.7,0-1.3,0-1.8-.2-.5-.2-.9-.4-1.2-.6v.2c0,2.1-.5,4.1-1.5,5.7-1,1.7-2.4,3-4.2,3.9s-3.9,1.4-6.2,1.4h-1.8c-3.7,0-6.5-1.1-8.5-3.2Z"/>
    <path class="st1" d="M270.8,244v-4.2h6.1v4.2h-6.1ZM281.7,229.3c.5-.5.8-1.1.8-1.9v-6.9h4.5v6.7c0,.9.2,1.7.7,2.1.5.5,1.2.7,2.2.7h1.5c.3,0,.4.8.4,2.4s-.1,2.4-.4,2.4h-1.7c-1.2,0-2.3-.2-3.1-.6-.8-.4-1.5-.9-1.9-1.7-.5.8-1.2,1.3-2.1,1.7-.9.4-1.9.6-3.1.6h-8c-.3,0-.4-.8-.4-2.3s0-1.7.1-2c0-.3.2-.5.3-.5h8c.9,0,1.6-.2,2.1-.7ZM276.4,244v-4.2h6.1v4.2h-6.1Z"/>
    <path class="st1" d="M301.2,232.8c-1.3,1.3-3.1,2-5.4,2h-4.4c-.3,0-.4-.8-.4-2.3s0-1.7.1-2c0-.3.2-.5.3-.5h4.4c.9,0,1.6-.3,2.1-.8.5-.5.8-1.3.8-2.2v-6.5h4.5v6.5c0,2.5-.7,4.4-2,5.8ZM294.2,209.7c-.4-.7-.6-1.5-.6-2.3s.2-1.8.7-2.6c.4-.8,1.1-1.4,1.8-1.8s1.7-.6,2.8-.6h2.2v2.9h-2.2c-.7,0-1.3.2-1.8.6-.5.4-.7.9-.7,1.5s.2,1.2.7,1.6c.4.4,1,.6,1.6.6s.9-.1,1.4-.3c.5-.2,1.4-.7,2.7-1.4l1.1,2.6-9.1,4.7-1.3-2.6,2.4-1.3c-.7-.4-1.3-.9-1.7-1.6Z"/>
    <path class="st1" d="M310,207.1h4.5v27.7h-4.5v-27.7Z"/>
    <path class="st1" d="M322.2,238.5c1.2-1.2,1.8-3,1.8-5.2v-12.9h4.5v6.6c0,1,.3,1.7.8,2.2.5.5,1.4.7,2.4.7h.6c.3,0,.4.8.4,2.5s-.1,2.3-.4,2.3h-.6c-.7,0-1.3,0-1.9-.3-.6-.2-1-.5-1.4-.9v.2c0,2.3-.5,4.3-1.5,6-1,1.7-2.3,3-4,3.9s-3.7,1.4-5.9,1.4h-1.2l-.4-4.8h1.6c2.2,0,3.9-.6,5.1-1.9Z"/>
    <path class="st1" d="M338.4,229.2c.6-.5.9-1.3.9-2.2v-6.5h4.5v6.5c0,1,.3,1.7.8,2.2.6.5,1.4.8,2.6.8s2-.3,2.6-.8.9-1.3.9-2.2v-6.5h4.5v6.5c0,1,.3,1.7.8,2.2.5.5,1.3.8,2.4.8s1.9-.3,2.4-.8c.5-.5.8-1.3.8-2.2v-6.5h4.6v6.5c0,2.5-.7,4.4-2.1,5.7-1.4,1.4-3.3,2.1-5.8,2.1s-2.7-.2-3.6-.6-1.6-1-2.1-1.9c-.5.8-1.3,1.5-2.2,1.9-.9.4-2,.6-3.4.6s-2.9-.2-3.9-.6c-.9-.4-1.6-1-2.1-1.9-.5.8-1.3,1.5-2.2,1.9s-2.1.6-3.4.6h-3.4c-.3,0-.4-.8-.4-2.3s0-1.7.1-2c0-.3.2-.5.3-.5h3.4c1.1,0,2-.3,2.6-.8Z"/>
    <path class="st1" d="M373.2,207.1h4.5v27.7h-4.5v-27.7Z"/>
    <path class="st1" d="M384.5,223.9h19.1v4.5h-19.1v-4.5Z"/>
    <path class="st1" d="M412.9,242c-2-2.1-3-5.1-3-8.9v-8.3h4.5v8.2c0,2.4.6,4.3,1.7,5.5,1.1,1.2,2.9,1.9,5.3,1.9h1.7c1.5,0,2.8-.3,3.9-.8,1.1-.6,1.9-1.4,2.5-2.4.6-1.1.9-2.3.9-3.7v-12.9h4.5v12.5c0,2.5-.5,4.7-1.5,6.5-1,1.8-2.4,3.2-4.2,4.2-1.8,1-3.9,1.4-6.2,1.4h-1.8c-3.7,0-6.5-1.1-8.5-3.2ZM419.1,219.5v-4.3h5.1v4.3h-5.1Z"/>
    <path class="st1" d="M441.8,207.1h4.5v27.7h-4.5v-27.7Z"/>
    <path class="st1" d="M454,238.5c1.2-1.2,1.8-3,1.8-5.2v-12.9h4.5v6.6c0,1,.3,1.7.8,2.2.5.5,1.4.7,2.4.7h.6c.3,0,.4.8.4,2.5s-.1,2.3-.4,2.3h-.6c-.7,0-1.3,0-1.9-.3-.6-.2-1-.5-1.4-.9v.2c0,2.3-.5,4.3-1.5,6-1,1.7-2.3,3-4,3.9-1.7.9-3.7,1.4-5.9,1.4h-1.2l-.4-4.8h1.6c2.2,0,3.9-.6,5.1-1.9Z"/>
    <path class="st1" d="M476.8,229.2c.5-.5.8-1.3.8-2.2v-6.5h4.5v6.5c0,2.5-.7,4.4-2,5.8s-3.2,2-5.5,2h-10.4c-.3,0-.4-.8-.4-2.3s0-1.7.1-2c0-.3.2-.5.3-.5h10.4c.9,0,1.6-.3,2.1-.8ZM464.6,244v-4.2h6.1v4.2h-6.1ZM470.3,244v-4.2h6.1v4.2h-6.1Z"/>
    <path class="st1" d="M488.9,207.1h4.5v27.7h-4.5v-27.7Z"/>
    <path class="st1" d="M512.2,232.8c-1.3-1.3-2-3.2-2-5.7v-6.6h4.5v6c0,1.2.3,2.1.8,2.6.5.6,1.4.9,2.7.9h14.9c1.1,0,1.9-.2,2.5-.6.6-.4.9-.9.9-1.5s-.1-1-.4-1.5c-.2-.5-.7-1-1.2-1.5l-9.7-9.5v-3.8l16-6.2,1.3,4.4-11.8,4.5,7.6,7.6c2.6,2.6,4.5,4.4,5.8,5.5s2.2,1.8,3,2.1c.7.3,1.6.5,2.6.5s.4.8.4,2.5-.1,2.3-.4,2.3c-1.4,0-2.5-.1-3.3-.3s-1.7-.6-2.6-1.2c-.9-.6-2-1.6-3.2-2.9-.1.4-.3.8-.6,1.2-.6,1-1.5,1.8-2.6,2.4-1.2.6-2.6.9-4.1.9h-15.1c-2.5,0-4.5-.7-5.8-2ZM539.2,198.7l.9,2.8-15,6.2v-3.1l14.2-5.9Z"/>
    <path class="st1" d="M556.8,229.3c.5-.5.8-1.1.8-1.9v-6.9h4.5v6.7c0,.9.3,1.7.8,2.1s1.2.7,2.2.7h1.5c.3,0,.4.8.4,2.4s-.1,2.4-.4,2.4h-1.7c-1.2,0-2.3-.2-3.1-.6-.8-.4-1.5-.9-1.9-1.7-.5.8-1.2,1.3-2.1,1.7-.9.4-1.9.6-3.2.6h-5.1c-.3,0-.4-.8-.4-2.3s0-1.7.1-2c0-.3.2-.5.3-.5h5.1c.9,0,1.6-.2,2.1-.7ZM555.2,215.6v-4.3h5.1v4.3h-5.1Z"/>
    <path class="st1" d="M575.2,229.6c1.5-.3,2.9-.8,4.2-1.6l5.2-3c-.4-1.2-.9-2-1.6-2.5s-1.7-.7-3-.7h-9.7l.4-4.7h10.1c1.8,0,3.3.3,4.4.9,1.1.6,2,1.5,2.8,2.9.7,1.4,1.4,3.3,2,5.7l-8.4,5.3c-1.8,1.1-3.6,1.9-5.4,2.3-1.8.4-4,.6-6.6.6h-3c-.3,0-.4-.8-.4-2.3s0-1.7.1-2c0-.3.2-.5.3-.5h3.1c2.2,0,4-.1,5.5-.4ZM573.9,244v-4.3h5.1v4.3h-5.1Z"/>
    <path class="st1" d="M629.7,229.3c.5-.5.8-1.1.8-1.9v-6.9h4.5v7.1c0,2.2-.7,4-2,5.3s-3.2,1.9-5.4,1.9h-14.7c-2.5,0-4.5-.7-5.8-2s-2-3.2-2-5.7v-6.6h4.5v6c0,1.2.3,2.1.8,2.6.5.6,1.4.9,2.7.9h14.5c.9,0,1.6-.2,2.1-.7ZM614.2,215.9v-4.2h6.1v4.2h-6.1ZM619.8,215.9v-4.2h6.1v4.2h-6.1Z"/>
    <path class="st1" d="M650.5,230.5c0,.3.1,1,.1,2s0,1.6-.1,1.8c0,.3-.2.4-.3.4h-1.3c-2.3,0-4.1-.7-5.2-2-1.2-1.3-1.8-3.3-1.8-5.7v-19.9h4.5v19.6c0,1.1.2,1.9.7,2.5.4.5,1.1.8,2.1.8h1c.1,0,.3.2.3.5Z"/>
    <path class="st1" d="M653.4,226c0-1.7.4-3.1,1.1-4.5.7-1.3,1.7-2.4,3-3.1,1.3-.8,2.8-1.2,4.5-1.2s2.2.1,3.2.4c1,.3,2.1.8,3.2,1.5l-1.5,3.8c-1.6-.8-3.2-1.2-4.8-1.2s-1.5.2-2.1.5c-.6.4-1.1.9-1.4,1.5s-.5,1.4-.5,2.2.2,1.5.5,2.1c.3.6.8,1.1,1.4,1.4.6.3,1.3.5,2.1.5h7.6l-.4,4.8h-19c-.3,0-.4-.8-.4-2.3s0-1.7.1-2c0-.3.2-.5.3-.5h4.4c-.8-1-1.2-2.4-1.2-4Z"/>
    <path class="st1" d="M676.3,207.1h4.5v22.9h4.8c.9,0,1.6-.2,2.1-.7.5-.5.8-1.1.8-1.9v-20.3h4.5v20.1c0,.9.3,1.7.8,2.1s1.2.7,2.1.7h1.2c.1,0,.2.2.3.5,0,.3.1,1,.1,2s0,1.6-.1,1.8c0,.3-.2.4-.3.4h-1.4c-1.2,0-2.2-.2-3.1-.6-.8-.4-1.5-1-1.9-1.7-.5.8-1.2,1.4-2.1,1.8-.9.4-1.9.6-3.1.6h-9.3v-27.7Z"/>
    <path class="st1" d="M700.8,207.1h4.6v15.8c1.5-2.1,3-3.6,4.6-4.6,1.6-.9,3.1-1.4,4.7-1.4s3,.4,4.3,1.1c1.3.7,2.2,1.8,2.9,3.1.7,1.3,1.1,2.9,1.1,4.7s-.4,3.4-1.1,4.7-1.8,2.4-3.2,3.2c-1.4.7-3,1.1-4.9,1.1h-16.6c-.3,0-.4-.8-.4-2.3s0-1.7.1-2c0-.3.2-.5.3-.5h3.6v-22.9ZM717.2,228.9c.8-.8,1.2-1.8,1.2-3.1s-.2-1.6-.5-2.3c-.3-.7-.8-1.2-1.5-1.5-.6-.4-1.3-.5-2.1-.5-1.4,0-2.8.7-4.3,2.1-1.5,1.4-3.1,3.5-5,6.5h8.7c1.5,0,2.6-.4,3.5-1.1Z"/>
    <path class="st1" d="M729.7,207.1h4.5v27.7h-4.5v-27.7Z"/>
    <path class="st1" d="M754,242c-2-2.1-3-5.1-3-8.9v-8.3h4.5v8.2c0,2.4.6,4.3,1.7,5.5,1.1,1.2,2.9,1.9,5.3,1.9h1.7c1.5,0,2.8-.3,3.9-.8,1.1-.6,1.9-1.4,2.5-2.4.6-1.1.9-2.3.9-3.7v-26.3h4.5v20.3c0,.9.2,1.5.7,2,.5.4,1.2.7,2.1.7h1c.1,0,.2.2.3.5,0,.3.1,1,.1,2s0,1.6-.1,1.8c0,.3-.2.4-.3.4h-.9c-.7,0-1.3,0-1.8-.2-.5-.2-.9-.4-1.2-.6v.2c0,2.1-.5,4.1-1.5,5.7-1,1.7-2.4,3-4.2,3.9-1.8.9-3.9,1.4-6.2,1.4h-1.8c-3.7,0-6.5-1.1-8.5-3.2Z"/>
    <path class="st1" d="M779.3,244v-4.2h6.1v4.2h-6.1ZM790.2,229.3c.5-.5.8-1.1.8-1.9v-6.9h4.5v6.7c0,.9.2,1.7.7,2.1.5.5,1.2.7,2.2.7h1.5c.3,0,.4.8.4,2.4s-.1,2.4-.4,2.4h-1.7c-1.2,0-2.3-.2-3.1-.6-.8-.4-1.5-.9-1.9-1.7-.5.8-1.2,1.3-2.1,1.7-.9.4-1.9.6-3.1.6h-8c-.3,0-.4-.8-.4-2.3s0-1.7.1-2c0-.3.2-.5.3-.5h8c.9,0,1.6-.2,2.1-.7ZM784.9,244v-4.2h6.1v4.2h-6.1Z"/>
    <path class="st1" d="M803.5,229.3c.5-.5.8-1.1.8-1.9v-20.3h4.5v20.1c0,.9.3,1.7.8,2.1s1.2.7,2.1.7h1.2c.3,0,.4.8.4,2.4s-.1,2.4-.4,2.4h-1.4c-1.2,0-2.3-.2-3.1-.6-.8-.4-1.5-1-1.9-1.7-.5.8-1.2,1.4-2,1.8-.9.4-1.9.6-3.2.6h-1.4c-.3,0-.4-.8-.4-2.3s.1-2.5.4-2.5h1.4c.9,0,1.6-.2,2.1-.7Z"/>
    <path class="st1" d="M821.5,229.6c1.5-.3,2.9-.8,4.2-1.6l5.2-3c-.4-1.2-.9-2-1.6-2.5-.7-.5-1.7-.7-3-.7h-9.7l.4-4.7h10.1c1.8,0,3.3.3,4.4.9,1.1.6,2,1.5,2.8,2.9.7,1.4,1.4,3.3,2,5.7l-8.4,5.3c-1.8,1.1-3.6,1.9-5.4,2.3-1.8.4-4,.6-6.6.6h-3c-.3,0-.4-.8-.4-2.3s0-1.7.1-2c0-.3.2-.5.3-.5h3.1c2.2,0,4-.1,5.5-.4ZM834.1,229c.3.4.7.6,1.1.8s1.1.2,2,.2h2.5c.3,0,.4.8.4,2.5s0,1.6-.1,1.9c0,.3-.2.4-.3.4h-2.7c-1.3,0-2.5-.2-3.3-.5-.9-.3-1.7-.9-2.3-1.7s-1.3-1.9-1.9-3.4l3.8-1.9c.3.7.6,1.3.9,1.7Z"/>
    <path class="st1" d="M849.5,232.8c-1.3,1.3-3.1,2-5.4,2h-4.4c-.3,0-.4-.8-.4-2.3s0-1.7.1-2c0-.3.2-.5.3-.5h4.4c.9,0,1.6-.3,2.1-.8.5-.5.8-1.3.8-2.2v-6.5h4.5v6.5c0,2.5-.7,4.4-2,5.8ZM840.9,215.6v-4.2h6.1v4.2h-6.1ZM846.6,215.6v-4.2h6.1v4.2h-6.1Z"/>
    <path class="st1" d="M878.9,229.5c.5-.4.7-.9.7-1.6s-.2-1.1-.5-1.9l-4.2-11.5,4.2-2,5,14.2c.4,1.2.9,2,1.4,2.5.5.5,1.2.7,2.1.7h1c.3,0,.4.8.4,2.5s0,1.6-.1,1.9c0,.3-.2.4-.3.4h-1.2c-1.3,0-2.4-.2-3.3-.6-.9-.4-1.6-1-2.1-1.9-.5.9-1.2,1.5-2.1,1.9-.9.4-2,.6-3.3.6h-9.8l-.4-4.8h10.2c.9,0,1.7-.2,2.1-.5Z"/>
    <path class="st1" d="M896,229.3c.5-.5.8-1.1.8-1.9v-6.9h4.5v6.7c0,.9.2,1.7.8,2.1.5.5,1.2.7,2.2.7h1.5c.3,0,.4.8.4,2.4s-.1,2.4-.4,2.4h-1.7c-1.2,0-2.3-.2-3.1-.6-.8-.4-1.5-.9-1.9-1.7-.5.8-1.2,1.3-2.1,1.7-.9.4-1.9.6-3.2.6h-5.1c-.3,0-.4-.8-.4-2.3s0-1.7.1-2c0-.3.2-.5.3-.5h5.1c.9,0,1.6-.2,2.1-.7ZM894.3,215.6v-4.3h5.1v4.3h-5.1Z"/>
    <path class="st1" d="M930.3,232.5c0,1.5-.1,2.3-.4,2.3h-1.1c-1.2,0-2.3-.2-3.1-.6-.8-.4-1.4-1-1.9-1.8-.6.8-1.4,1.4-2.5,1.8-1.1.4-2.3.6-3.6.6s-2.7-.2-3.7-.6c-1-.4-1.7-1-2.2-1.7-.5.8-1.2,1.4-2,1.8-.8.4-1.9.6-3.2.6h-1c-.3,0-.4-.8-.4-2.3s0-1.7.1-2c0-.3.2-.5.3-.5h1c.9,0,1.6-.2,2-.6.4-.4.6-1,.6-1.8v-1.5c0-2.8.8-5,2.3-6.6,1.5-1.6,3.6-2.4,6.3-2.4s4.7.8,6.1,2.3c1.4,1.5,2.1,3.7,2.1,6.5v1.2c0,1,.2,1.7.7,2.2.4.5,1.1.7,2,.7h1.1c.3,0,.4.8.4,2.5ZM914.9,222.8c-.6.7-.9,1.8-.9,3.1v.2c0,1.2.3,2.2,1,2.8.6.7,1.6,1,2.9,1s2.2-.3,2.9-.9.9-1.6.9-2.9v-.2c0-1.4-.3-2.5-.9-3.2-.6-.7-1.6-1.1-2.9-1.1s-2.3.4-2.9,1.1Z"/>
    <path class="st1" d="M935.9,229.2c.6-.5.9-1.3.9-2.2v-6.5h4.5v6.5c0,1,.3,1.7.8,2.2.6.5,1.4.8,2.6.8s2-.3,2.6-.8.9-1.3.9-2.2v-6.5h4.5v6.5c0,1,.3,1.7.8,2.2.5.5,1.3.8,2.4.8s1.9-.3,2.4-.8c.5-.5.8-1.3.8-2.2v-6.5h4.6v6.5c0,2.5-.7,4.4-2.1,5.7-1.4,1.4-3.3,2.1-5.8,2.1s-2.7-.2-3.6-.6c-.9-.4-1.6-1-2.1-1.9-.5.8-1.3,1.5-2.2,1.9s-2,.6-3.4.6-2.9-.2-3.9-.6c-.9-.4-1.6-1-2.1-1.9-.5.8-1.3,1.5-2.2,1.9s-2.1.6-3.4.6h-3.4c-.3,0-.4-.8-.4-2.3s0-1.7.1-2c0-.3.2-.5.3-.5h3.4c1.1,0,2-.3,2.6-.8ZM944.5,215.6v-4.2h6.1v4.2h-6.1ZM948.1,209.1v-4.1h4.5v4.1h-4.5ZM950.1,215.6v-4.2h6.1v4.2h-6.1Z"/>
    <path class="st1" d="M985.5,239.6c-.9,1.8-2.2,3.1-3.9,4.1-1.7,1-3.7,1.4-5.9,1.4h-5.6l-.4-4.8h6.1c1.3,0,2.5-.2,3.5-.7,1-.5,1.7-1.1,2.2-1.9.5-.8.8-1.8.8-2.8v-.2h-3.6c-2.8,0-4.9-.7-6.3-2-1.4-1.3-2.1-3.3-2.1-5.8v-.2c0-1.8.4-3.5,1.1-4.9.7-1.4,1.7-2.6,3-3.4,1.3-.8,2.7-1.2,4.4-1.2,2.5,0,4.6.9,6,2.6,1.5,1.7,2.2,4.1,2.2,7.1v6.5c0,2.4-.4,4.5-1.4,6.3ZM975.7,229.2c.6.5,1.6.8,3,.8h3.6v-3.2c0-1.7-.3-2.9-1-3.8s-1.6-1.3-2.9-1.3-2,.4-2.7,1.3-1,2-1,3.4v.2c0,1.2.3,2.1.9,2.6ZM990.9,232.5c0,1.5-.1,2.3-.4,2.3h-4.1v-4.8h4.1c.3,0,.4.8.4,2.5Z"/>
    <path class="st1" d="M994.5,227.8c-.4-.9-.6-1.7-.6-2.6,0-1.5.4-2.9,1.1-4.1.7-1.2,1.7-2.2,3-2.9,1.3-.7,2.7-1,4.3-1s2.9.3,4.1,1,2.2,1.6,2.9,2.8,1,2.5,1,4-.2,1.8-.6,2.7c-.4.9-.9,1.7-1.6,2.2h4.1c1.1,0,1.9-.2,2.4-.6.5-.4.8-.9.8-1.5s-.1-1-.4-1.4c-.2-.5-.7-1.1-1.4-1.8l-8.3-8.8,3.3-3.4,8.4,9.2c1,1.1,1.7,2.1,2.2,3.1.5,1,.7,2.1.7,3.3s-.3,2.4-.9,3.5c-.6,1-1.5,1.8-2.7,2.4-1.2.6-2.5.8-4.1.8h-4c-1.9,0-3.2,0-4.1-.1-.8,0-1.5-.3-2-.6-.5.3-1.3.5-2.2.6-1,.1-2.3.2-4.1.2h-5.4c-.3,0-.4-.8-.4-2.3s0-1.7.1-2c0-.3.2-.5.3-.5h5.4c-.6-.6-1.1-1.3-1.5-2.2ZM1005,228c.6-.7.9-1.6.9-2.6s-.4-2-1.1-2.6c-.7-.7-1.6-1-2.8-1s-2.1.3-2.8,1c-.7.7-1.1,1.6-1.1,2.6s.3,1.8.9,2.6c.6.7,1.6,1.4,2.9,2,1.3-.6,2.2-1.3,2.9-2Z"/>
    <path class="st1" d="M1057.6,233.5c-.4-.4-1.1-.6-2-.6h-8.1v-8.1c0-1.6.3-3,1-4.3s1.6-2.2,2.9-2.9c1.2-.7,2.7-1.1,4.3-1.1h5.5l.4,4.6h-5.9c-1.1,0-2,.3-2.6,1-.7.7-1,1.5-1,2.7v3.4h4.4c2.2,0,3.8.6,4.9,1.7,1,1.2,1.6,2.8,1.6,5s-.5,3.5-1.6,5.1-2.5,2.8-4.3,3.8-3.8,1.4-6,1.4h-3.3c-3.7,0-6.5-1.1-8.5-3.2-2-2.1-3-5.1-3-8.9v-8.3h4.5v8.2c0,2.4.6,4.3,1.7,5.5s2.9,1.9,5.3,1.9h3.2c1.5,0,2.8-.2,3.9-.7,1.1-.5,2-1.1,2.6-1.8.6-.8.9-1.7.9-2.7s-.2-1.3-.7-1.7Z"/>
    <path class="st1" d="M1076.3,239.6c-.9,1.8-2.3,3.1-4,4.1-1.7,1-3.7,1.5-6,1.5h-1.2l-.4-4.8h1.6c2.2,0,3.9-.6,5.1-1.9,1.2-1.2,1.8-3,1.8-5.2v-12.9h4.5v12.9c0,2.4-.5,4.4-1.4,6.2ZM1072.7,215.6v-4.3h5.1v4.3h-5.1Z"/>
    <path class="st1" d="M1093.1,230.5c0,.3.1,1,.1,2s0,1.6-.1,1.8c0,.3-.2.4-.3.4h-1.3c-2.3,0-4.1-.7-5.2-2-1.2-1.3-1.8-3.3-1.8-5.7v-19.9h4.5v19.6c0,1.1.2,1.9.7,2.5.4.5,1.1.8,2.1.8h1c.1,0,.2.2.3.5Z"/>
    <path class="st1" d="M1098.8,229.2c.6-.5.9-1.3.9-2.2v-6.5h4.5v6.5c0,1,.3,1.7.8,2.2.6.5,1.4.8,2.6.8s2-.3,2.6-.8.9-1.3.9-2.2v-6.5h4.5v6.5c0,1,.3,1.7.8,2.2.5.5,1.3.8,2.4.8s1.9-.3,2.4-.8c.5-.5.8-1.3.8-2.2v-6.5h4.6v6.5c0,2.5-.7,4.4-2.1,5.7-1.4,1.4-3.3,2.1-5.8,2.1s-2.7-.2-3.6-.6c-.9-.4-1.6-1-2.1-1.9-.5.8-1.3,1.5-2.2,1.9s-2,.6-3.4.6-2.9-.2-3.9-.6c-.9-.4-1.6-1-2.1-1.9-.5.8-1.3,1.5-2.2,1.9s-2.1.6-3.4.6h-3.4c-.3,0-.4-.8-.4-2.3s0-1.7.1-2c0-.3.2-.5.3-.5h3.4c1.1,0,2-.3,2.6-.8Z"/>
    <path class="st1" d="M1138.5,239.6c-.9,1.8-2.3,3.1-4,4.1-1.7,1-3.7,1.5-6,1.5h-3.3l-.4-4.8h3.6c2.2,0,3.9-.6,5.1-1.9,1.2-1.2,1.8-3,1.8-5.2v-12.9h4.5v12.9c0,2.4-.5,4.4-1.4,6.2Z"/>
    <path class="st1" d="M1161.6,239.6c-.9,1.8-2.2,3.1-3.9,4.1-1.7,1-3.7,1.4-5.9,1.4h-5.6l-.4-4.8h6.1c1.3,0,2.5-.2,3.5-.7,1-.5,1.7-1.1,2.2-1.9.5-.8.8-1.8.8-2.8v-.2h-3.6c-2.8,0-4.9-.7-6.3-2-1.4-1.3-2.1-3.3-2.1-5.8v-.2c0-1.8.4-3.5,1.1-4.9.7-1.4,1.7-2.6,3-3.4,1.3-.8,2.7-1.2,4.4-1.2,2.5,0,4.6.9,6,2.6,1.5,1.7,2.2,4.1,2.2,7.1v6.5c0,2.4-.4,4.5-1.4,6.3ZM1151.8,229.2c.6.5,1.6.8,3,.8h3.6v-3.2c0-1.7-.3-2.9-1-3.8s-1.6-1.3-2.9-1.3-2,.4-2.7,1.3-1,2-1,3.4v.2c0,1.2.3,2.1.9,2.6ZM1167,232.5c0,1.5-.1,2.3-.4,2.3h-4.1v-4.8h4.1c.3,0,.4.8.4,2.5Z"/>
    <path class="st1" d="M1171.2,229.2c.6-.5.9-1.3.9-2.2v-6.5h4.5v6.3c0,.8.1,1.3.3,1.7.2.4.6.7,1.1.9,2.5-4.3,4.9-7.5,7.1-9.4,2.2-1.9,4.5-2.9,7-2.9s3,.4,4.3,1.1c1.2.7,2.2,1.8,2.9,3.1.7,1.3,1.1,2.8,1.1,4.5s-.4,3.2-1.1,4.6c-.8,1.3-1.8,2.4-3.2,3.1-1.4.7-3,1.1-4.9,1.1h-11.2c-2.9,0-4.8-.8-5.8-2.3-.5.8-1.3,1.3-2.2,1.7-.9.4-2.1.6-3.5.6h-2c-.3,0-.4-.8-.4-2.3s0-1.7.1-2c0-.3.2-.5.3-.5h2c1.1,0,2-.3,2.6-.8ZM1194.6,228.9c.8-.7,1.2-1.7,1.2-3s-.2-1.6-.5-2.2-.8-1.1-1.4-1.5c-.6-.3-1.3-.5-2.1-.5-1.4,0-2.8.7-4.3,2-1.5,1.3-3.1,3.4-5,6.2h8.7c1.5,0,2.6-.4,3.5-1.1ZM1200.5,229.8c.6.2,1.4.2,2.4.2h1.1c.3,0,.4.8.4,2.5s-.1,2.3-.4,2.3h-1.1c-1.5,0-2.8-.2-3.8-.5-1-.4-1.9-1-2.6-1.8l2.7-3.4c.3.4.8.6,1.3.8Z"/>
    <path class="st1" d="M1222.3,219.5c1.4,1.5,2.1,3.7,2.1,6.5v.2c0,2.7-.7,4.8-2.2,6.3-1.5,1.5-3.5,2.3-6.1,2.3s-2.7-.2-3.7-.6c-1-.4-1.7-1-2.2-1.7-.5.8-1.2,1.4-2,1.8-.8.4-1.9.6-3.2.6h-1c-.3,0-.4-.8-.4-2.3s0-1.7.1-2c0-.3.2-.5.3-.5h1c.9,0,1.6-.2,2-.6.4-.4.6-1,.6-1.8v-1.5c0-2.8.8-5,2.3-6.6,1.5-1.6,3.6-2.4,6.3-2.4s4.7.8,6.1,2.3ZM1213.1,222.8c-.6.7-.9,1.8-.9,3.1v.2c0,1.2.3,2.2,1,2.8.6.7,1.6,1,2.9,1s2.2-.3,2.9-.9.9-1.6.9-2.9v-.2c0-1.4-.3-2.5-.9-3.2-.6-.7-1.6-1.1-2.9-1.1s-2.3.4-2.9,1.1Z"/>
    <path class="st1" d="M1243.3,217.5h10.8c1.8,0,3.3.4,4.4,1.3,1.1.8,1.7,2.1,1.7,3.7s-.1,1.5-.4,2.2c-.3.7-.7,1.4-1.4,2.2-.7.8-1.6,1.7-2.8,2.8.7.1,1.2.2,1.6.2s1.1,0,2,0h4.5c.1,0,.3.2.3.5s.1,1,.1,2,0,1.6-.1,1.8c0,.3-.2.4-.3.4h-4.5c-1.8,0-3.2,0-4.3-.2-1-.1-1.9-.3-2.6-.6-.7-.3-1.3-.7-1.9-1.2-1.8,1.1-3.1,2.3-3.9,3.5-.8,1.2-1.2,2.5-1.2,3.8s.5,2.8,1.6,3.6c1.1.8,2.8,1.2,5.2,1.2h8.4l-.4,4.8h-8.2c-3.8,0-6.6-.8-8.4-2.3-1.8-1.6-2.7-3.9-2.7-7.1s.5-3.8,1.4-5.5c.9-1.7,2.3-3.3,4.2-4.7l-5.4-8,2.4-4.5ZM1255.1,222.3c-.4-.3-.9-.4-1.6-.4h-7.5l4.7,7c1.4-1.2,2.4-2.1,3.1-2.8s1.2-1.2,1.5-1.7c.3-.4.4-.8.4-1.1,0-.5-.2-.9-.6-1.1Z"/>
    <path class="st1" d="M1272.2,229.6c1.5-.3,2.9-.8,4.2-1.6l5.2-3c-.4-1.2-.9-2-1.6-2.5-.7-.5-1.7-.7-3-.7h-9.7l.4-4.7h10.1c1.8,0,3.3.3,4.4.9,1.1.6,2,1.5,2.8,2.9.7,1.4,1.4,3.3,2,5.7l-8.4,5.3c-1.8,1.1-3.6,1.9-5.4,2.3-1.8.4-4,.6-6.6.6h-3c-.3,0-.4-.8-.4-2.3s0-1.7.1-2c0-.3.2-.5.3-.5h3.1c2.2,0,4-.1,5.5-.4ZM1270.8,244v-4.3h5.1v4.3h-5.1Z"/>
    <path class="st1" d="M1299.6,229.3c.5.5,1.4.7,2.4.7h.6c.3,0,.4.8.4,2.5s-.1,2.3-.4,2.3h-.6c-.7,0-1.3,0-1.9-.3-.6-.2-1-.5-1.4-.9v.2c0,2.3-.6,4.2-1.5,5.9s-2.3,3-4,4c-1.7,1-3.7,1.4-6,1.4h-3.3l-.4-4.8h3.6c2.2,0,3.9-.6,5.1-1.9,1.2-1.2,1.8-3,1.8-5.2v-12.9h4.5v6.6c0,1,.3,1.7.8,2.2Z"/>
    <path class="st1" d="M1320.9,219.5c1.4,1.5,2.1,3.7,2.1,6.5v.2c0,2.7-.7,4.8-2.2,6.3-1.5,1.5-3.5,2.3-6.1,2.3s-2.7-.2-3.7-.6c-1-.4-1.7-1-2.2-1.7-.5.8-1.2,1.4-2,1.8-.8.4-1.9.6-3.2.6h-1c-.3,0-.4-.8-.4-2.3s0-1.7.1-2c0-.3.2-.5.3-.5h1c.9,0,1.6-.2,2-.6.4-.4.6-1,.6-1.8v-1.5c0-2.8.8-5,2.3-6.6,1.5-1.6,3.6-2.4,6.3-2.4s4.7.8,6.1,2.3ZM1311.8,222.8c-.6.7-.9,1.8-.9,3.1v.2c0,1.2.3,2.2,1,2.8.6.7,1.6,1,2.9,1s2.2-.3,2.9-.9.9-1.6.9-2.9v-.2c0-1.4-.3-2.5-.9-3.2-.6-.7-1.6-1.1-2.9-1.1s-2.3.4-2.9,1.1Z"/>
  </g>
</svg>