<?xml version="1.0" encoding="UTF-8"?>
<svg id="Layer_1" xmlns="http://www.w3.org/2000/svg" version="1.1" viewBox="0 0 1339.7 230.3">
  <!-- Generator: Adobe Illustrator 29.1.0, SVG Export Plug-In . SVG Version: 2.1.0 Build 142)  -->
  <defs>
    <style>
      .st0 {
        fill: #f3922b;
      }

      .st1 {
        fill: #fff;
      }

      .st2 {
        fill: none;
        stroke: #f3922b;
        stroke-miterlimit: 10;
        stroke-width: 12px;
      }
    </style>
  </defs>
  <rect class="st0" x="61.3" y="60.9" width="73.6" height="73.6" transform="translate(-40.4 98) rotate(-45)"/>
  <rect class="st2" x="37.3" y="36.8" width="121.9" height="121.9" transform="translate(-40.3 98.1) rotate(-45)"/>
  <g>
    <path class="st0" d="M338.5,122.2h1.8l2.3-17.9,11.2-67.1h22.5l-19.7,105.6h-33.8l-13.6-67.2-2.4-17.9h-1.6l-2.4,17.9-13.6,67.2h-33.8l-19.7-105.6h22.5l11.2,67.1,2.3,17.9h1.6l3.3-17.9,13.5-67.1h32.1l13.5,67.1,3.1,17.9h-.1,0Z"/>
    <path class="st0" d="M429.4,83.1c-1.9-1.8-5.2-2.7-9.8-2.7s-8.1.2-13.5.6-10.2,1-14.4,1.8l-1.8-14.6c4.8-.8,10.1-1.5,15.7-2.2,5.7-.6,11-1,15.9-1,11,0,19.1,2.2,24.4,6.6,5.3,4.4,8,11.2,8,20.7v50.7h-16.5l-3.3-18.7,3.3,6.4c-1.3,4.4-4.2,7.7-8.5,10.2-4.4,2.4-10.3,3.6-17.7,3.6s-15.7-2.1-20.2-6.3c-4.5-4.2-6.7-10.5-6.7-19.1s2.5-14.5,7.6-18.4c5.1-4,13.2-6,24.4-6h16.1v-2.3c0-4.4-1-7.5-2.9-9.3h0ZM408.8,109.7c-2,1.7-2.9,4.7-2.9,8.7s1,6.6,2.9,8.4,4.7,2.7,8.6,2.7,8.1-1.1,10.8-3.4,4.1-5.4,4.1-9.4v-9.5h-13.8c-4.5,0-7.7.9-9.7,2.7h0Z"/>
    <path class="st0" d="M499.2,68.7c3.5-2.4,7.6-3.6,12.3-3.6h9l-1.6,18.5h-8.9c-4.5,0-8,1.5-10.7,4.4s-3.9,6.8-3.9,11.7v43.1h-21.6v-76.2h16.5l3.6,18.7-3.4-4.9c2.3-5.4,5.2-9.2,8.7-11.7h0Z"/>
    <path class="st0" d="M644.5,49.5c8,8.2,11.9,20,11.9,35.6v9.5c0,15.6-4,27.6-11.9,35.8-8,8.2-19.5,12.4-34.8,12.4h-36.4V37.2h36.4c15.2,0,26.8,4.1,34.8,12.3ZM623.2,121.9c3.9-2.1,6.8-5.3,8.8-9.7,2-4.4,2.9-9.9,2.9-16.8v-11c0-6.8-1-12.4-2.9-16.6-2-4.3-4.9-7.5-8.8-9.6-3.9-2.1-8.9-3.1-15-3.1h-13.3v69.9h13.3c6.1,0,11.1-1,15-3.1h0Z"/>
    <path class="st0" d="M688.9,155.6c1.6-.8,3-2.2,4.1-4.3,1.1-2,2-4.8,2.8-8.4h-5.4l-23.8-76.2h22.5l11.9,40.5,3.1,13.8h1.5l3.1-13.8,12.6-40.5h22.5l-27.4,82.3c-2,6-4.4,10.8-7.4,14.5-2.9,3.6-6.5,6.3-10.5,8-4.1,1.6-9,2.4-14.7,2.4h-10.5l-1.6-17h10.5c2.9,0,5.1-.4,6.7-1.3h0Z"/>
    <path class="st0" d="M773.1,66.6l3.6,18.4-4.3-6.2c1.2-4.5,4-7.9,8.3-10.2s9.6-3.4,16-3.4c10.2,0,17.7,2.9,22.6,8.8,4.9,5.9,7.3,14.4,7.3,25.7v43.3h-21.8v-44.1c0-6-.9-10.3-2.8-12.8-1.9-2.5-5.1-3.8-9.7-3.8s-8.2,1.1-10.5,3.4c-2.4,2.3-3.5,5.7-3.5,10.2v47.1h-21.6v-76.2h16.5-.1Z"/>
    <path class="st0" d="M852.9,74.5c6.6-6.2,16.1-9.4,28.2-9.4s21.4,3.1,28.1,9.4c6.6,6.2,10,15.1,10,26.5v7.4c0,11.4-3.4,20.4-10,26.7-6.7,6.3-16,9.4-28.1,9.4s-21.5-3.1-28.2-9.4-10-15.1-10-26.7v-7.4c0-11.4,3.4-20.3,10-26.5ZM893.3,122.2c2.8-2.9,4.2-7.3,4.2-13v-9c0-5.7-1.4-10-4.2-13-2.8-2.9-6.8-4.4-12.2-4.4s-9.6,1.5-12.4,4.4-4.2,7.3-4.2,13v9c0,5.7,1.4,10,4.2,13s6.9,4.4,12.4,4.4,9.4-1.5,12.2-4.4Z"/>
    <path class="st0" d="M997,165.3c-6.7,6.4-16.1,9.5-28.2,9.5s-19.6-1.3-29.7-3.9l2.4-17c8.7,2.1,17.5,3.1,26.4,3.1s10.3-1.5,13.2-4.4,4.3-7.3,4.3-13v-13.8l5.7,5.1c-1.2,4.3-4.1,7.6-8.7,10-4.6,2.4-10.1,3.6-16.5,3.6-10.8,0-18.9-2.9-24.1-8.8-5.2-5.9-7.9-14.4-7.9-25.7v-10.5c0-11.4,2.7-20,7.9-25.8s13.3-8.7,24.1-8.7,12.1,1.1,16.6,3.4c4.5,2.3,7.4,5.7,8.6,10l-4.1,6.4,3.3-18.4h16.5v71.6c0,11.7-3.4,20.7-10,27.1h0s0,0,0,0h0ZM981.7,85.6c-2.6-2.3-6.3-3.4-11.1-3.4s-9.4,1.3-11.6,3.8-3.4,6.8-3.4,12.7v11.9c0,6.1,1.1,10.5,3.4,13,2.2,2.5,6.1,3.8,11.6,3.8s8.5-1.2,11.1-3.5c2.6-2.4,3.8-5.7,3.8-10.1v-18c0-4.5-1.3-7.9-3.8-10.2h0Z"/>
    <path class="st0" d="M1054.1,68.7c3.5-2.4,7.6-3.6,12.3-3.6h9l-1.6,18.5h-8.9c-4.5,0-8,1.5-10.7,4.4s-3.9,6.8-3.9,11.7v43.1h-21.6v-76.2h16.5l3.6,18.7-3.4-4.9c2.3-5.4,5.2-9.2,8.7-11.7h0Z"/>
    <path class="st0" d="M1128.3,83.1c-1.9-1.8-5.2-2.7-9.8-2.7s-8.1.2-13.5.6-10.2,1-14.4,1.8l-1.8-14.6c4.8-.8,10.1-1.5,15.7-2.2,5.7-.6,11-1,15.9-1,11,0,19.1,2.2,24.4,6.6,5.3,4.4,8,11.2,8,20.7v50.7h-16.5l-3.3-18.7,3.3,6.4c-1.3,4.4-4.2,7.7-8.5,10.2-4.4,2.4-10.3,3.6-17.7,3.6s-15.7-2.1-20.2-6.3-6.7-10.5-6.7-19.1,2.5-14.5,7.6-18.4,13.2-6,24.4-6h16.1v-2.3c0-4.4-1-7.5-2.9-9.3h0ZM1107.7,109.7c-2,1.7-2.9,4.7-2.9,8.7s1,6.6,2.9,8.4,4.7,2.7,8.6,2.7,8.1-1.1,10.8-3.4c2.7-2.2,4.1-5.4,4.1-9.4v-9.5h-13.8c-4.5,0-7.7.9-9.7,2.7h0q0,0,0,0Z"/>
    <path class="st0" d="M1172.6,173.9v-107.3h16.5l3.4,18.7-4.1-6.6c1.2-4.5,4-7.9,8.6-10.2s10.1-3.4,16.6-3.4c10.7,0,18.7,2.9,23.9,8.7,5.2,5.8,7.9,14.3,7.9,25.6v10.5c0,11.4-2.7,20-7.9,25.8-5.2,5.9-13.2,8.8-23.9,8.8s-12.1-1.2-16.6-3.5c-4.5-2.4-7.4-5.7-8.6-10.1l5.7-4.7v47.7h-21.6s0,0,0,0h0ZM1198.2,123.9c2.7,2.4,6.3,3.5,11,3.5s9.2-1.3,11.4-3.8c2.3-2.6,3.4-6.8,3.4-12.8v-11.9c0-6-1.1-10.3-3.4-12.8-2.3-2.5-6.1-3.8-11.4-3.8s-8.5,1.1-11.1,3.4c-2.6,2.3-3.8,5.7-3.8,10.2v18c0,4.4,1.3,7.7,3.9,10.1h0Z"/>
    <path class="st0" d="M1284.7,83.5l-5.7-4.7c1.2-4.5,4-7.9,8.3-10.2,4.3-2.3,9.6-3.4,16-3.4,10.2,0,17.7,2.9,22.6,8.8,4.9,5.9,7.3,14.4,7.3,25.7v43.3h-21.8v-44.1c0-6-.9-10.3-2.8-12.8-1.9-2.5-5.1-3.8-9.7-3.8s-8.2,1.1-10.5,3.4c-2.4,2.3-3.5,5.7-3.5,10.2v47.1h-21.6V33.1h21.6v50.3h-.1Z"/>
  </g>
  <g>
    <path class="st1" d="M241.5,219.2c.8-.6,1.3-1.6,1.3-2.9s-.1-1.3-.5-1.8c-.3-.5-.8-.9-1.7-1.3-.8-.4-2-.8-3.7-1.4-1.9-.6-3.4-1.2-4.4-1.8-1-.6-1.7-1.3-2.1-2s-.6-1.8-.6-3.1.3-2.5.9-3.4,1.5-1.8,2.7-2.3,2.6-.8,4.2-.8,2.5.1,3.8.4c1.3.3,2.5.7,3.7,1.3l-1,2.4c-1.1-.5-2.3-.8-3.2-1-1.1-.2-2-.3-3.1-.3-1.5,0-2.7.4-3.5,1-.8.6-1.2,1.5-1.2,2.7s.1,1.4.4,1.9c.3.5.8.9,1.5,1.3.8.4,1.9.8,3.5,1.3,2,.6,3.5,1.2,4.6,1.8,1.1.6,1.8,1.3,2.3,2.1.5.8.7,1.8.7,3.1,0,2.2-.7,3.9-2.1,5s-3.4,1.7-6.1,1.7-2.9-.1-4.4-.5-2.8-.8-4-1.3l.8-2.5c1.3.5,2.5.9,3.7,1.1,1.2.3,2.5.4,3.7.4s2.9-.4,3.7-1h0Z"/>
    <path class="st1" d="M255,206c1-.6,2.3-.9,3.7-.9s2.5.3,3.4.8c.8.6,1.5,1.3,1.9,2.5h-.6c.5-1,1.3-1.8,2.3-2.4,1.1-.6,2.3-.8,3.8-.8,2.3,0,3.9.6,5,1.8,1.1,1.2,1.6,3.1,1.6,5.7v10.1h-3.2v-10.1c0-1.8-.3-3-.9-3.7s-1.5-1.1-2.9-1.1-2.3.4-3,1.1-1.1,1.7-1.1,3v10.8h-3.2v-10.1c0-1.8-.3-3-.9-3.7s-1.5-1.1-2.9-1.1-2.3.4-3,1.1-1.1,1.7-1.1,3v10.8h-3.2v-17.2h2.5l.4,4-.9-.8c.4-1.1,1-2,2-2.6h0Z"/>
    <path class="st1" d="M291.4,208.3c-.6-.6-1.5-.8-3-.8s-1.9,0-3,.1c-1.1,0-2.2.2-3.1.4l-.3-2.3c1.1-.1,2.1-.4,3.3-.5s2.3-.2,3.3-.2c2.3,0,4,.5,5.1,1.5,1.1,1,1.7,2.5,1.7,4.4v11.6h-2.5l-.4-3.8.6.8c-.4,1.1-1.1,1.9-2.2,2.5-1.1.6-2.5.8-4.2.8s-3.4-.5-4.4-1.4-1.5-2.3-1.5-4.2.6-3.2,1.7-4.1c1.1-.9,2.9-1.3,5.3-1.3h4.6v-.8c0-1.3-.3-2.2-.9-2.7h-.1ZM284.9,214.7c-.6.5-1,1.3-1,2.5s.3,2,.8,2.5c.6.6,1.5.8,2.7.8s2.5-.4,3.4-1c.8-.6,1.3-1.5,1.3-2.6v-3h-4.4c-1.3,0-2.4.3-3,.8h0Z"/>
    <path class="st1" d="M305.3,206.1c.9-.7,2-1.1,3.3-1.1h2l-.3,2.9h-2c-1.3,0-2.3.4-3.1,1.3s-1.1,2-1.1,3.5v9.9h-3.2v-17.2h2.5l.4,4-.8-.2c.5-1.3,1.2-2.4,2.1-3.1h0Z"/>
    <path class="st1" d="M323.7,205.3v2.5h-10.6v-2.5h10.6ZM319.6,200.8v16.7c0,.9.2,1.5.6,1.9s1,.6,1.8.6h1.8l-.3,2.5h-1.8c-1.8,0-3-.4-3.9-1.3-.8-.8-1.3-2.2-1.3-3.9v-16.5h3.2,0Z"/>
    <path class="st1" d="M350.6,198.7c1.3.4,2.5.8,3.7,1.5l-1.1,2.3c-1.1-.6-2.3-.9-3.2-1.2s-2-.4-3-.4c-2.3,0-4.1.7-5.3,2-1.1,1.3-1.8,3.4-1.8,6.1v3.1c0,2.6.6,4.6,1.7,6,1.1,1.3,2.8,2,5.1,2s2.3-.1,3.4-.4,2.5-.8,3.8-1.4l1,2.3c-1.3.8-2.7,1.3-4.2,1.7s-2.9.6-4.2.6c-3.2,0-5.6-.9-7.2-2.8-1.7-1.8-2.5-4.6-2.5-8.1v-2.9c0-3.5.8-6.2,2.6-8.1s4.2-2.8,7.5-2.8,2.4.1,3.7.5h0Z"/>
    <path class="st1" d="M360,207.2c1.4-1.4,3.4-2.1,6.1-2.1s4.6.7,6.1,2.1c1.4,1.4,2.2,3.4,2.2,5.9v1.8c0,2.5-.7,4.5-2.2,5.9-1.4,1.4-3.4,2.1-6.1,2.1s-4.6-.7-6.1-2.1c-1.4-1.4-2.2-3.4-2.2-5.9v-1.8c0-2.5.7-4.5,2.2-5.9h0ZM369.7,218.8c.8-.8,1.3-2.2,1.3-3.9v-2c0-1.7-.4-3-1.3-3.9-.8-.9-2.1-1.3-3.7-1.3s-2.9.4-3.7,1.3c-.8.9-1.3,2.2-1.3,3.9v2c0,1.7.4,3,1.3,3.9.8.9,2.1,1.3,3.7,1.3s2.9-.4,3.7-1.3Z"/>
    <path class="st1" d="M381.4,205.3l.4,4-.8-.6c.4-1.2,1-2.1,2-2.7s2.3-.9,3.9-.9c2.3,0,3.9.6,5,1.9s1.6,3.2,1.6,5.7v9.9h-3.2v-10.1c0-1.8-.3-3-.9-3.7s-1.6-1.1-3-1.1-2.5.4-3.2,1.1-1.1,1.7-1.1,3v10.8h-3.2v-17.2h2.5Z"/>
    <path class="st1" d="M407.4,205.3v2.5h-10.6v-2.5h10.6ZM403.3,200.8v16.7c0,.9.2,1.5.6,1.9s1,.6,1.8.6h1.8l-.3,2.5h-1.8c-1.8,0-3-.4-3.9-1.3-.8-.8-1.3-2.2-1.3-3.9v-16.5h3.2,0Z"/>
    <path class="st1" d="M412.8,207.2c1.3-1.4,3.3-2,5.8-2s4.5.7,5.8,2,2,3.4,2,6v2.3h-13.3v-2.2h10.1v-.5c0-1.7-.4-2.9-1.1-3.7-.7-.8-1.9-1.3-3.5-1.3s-2.8.4-3.5,1.3-1.1,2.2-1.1,3.9v2.5c0,1.5.4,2.7,1.2,3.5.8.8,2,1.2,3.7,1.2s4.6-.2,6.8-.7l.4,2.6c-1.4.3-2.7.5-3.9.6-1.2.1-2.3.2-3.4.2-2.6,0-4.6-.6-6-2s-2-3.2-2-5.6v-2.3c0-2.6.7-4.6,2-5.9h0Z"/>
    <path class="st1" d="M433.8,205.3l.4,4-.8-.6c.4-1.2,1-2.1,2-2.7s2.3-.9,3.9-.9c2.3,0,3.9.6,5,1.9s1.6,3.2,1.6,5.7v9.9h-3.2v-10.1c0-1.8-.3-3-.9-3.7-.6-.8-1.6-1.1-3-1.1s-2.5.4-3.2,1.1-1.1,1.7-1.1,3v10.8h-3.2v-17.2h2.5Z"/>
    <path class="st1" d="M459.7,205.3v2.5h-10.6v-2.5h10.6ZM455.6,200.8v16.7c0,.9.2,1.5.6,1.9s1,.6,1.8.6h1.8l-.3,2.5h-1.8c-1.8,0-3-.4-3.9-1.3-.8-.8-1.3-2.2-1.3-3.9v-16.5h3.2,0Z"/>
    <path class="st1" d="M486.7,198.7c1.3.4,2.5.8,3.7,1.5l-1.1,2.3c-1.1-.6-2.3-.9-3.2-1.2-1-.3-2-.4-3-.4-2.3,0-4.1.7-5.3,2-1.1,1.3-1.8,3.4-1.8,6.1v3.1c0,2.6.6,4.6,1.7,6,1.1,1.3,2.8,2,5.1,2s2.3-.1,3.4-.4,2.5-.8,3.8-1.4l1,2.3c-1.3.8-2.7,1.3-4.2,1.7s-2.9.6-4.2.6c-3.2,0-5.6-.9-7.2-2.8-1.7-1.8-2.5-4.6-2.5-8.1v-2.9c0-3.5.8-6.2,2.6-8.1s4.2-2.8,7.5-2.8,2.4.1,3.7.5h0Z"/>
    <path class="st1" d="M499.4,206.1c.9-.7,2-1.1,3.3-1.1h2l-.3,2.9h-2c-1.3,0-2.3.4-3.1,1.3-.8.8-1.1,2-1.1,3.5v9.9h-3.2v-17.2h2.5l.4,4-.8-.2c.5-1.3,1.2-2.4,2.1-3.1h0Z"/>
    <path class="st1" d="M508.9,207.2c1.3-1.4,3.3-2,5.8-2s4.5.7,5.8,2c1.3,1.3,2,3.4,2,6v2.3h-13.3v-2.2h10.1v-.5c0-1.7-.4-2.9-1.1-3.7-.7-.8-1.9-1.3-3.5-1.3s-2.8.4-3.5,1.3-1.1,2.2-1.1,3.9v2.5c0,1.5.4,2.7,1.2,3.5.8.8,2,1.2,3.7,1.2s4.6-.2,6.8-.7l.4,2.6c-1.4.3-2.7.5-3.9.6-1.2.1-2.3.2-3.4.2-2.6,0-4.6-.6-6-2s-2-3.2-2-5.6v-2.3c0-2.6.7-4.6,2-5.9h0Z"/>
    <path class="st1" d="M537.5,208.3c-.6-.6-1.5-.8-3-.8s-1.9,0-3,.1c-1.1,0-2.2.2-3.1.4l-.3-2.3c1.1-.1,2.1-.4,3.3-.5s2.3-.2,3.3-.2c2.3,0,4,.5,5.1,1.5,1.1,1,1.7,2.5,1.7,4.4v11.6h-2.5l-.4-3.8.6.8c-.4,1.1-1.1,1.9-2.2,2.5-1.1.6-2.5.8-4.2.8s-3.4-.5-4.4-1.4c-1-.9-1.5-2.3-1.5-4.2s.6-3.2,1.7-4.1c1.1-.9,2.9-1.3,5.3-1.3h4.6v-.8c0-1.3-.3-2.2-.9-2.7h-.1ZM531,214.7c-.6.5-1,1.3-1,2.5s.3,2,.8,2.5c.6.6,1.5.8,2.7.8s2.5-.4,3.4-1c.8-.6,1.3-1.5,1.3-2.6v-3h-4.4c-1.3,0-2.4.3-3,.8h0Z"/>
    <path class="st1" d="M555.4,205.3v2.5h-10.6v-2.5h10.6ZM551.3,200.8v16.7c0,.9.2,1.5.6,1.9s1,.6,1.8.6h1.8l-.3,2.5h-1.8c-1.8,0-3-.4-3.9-1.3-.8-.8-1.3-2.2-1.3-3.9v-16.5h3.2,0Z"/>
    <path class="st1" d="M563.4,197.7v3.2h-3.5v-3.2h3.5ZM563.3,205.3v17.2h-3.2v-17.2h3.2Z"/>
    <path class="st1" d="M570.3,207.2c1.4-1.4,3.4-2.1,6.1-2.1s4.6.7,6.1,2.1c1.4,1.4,2.2,3.4,2.2,5.9v1.8c0,2.5-.7,4.5-2.2,5.9-1.4,1.4-3.4,2.1-6.1,2.1s-4.6-.7-6.1-2.1c-1.4-1.4-2.2-3.4-2.2-5.9v-1.8c0-2.5.7-4.5,2.2-5.9h0ZM580.1,218.8c.8-.8,1.3-2.2,1.3-3.9v-2c0-1.7-.4-3-1.3-3.9s-2.1-1.3-3.7-1.3-2.9.4-3.7,1.3c-.8.9-1.3,2.2-1.3,3.9v2c0,1.7.4,3,1.3,3.9s2.1,1.3,3.7,1.3,2.9-.4,3.7-1.3Z"/>
    <path class="st1" d="M591.8,205.3l.4,4-.8-.6c.4-1.2,1-2.1,2-2.7s2.3-.9,3.9-.9c2.3,0,3.9.6,5,1.9s1.6,3.2,1.6,5.7v9.9h-3.2v-10.1c0-1.8-.3-3-.9-3.7-.6-.8-1.6-1.1-3-1.1s-2.5.4-3.2,1.1-1.1,1.7-1.1,3v10.8h-3.2v-17.2h2.5Z"/>
    <path class="st1" d="M628.9,208.3c-.6-.6-1.5-.8-3-.8s-1.9,0-3,.1c-1.1,0-2.2.2-3.1.4l-.3-2.3c1.1-.1,2.1-.4,3.3-.5s2.3-.2,3.3-.2c2.3,0,4,.5,5.1,1.5,1.1,1,1.7,2.5,1.7,4.4v11.6h-2.5l-.4-3.8.6.8c-.4,1.1-1.1,1.9-2.2,2.5-1.1.6-2.5.8-4.2.8s-3.4-.5-4.4-1.4c-1-.9-1.5-2.3-1.5-4.2s.6-3.2,1.7-4.1c1.1-.9,2.9-1.3,5.3-1.3h4.6v-.8c0-1.3-.3-2.2-.9-2.7h-.1ZM622.4,214.7c-.6.5-1,1.3-1,2.5s.3,2,.8,2.5c.6.6,1.5.8,2.7.8s2.5-.4,3.4-1c.8-.6,1.3-1.5,1.3-2.6v-3h-4.4c-1.3,0-2.4.3-3,.8h0Z"/>
    <path class="st1" d="M640.9,205.3l.4,4-.8-.6c.4-1.2,1-2.1,2-2.7s2.3-.9,3.9-.9c2.3,0,3.9.6,5,1.9s1.6,3.2,1.6,5.7v9.9h-3.2v-10.1c0-1.8-.3-3-.9-3.7-.6-.8-1.6-1.1-3-1.1s-2.5.4-3.2,1.1-1.1,1.7-1.1,3v10.8h-3.2v-17.2h2.5Z"/>
    <path class="st1" d="M673,197.7v24.9h-2.5l-.4-4,.8.6c-.4,1.2-1.1,2-2.1,2.7-1.1.6-2.5.9-4.1.9-2.4,0-4.2-.6-5.3-1.9-1.2-1.3-1.8-3.2-1.8-5.7v-2.5c0-2.5.6-4.4,1.8-5.7,1.2-1.3,3-1.9,5.3-1.9s3,.3,4.1.9c1.1.6,1.8,1.5,2.1,2.7l-1.1.4v-11.5h3.2,0ZM668.6,208.8c-.8-.7-1.9-1.1-3.4-1.1s-2.7.4-3.4,1.2c-.7.8-1.1,2-1.1,3.7v2.7c0,1.7.4,3,1.1,3.7.7.8,1.9,1.2,3.4,1.2s2.6-.4,3.4-1.1c.8-.7,1.2-1.7,1.2-3v-4.5c0-1.3-.4-2.3-1.2-3h0Z"/>
    <path class="st1" d="M695.2,216.5l1,3h.3l.9-3,5.8-18h3.4l-8,24.1h-4.8l-8-24.1h3.4l5.8,18h0Z"/>
    <path class="st1" d="M713.2,197.7v3.2h-3.5v-3.2h3.5ZM713,205.3v17.2h-3.2v-17.2h3.2Z"/>
    <path class="st1" d="M721.1,222.6c-1.2-.1-2.3-.4-3.4-.7l.6-2.4c1.2.3,2.3.5,3.3.6,1,.1,2,.2,2.8.2,1.3,0,2.3-.2,3-.6.6-.4.9-1.1.9-1.9s-.1-.9-.4-1.2-.6-.5-1.2-.7-1.5-.4-2.9-.8c-1.6-.4-2.9-.7-3.7-1.1s-1.5-.9-1.8-1.5c-.4-.6-.5-1.4-.5-2.3,0-1.7.6-3,1.7-3.9,1.1-.9,2.7-1.3,4.8-1.3s2,0,3.1.2c1.1.1,2.3.4,3.5.7l-.6,2.4c-1.3-.3-2.3-.5-3.2-.6s-1.8-.2-2.6-.2-2.1.2-2.7.6c-.6.4-.8,1.1-.8,1.8s0,.9.3,1.3c.2.3.6.6,1.1.8s1.4.4,2.5.6c1.8.4,3.1.7,4,1.1s1.5.9,1.9,1.5c.4.6.6,1.4.6,2.4,0,1.8-.6,3-1.7,3.9-1.1.8-2.8,1.3-5.1,1.3s-2.4,0-3.5-.3h0Z"/>
    <path class="st1" d="M748.4,222.5l-.4-4,.8.6c-.4,1.2-1,2.1-2,2.7s-2.3.9-3.9.9-3.9-.6-5-1.9c-1.1-1.3-1.6-3.2-1.6-5.7v-9.9h3.2v10.1c0,1.8.3,3,.9,3.7.6.8,1.6,1.1,3.1,1.1s2.5-.4,3.2-1.1,1.1-1.7,1.1-3v-10.8h3.2v17.2h-2.5Z"/>
    <path class="st1" d="M766.2,208.3c-.6-.6-1.5-.8-3-.8s-1.9,0-3,.1c-1.1,0-2.2.2-3.1.4l-.3-2.3c1.1-.1,2.1-.4,3.3-.5s2.3-.2,3.3-.2c2.3,0,4,.5,5.1,1.5,1.1,1,1.7,2.5,1.7,4.4v11.6h-2.5l-.4-3.8.6.8c-.4,1.1-1.1,1.9-2.2,2.5s-2.5.8-4.2.8-3.4-.5-4.4-1.4c-1-.9-1.5-2.3-1.5-4.2s.6-3.2,1.7-4.1c1.1-.9,2.9-1.3,5.3-1.3h4.6v-.8c0-1.3-.3-2.2-.9-2.7h-.1ZM759.7,214.7c-.6.5-1,1.3-1,2.5s.3,2,.8,2.5,1.5.8,2.7.8,2.5-.4,3.4-1c.9-.6,1.3-1.5,1.3-2.6v-3h-4.4c-1.3,0-2.4.3-3,.8h0Z"/>
    <path class="st1" d="M778.9,197.7v24.9h-3.2v-24.9h3.2Z"/>
    <path class="st1" d="M788.2,197.7v3.2h-3.5v-3.2h3.5ZM788,205.3v17.2h-3.2v-17.2h3.2Z"/>
    <path class="st1" d="M802.3,208.1h-9.3v-2.7h13.7v2.4l-9.6,12h10.1v2.7h-14.3v-2.5l9.5-12h0Z"/>
    <path class="st1" d="M821.5,208.3c-.6-.6-1.5-.8-3-.8s-1.9,0-3,.1c-1.1,0-2.2.2-3.1.4l-.3-2.3c1.1-.1,2.1-.4,3.3-.5s2.3-.2,3.3-.2c2.3,0,4,.5,5.1,1.5,1.1,1,1.7,2.5,1.7,4.4v11.6h-2.5l-.4-3.8.6.8c-.4,1.1-1.1,1.9-2.2,2.5s-2.5.8-4.2.8-3.4-.5-4.4-1.4-1.5-2.3-1.5-4.2.6-3.2,1.7-4.1c1.1-.9,2.9-1.3,5.3-1.3h4.6v-.8c0-1.3-.3-2.2-.9-2.7h-.1ZM815.1,214.7c-.6.5-1,1.3-1,2.5s.3,2,.8,2.5,1.5.8,2.7.8,2.5-.4,3.4-1,1.3-1.5,1.3-2.6v-3h-4.4c-1.3,0-2.4.3-3,.8h0Z"/>
    <path class="st1" d="M839.5,205.3v2.5h-10.6v-2.5h10.6ZM835.4,200.8v16.7c0,.9.2,1.5.6,1.9s1,.6,1.8.6h1.8l-.3,2.5h-1.8c-1.8,0-3-.4-3.9-1.3-.8-.8-1.3-2.2-1.3-3.9v-16.5h3.2,0Z"/>
    <path class="st1" d="M847.5,197.7v3.2h-3.5v-3.2h3.5ZM847.4,205.3v17.2h-3.2v-17.2h3.2Z"/>
    <path class="st1" d="M854.5,207.2c1.4-1.4,3.4-2.1,6.1-2.1s4.6.7,6.1,2.1c1.4,1.4,2.2,3.4,2.2,5.9v1.8c0,2.5-.7,4.5-2.2,5.9-1.4,1.4-3.4,2.1-6.1,2.1s-4.6-.7-6.1-2.1c-1.4-1.4-2.2-3.4-2.2-5.9v-1.8c0-2.5.7-4.5,2.2-5.9h0ZM864.2,218.8c.8-.8,1.3-2.2,1.3-3.9v-2c0-1.7-.4-3-1.3-3.9s-2.1-1.3-3.7-1.3-2.9.4-3.7,1.3c-.8.9-1.3,2.2-1.3,3.9v2c0,1.7.4,3,1.3,3.9.8.9,2.1,1.3,3.7,1.3s2.9-.4,3.7-1.3Z"/>
    <path class="st1" d="M875.9,205.3l.4,4-.8-.6c.4-1.2,1-2.1,2-2.7s2.3-.9,3.9-.9c2.3,0,3.9.6,5,1.9s1.6,3.2,1.6,5.7v9.9h-3.2v-10.1c0-1.8-.3-3-.9-3.7s-1.6-1.1-3-1.1-2.5.4-3.2,1.1-1.1,1.7-1.1,3v10.8h-3.2v-17.2h2.5Z"/>
    <path class="st1" d="M903.2,222.6v-24.1h3.2v24.1h-3.2ZM918.6,209v2.7h-12.6v-2.7h12.6ZM921.4,198.5v24.1h-3.2v-24.1h3.2Z"/>
    <path class="st1" d="M938.7,222.5l-.4-4,.8.6c-.4,1.2-1,2.1-2,2.7s-2.3.9-3.9.9-3.9-.6-5-1.9c-1.1-1.3-1.6-3.2-1.6-5.7v-9.9h3.2v10.1c0,1.8.3,3,.9,3.7.6.8,1.6,1.1,3.1,1.1s2.5-.4,3.2-1.1,1.1-1.7,1.1-3v-10.8h3.2v17.2h-2.5Z"/>
    <path class="st1" d="M951.3,206c1.1-.6,2.5-.9,4.1-.9,2.4,0,4.2.6,5.3,1.9s1.8,3.2,1.8,5.7v2.5c0,2.5-.6,4.4-1.8,5.7-1.2,1.3-3,1.9-5.3,1.9s-3-.3-4.1-.9c-1.1-.6-1.8-1.5-2.1-2.7l.8-.6-.4,4h-2.5v-24.9h3.2v11.5l-1.1-.4c.4-1.2,1.1-2,2.1-2.7h0ZM951.4,219.2c.8.7,1.9,1.1,3.4,1.1s2.7-.4,3.4-1.2c.7-.8,1.1-2,1.1-3.7v-2.7c0-1.7-.4-3-1.1-3.7-.7-.8-1.9-1.2-3.4-1.2s-2.6.4-3.4,1.1c-.8.7-1.2,1.7-1.2,3v4.5c0,1.3.4,2.3,1.2,3h0Z"/>
    <path class="st1" d="M986.2,205.3v2.5h-10.7v-2.5h10.7ZM980,199.3c1.1-1.1,2.7-1.6,4.9-1.6h2.3l-.3,2.7h-1.7c-1.3,0-2.3.3-2.8.8s-.8,1.5-.8,2.9v18.5h-3.2v-18.4c0-2.2.6-3.9,1.6-4.9h0Z"/>
    <path class="st1" d="M991.1,207.2c1.4-1.4,3.4-2.1,6.1-2.1s4.6.7,6.1,2.1c1.4,1.4,2.2,3.4,2.2,5.9v1.8c0,2.5-.7,4.5-2.2,5.9-1.4,1.4-3.4,2.1-6.1,2.1s-4.6-.7-6.1-2.1c-1.4-1.4-2.2-3.4-2.2-5.9v-1.8c0-2.5.7-4.5,2.2-5.9h0ZM1000.8,218.8c.8-.8,1.3-2.2,1.3-3.9v-2c0-1.7-.4-3-1.3-3.9s-2.1-1.3-3.7-1.3-2.9.4-3.7,1.3c-.8.9-1.3,2.2-1.3,3.9v2c0,1.7.4,3,1.3,3.9.8.9,2.1,1.3,3.7,1.3s2.9-.4,3.7-1.3Z"/>
    <path class="st1" d="M1014.3,206.1c.9-.7,2-1.1,3.3-1.1h2l-.3,2.9h-2c-1.3,0-2.3.4-3.1,1.3s-1.1,2-1.1,3.5v9.9h-3.2v-17.2h2.5l.4,4-.8-.2c.5-1.3,1.2-2.4,2.1-3.1h0Z"/>
    <path class="st1" d="M1041.4,205.3v2.5h-10.6v-2.5h10.6ZM1037.3,200.8v16.7c0,.9.2,1.5.6,1.9s1,.6,1.8.6h1.8l-.3,2.5h-1.8c-1.8,0-3-.4-3.9-1.3-.8-.8-1.3-2.2-1.3-3.9v-16.5h3.2,0Z"/>
    <path class="st1" d="M1049.3,209.1l-1.1-.4c.4-1.2,1-2.1,2-2.7s2.3-.9,3.9-.9c2.3,0,3.9.6,5,1.9s1.6,3.2,1.6,5.7v9.9h-3.2v-10.1c0-1.8-.3-3-.9-3.7s-1.6-1.1-3-1.1-2.5.4-3.2,1.1-1.1,1.7-1.1,3v10.8h-3.2v-24.9h3.2v11.5h0Z"/>
    <path class="st1" d="M1067,207.2c1.3-1.4,3.3-2,5.8-2s4.5.7,5.8,2,2,3.4,2,6v2.3h-13.3v-2.2h10.1v-.5c0-1.7-.4-2.9-1.1-3.7-.7-.8-1.9-1.3-3.5-1.3s-2.8.4-3.5,1.3-1.1,2.2-1.1,3.9v2.5c0,1.5.4,2.7,1.2,3.5.8.8,2,1.2,3.7,1.2s4.6-.2,6.8-.7l.4,2.6c-1.4.3-2.7.5-3.9.6-1.2.1-2.3.2-3.4.2-2.6,0-4.6-.6-6-2s-2-3.2-2-5.6v-2.3c0-2.6.7-4.6,2-5.9h0Z"/>
    <path class="st1" d="M1098.6,198.5v24.1h-3.2v-24.1h3.2Z"/>
    <path class="st1" d="M1108.3,206.1c.9-.7,2-1.1,3.3-1.1h2l-.3,2.9h-2c-1.3,0-2.3.4-3.1,1.3s-1.1,2-1.1,3.5v9.9h-3.2v-17.2h2.5l.4,4-.8-.2c.5-1.3,1.2-2.4,2.1-3.1h0Z"/>
    <path class="st1" d="M1126.5,208.3c-.6-.6-1.5-.8-3-.8s-1.9,0-3,.1c-1.1,0-2.2.2-3.1.4l-.3-2.3c1.1-.1,2.1-.4,3.3-.5s2.3-.2,3.3-.2c2.3,0,4,.5,5.1,1.5,1.1,1,1.7,2.5,1.7,4.4v11.6h-2.5l-.4-3.8.6.8c-.4,1.1-1.1,1.9-2.2,2.5s-2.5.8-4.2.8-3.4-.5-4.4-1.4-1.5-2.3-1.5-4.2.6-3.2,1.7-4.1c1.1-.9,2.9-1.3,5.3-1.3h4.6v-.8c0-1.3-.3-2.2-.9-2.7h-.1ZM1120,214.7c-.6.5-1,1.3-1,2.5s.3,2,.8,2.5,1.5.8,2.7.8,2.5-.4,3.4-1,1.3-1.5,1.3-2.6v-3h-4.4c-1.3,0-2.4.3-3,.8h0Z"/>
    <path class="st1" d="M1138.6,205.3l.4,4-.8-.6c.4-1.2,1-2.1,2-2.7s2.3-.9,3.9-.9c2.3,0,3.9.6,5,1.9s1.6,3.2,1.6,5.7v9.9h-3.2v-10.1c0-1.8-.3-3-.9-3.7s-1.6-1.1-3-1.1-2.5.4-3.2,1.1-1.1,1.7-1.1,3v10.8h-3.2v-17.2h2.5Z"/>
    <path class="st1" d="M1156.8,213.6h18.6v3h-18.6v-3Z"/>
    <path class="st1" d="M1184.9,198.5v24.1h-3.2v-24.1h3.2Z"/>
    <path class="st1" d="M1192.9,222.6c-1.2-.1-2.3-.4-3.4-.7l.6-2.4c1.2.3,2.3.5,3.3.6,1,.1,2,.2,2.8.2,1.3,0,2.3-.2,3-.6.6-.4.9-1.1.9-1.9s-.1-.9-.4-1.2-.6-.5-1.2-.7-1.5-.4-2.9-.8c-1.6-.4-2.9-.7-3.7-1.1-.8-.4-1.5-.9-1.8-1.5-.4-.6-.5-1.4-.5-2.3,0-1.7.6-3,1.7-3.9s2.7-1.3,4.8-1.3,2,0,3.1.2,2.3.4,3.5.7l-.6,2.4c-1.3-.3-2.3-.5-3.2-.6s-1.8-.2-2.6-.2-2.1.2-2.7.6c-.6.4-.8,1.1-.8,1.8s0,.9.3,1.3c.2.3.6.6,1.1.8.6.2,1.4.4,2.5.6,1.8.4,3.1.7,4,1.1.9.4,1.5.9,1.9,1.5.4.6.6,1.4.6,2.4,0,1.8-.6,3-1.7,3.9s-2.8,1.3-5.1,1.3-2.4,0-3.5-.3h0Z"/>
    <path class="st1" d="M1212.8,206.1c.9-.7,2-1.1,3.3-1.1h2l-.3,2.9h-2c-1.3,0-2.3.4-3.1,1.3s-1.1,2-1.1,3.5v9.9h-3.2v-17.2h2.5l.4,4-.8-.2c.5-1.3,1.2-2.4,2.1-3.1h0Z"/>
    <path class="st1" d="M1230.9,208.3c-.6-.6-1.5-.8-3-.8s-1.9,0-3,.1c-1.1,0-2.2.2-3.1.4l-.3-2.3c1.1-.1,2.1-.4,3.3-.5s2.3-.2,3.3-.2c2.3,0,4,.5,5.1,1.5,1.1,1,1.7,2.5,1.7,4.4v11.6h-2.5l-.4-3.8.6.8c-.4,1.1-1.1,1.9-2.2,2.5s-2.5.8-4.2.8-3.4-.5-4.4-1.4-1.5-2.3-1.5-4.2.6-3.2,1.7-4.1c1.1-.9,2.9-1.3,5.3-1.3h4.6v-.8c0-1.3-.3-2.2-.9-2.7h-.1ZM1224.5,214.7c-.6.5-1,1.3-1,2.5s.3,2,.8,2.5,1.5.8,2.7.8,2.5-.4,3.4-1,1.3-1.5,1.3-2.6v-3h-4.4c-1.3,0-2.4.3-3,.8h0Z"/>
    <path class="st1" d="M1241.8,207.2c1.3-1.4,3.3-2,5.8-2s4.5.7,5.8,2,2,3.4,2,6v2.3h-13.3v-2.2h10.1v-.5c0-1.7-.4-2.9-1.1-3.7-.7-.8-1.9-1.3-3.5-1.3s-2.8.4-3.5,1.3-1.1,2.2-1.1,3.9v2.5c0,1.5.4,2.7,1.2,3.5.8.8,2,1.2,3.7,1.2s4.6-.2,6.8-.7l.4,2.6c-1.4.3-2.7.5-3.9.6-1.2.1-2.3.2-3.4.2-2.6,0-4.6-.6-6-2s-2-3.2-2-5.6v-2.3c0-2.6.7-4.6,2-5.9h0Z"/>
    <path class="st1" d="M1263.8,197.7v24.9h-3.2v-24.9h3.2Z"/>
    <path class="st1" d="M1299.3,219.5h.3l.5-3.3,3.5-17.7h3.3l-4.9,24.1h-5.1l-4.2-17.7-.6-3.3h-.3l-.6,3.3-4.2,17.7h-5.1l-4.9-24.1h3.3l3.5,17.7.5,3.3h.3l.7-3.3,4.2-17.7h4.9l4.2,17.7.7,3.3h0Z"/>
    <path class="st1" d="M1319.4,208.3c-.6-.6-1.5-.8-3-.8s-1.9,0-3,.1c-1.1,0-2.2.2-3.1.4l-.3-2.3c1.1-.1,2.1-.4,3.3-.5s2.3-.2,3.3-.2c2.3,0,4,.5,5.1,1.5,1.1,1,1.7,2.5,1.7,4.4v11.6h-2.5l-.4-3.8.6.8c-.4,1.1-1.1,1.9-2.2,2.5s-2.5.8-4.2.8-3.4-.5-4.4-1.4-1.5-2.3-1.5-4.2.6-3.2,1.7-4.1c1.1-.9,2.9-1.3,5.3-1.3h4.6v-.8c0-1.3-.3-2.2-.9-2.7h-.1ZM1313,214.7c-.6.5-1,1.3-1,2.5s.3,2,.8,2.5,1.5.8,2.7.8,2.5-.4,3.4-1,1.3-1.5,1.3-2.6v-3h-4.4c-1.3,0-2.4.3-3,.8h0Z"/>
    <path class="st1" d="M1333.4,206.1c.9-.7,2-1.1,3.3-1.1h2l-.3,2.9h-2c-1.3,0-2.3.4-3.1,1.3s-1.1,2-1.1,3.5v9.9h-3.2v-17.2h2.5l.4,4-.8-.2c.5-1.3,1.2-2.4,2.1-3.1h0Z"/>
  </g>
</svg>