<?xml version="1.0" encoding="UTF-8"?>
<svg id="Layer_1" data-name="Layer 1" xmlns="http://www.w3.org/2000/svg" viewBox="0 0 1805.7 282.54">
  <defs>
    <style>
      .cls-1 {
        fill: #f3922b;
      }

      .cls-2 {
        fill: #fff;
      }

      .cls-3 {
        fill: none;
        stroke: #f3922b;
        stroke-miterlimit: 10;
        stroke-width: 12px;
      }
    </style>
  </defs>
  <rect class="cls-1" x="57.74" y="57.95" width="73.6" height="73.6" transform="translate(-39.31 94.6) rotate(-45)"/>
  <rect class="cls-3" x="33.73" y="33.73" width="121.9" height="121.9" transform="translate(-39.22 94.68) rotate(-45)"/>
  <g>
    <path class="cls-1" d="M380.4,134.11h2.6l3.3-25.6,16-96.1h32.2l-28.2,151.3h-48.4l-19.5-96.3-3.5-25.6h-2.3l-3.5,25.6-19.5,96.3h-48.4L233,12.41h32.2l16,96.1,3.3,25.6h2.3l4.7-25.6,19.3-96.1h46l19.3,96.1,4.5,25.6h-.2,0Z"/>
    <path class="cls-1" d="M510.6,78.11c-2.7-2.6-7.4-3.9-14-3.9s-11.6.3-19.4.9c-7.8.6-14.6,1.5-20.6,2.6l-2.6-20.9c6.9-1.1,14.4-2.1,22.5-3.1,8.1-.9,15.7-1.4,22.8-1.4,15.7,0,27.3,3.1,34.9,9.4,7.6,6.3,11.4,16.1,11.4,29.6v72.6h-23.7l-4.7-26.8,4.7,9.2c-1.9,6.3-6,11.1-12.2,14.6-6.3,3.4-14.7,5.2-25.4,5.2s-22.5-3-28.9-9-9.6-15.1-9.6-27.4,3.6-20.7,10.9-26.4c7.3-5.7,18.9-8.6,34.9-8.6h23v-3.3c0-6.3-1.4-10.7-4.1-13.3h.1ZM481.1,116.21c-2.8,2.5-4.2,6.7-4.2,12.4s1.4,9.5,4.1,12c2.7,2.5,6.8,3.8,12.3,3.8s11.6-1.6,15.5-4.8,5.9-7.7,5.9-13.5v-13.6h-19.7c-6.4,0-11,1.3-13.9,3.8h0v-.1Z"/>
    <path class="cls-1" d="M610.5,57.51c5-3.4,10.9-5.2,17.6-5.2h12.9l-2.3,26.5h-12.7c-6.4,0-11.5,2.1-15.3,6.3s-5.6,9.8-5.6,16.7v61.8h-31V54.41h23.7l5.2,26.8-4.9-7c3.3-7.7,7.4-13.2,12.4-16.7h0Z"/>
    <path class="cls-1" d="M818.6,30.01c11.4,11.7,17.1,28.7,17.1,51v13.6c0,22.4-5.7,39.5-17.1,51.3-11.4,11.8-28,17.7-49.8,17.7h-52.1V12.41h52.1c21.8,0,38.4,5.9,49.8,17.6ZM788.2,133.61c5.6-3,9.7-7.6,12.6-13.9,2.8-6.3,4.2-14.2,4.2-24v-15.7c0-9.7-1.4-17.7-4.2-23.8-2.8-6.2-7-10.8-12.6-13.7-5.6-3-12.7-4.5-21.5-4.5h-19v100.1h19c8.8,0,15.9-1.5,21.5-4.5h0Z"/>
    <path class="cls-1" d="M882.3,181.91c2.3-1.2,4.3-3.2,5.9-6.1,1.6-2.9,2.9-6.9,4-12.1h-7.8l-34.1-109.2h32.2l17.1,58,4.5,19.7h2.1l4.5-19.7,18.1-58h32.2l-39.2,117.9c-2.8,8.6-6.3,15.5-10.6,20.8-4.2,5.2-9.3,9-15.1,11.4-5.9,2.3-12.9,3.5-21,3.5h-15l-2.3-24.4h15c4.1,0,7.3-.6,9.6-1.8h-.1Z"/>
    <path class="cls-1" d="M1002.8,54.41l5.2,26.3-6.1-8.9c1.7-6.4,5.7-11.3,11.9-14.6,6.2-3.3,13.8-4.9,22.9-4.9,14.6,0,25.3,4.2,32.3,12.6s10.5,20.6,10.5,36.8v62h-31.2v-63.2c0-8.6-1.3-14.7-4-18.3-2.7-3.6-7.3-5.4-13.9-5.4s-11.8,1.6-15.1,4.9c-3.4,3.3-5,8.1-5,14.6v67.4h-31V54.51h23.7-.2v-.1Z"/>
    <path class="cls-1" d="M1117.1,65.71c9.5-8.9,23-13.4,40.4-13.4s30.6,4.5,40.2,13.4c9.5,8.9,14.3,21.6,14.3,38v10.6c0,16.4-4.8,29.2-14.3,38.2-9.6,9-22.9,13.5-40.2,13.5s-30.8-4.5-40.4-13.5-14.3-21.7-14.3-38.2v-10.6c0-16.4,4.8-29.1,14.3-38ZM1175,134.11c4-4.2,6-10.4,6-18.6v-12.9c0-8.1-2-14.3-6-18.6-4-4.2-9.8-6.3-17.5-6.3s-13.7,2.1-17.7,6.3-6,10.4-6,18.6v12.9c0,8.1,2,14.3,6,18.6s9.9,6.3,17.7,6.3,13.5-2.1,17.5-6.3Z"/>
    <path class="cls-1" d="M1323.6,195.81c-9.6,9.1-23,13.6-40.4,13.6s-28.1-1.9-42.5-5.6l3.5-24.4c12.5,3,25.1,4.5,37.8,4.5s14.8-2.1,18.9-6.3,6.2-10.4,6.2-18.6v-19.7l8.2,7.3c-1.7,6.1-5.9,10.9-12.4,14.3-6.6,3.4-14.5,5.2-23.7,5.2-15.5,0-27-4.2-34.5-12.6-7.5-8.4-11.3-20.6-11.3-36.8v-15c0-16.3,3.8-28.6,11.3-36.9s19-12.4,34.5-12.4,17.3,1.6,23.8,4.9,10.6,8.1,12.3,14.3l-5.9,9.2,4.7-26.3h23.7v102.6c0,16.8-4.8,29.7-14.3,38.8h.1v-.1ZM1301.6,81.71c-3.7-3.3-9-4.9-15.9-4.9s-13.4,1.8-16.6,5.5c-3.2,3.7-4.8,9.7-4.8,18.2v17.1c0,8.8,1.6,15,4.8,18.6,3.2,3.6,8.7,5.4,16.6,5.4s12.2-1.7,15.9-5c3.7-3.4,5.5-8.2,5.5-14.4v-25.8c0-6.4-1.8-11.3-5.5-14.6h0v-.1Z"/>
    <path class="cls-1" d="M1405.3,57.51c5-3.4,10.9-5.2,17.6-5.2h12.9l-2.3,26.5h-12.7c-6.4,0-11.5,2.1-15.3,6.3s-5.6,9.8-5.6,16.7v61.8h-31V54.41h23.7l5.2,26.8-4.9-7c3.3-7.7,7.4-13.2,12.4-16.7h0Z"/>
    <path class="cls-1" d="M1511.6,78.11c-2.7-2.6-7.4-3.9-14-3.9s-11.6.3-19.4.9-14.6,1.5-20.6,2.6l-2.6-20.9c6.9-1.1,14.4-2.1,22.5-3.1,8.1-.9,15.7-1.4,22.8-1.4,15.7,0,27.3,3.1,34.9,9.4s11.4,16.1,11.4,29.6v72.6h-23.7l-4.7-26.8,4.7,9.2c-1.9,6.3-6,11.1-12.2,14.6-6.3,3.4-14.7,5.2-25.4,5.2s-22.5-3-28.9-9-9.6-15.1-9.6-27.4,3.6-20.7,10.9-26.4,18.9-8.6,34.9-8.6h23v-3.3c0-6.3-1.4-10.7-4.1-13.3h.1ZM1482.1,116.21c-2.8,2.5-4.2,6.7-4.2,12.4s1.4,9.5,4.1,12,6.8,3.8,12.3,3.8,11.6-1.6,15.5-4.8,5.9-7.7,5.9-13.5v-13.6h-19.7c-6.4,0-11,1.3-13.9,3.8h0v-.1Z"/>
    <path class="cls-1" d="M1575.1,208.11V54.41h23.7l4.9,26.8-5.9-9.4c1.7-6.4,5.8-11.3,12.3-14.6,6.5-3.3,14.4-4.9,23.8-4.9,15.3,0,26.8,4.2,34.3,12.4,7.5,8.3,11.3,20.5,11.3,36.6v15c0,16.3-3.8,28.6-11.3,37s-18.9,12.6-34.3,12.6-17.3-1.7-23.8-5c-6.5-3.4-10.6-8.2-12.3-14.4l8.2-6.8v68.3h-31,.1v.1ZM1611.8,136.51c3.8,3.4,9,5,15.7,5s13.2-1.8,16.4-5.5c3.3-3.7,4.9-9.8,4.9-18.4v-17.1c0-8.6-1.6-14.7-4.9-18.3-3.3-3.6-8.8-5.4-16.4-5.4s-12.2,1.6-15.9,4.9c-3.7,3.3-5.5,8.1-5.5,14.6v25.8c0,6.3,1.9,11.1,5.6,14.4h.1Z"/>
    <path class="cls-1" d="M1735.6,78.61l-8.2-6.8c1.7-6.4,5.7-11.3,11.9-14.6,6.2-3.3,13.8-4.9,22.9-4.9,14.6,0,25.3,4.2,32.3,12.6s10.5,20.6,10.5,36.8v62h-31.2v-63.2c0-8.6-1.3-14.7-4-18.3-2.7-3.6-7.3-5.4-13.9-5.4s-11.8,1.6-15.1,4.9c-3.4,3.3-5,8.1-5,14.6v67.4h-31V6.51h31v72.1h-.2Z"/>
  </g>
  <g>
    <path class="cls-2" d="M272.1,221.87v3.57h-35.09v-3.57h35.09ZM256.43,268.76h-3.97v-44.71h3.97v44.71Z"/>
    <path class="cls-2" d="M283.6,242.49l-1.78.3c.69-2.48,2.08-4.46,4.26-5.75,2.18-1.39,4.76-1.98,8.03-1.98s7.53,1.19,9.62,3.57,3.07,5.95,3.07,10.81v19.43h-3.87v-19.53c0-3.87-.69-6.64-2.18-8.33-1.49-1.69-3.87-2.48-7.14-2.48s-5.65.79-7.44,2.38c-1.69,1.59-2.58,3.87-2.58,6.74v21.21h-3.87v-48.48h3.87v22.11h0Z"/>
    <path class="cls-2" d="M319.68,238.92c2.48-2.68,6.05-3.97,10.81-3.97s8.43,1.29,10.9,3.97,3.67,6.54,3.67,11.6v3.87h-26.57v-3.07h22.6v-.89c0-3.97-.89-6.94-2.58-8.92s-4.36-2.97-8.03-2.97-6.25.99-8.03,3.07c-1.78,1.98-2.68,5.06-2.68,8.92v4.36c0,3.47.89,6.25,2.68,8.13,1.78,1.88,4.46,2.78,8.23,2.78s8.92-.59,12.99-1.69l.69,3.37c-2.38.59-4.76,1.09-7.04,1.39-2.28.3-4.46.4-6.54.4-4.86,0-8.53-1.29-11-3.77-2.48-2.58-3.77-6.15-3.77-10.71v-4.16c0-5.06,1.29-8.82,3.77-11.5v-.2h-.1Z"/>
    <path class="cls-2" d="M403.25,227.22c3.47,3.57,5.25,8.62,5.25,15.07v5.85c0,6.44-1.78,11.5-5.25,15.07s-8.33,5.45-14.57,5.45h-13.18v-46.89h13.18c6.25,0,11.1,1.78,14.57,5.45h0ZM397.3,263.21c2.38-1.29,4.16-3.27,5.45-5.75,1.19-2.48,1.88-5.55,1.88-9.22v-6.05c0-3.57-.59-6.64-1.88-9.12-1.19-2.58-3.07-4.46-5.45-5.75s-5.35-1.98-8.82-1.98h-9.12v39.75h9.12c3.47,0,6.44-.69,8.82-1.98h0v.1Z"/>
    <path class="cls-2" d="M423.47,278.28c.89-.5,1.69-1.49,2.48-2.87s1.69-3.57,2.78-6.54h-1.19l-12.09-33.31h4.16l9.02,24.68,1.49,4.56h.5l1.49-4.56,9.12-24.68h4.16l-12.89,34.6c-1.29,3.47-2.48,6.05-3.57,7.73-1.09,1.78-2.28,2.97-3.67,3.67-1.29.69-2.97.99-5.06.99h-2.78l-.4-3.47h3.07c1.39,0,2.58-.3,3.37-.79Z"/>
    <path class="cls-2" d="M457.08,235.45l.4,7.24h-1.49c.69-2.48,2.08-4.36,4.26-5.75s4.76-1.98,8.03-1.98,7.53,1.19,9.62,3.57c2.08,2.38,3.07,5.95,3.07,10.81v19.43h-3.87v-19.53c0-3.87-.69-6.64-2.18-8.33-1.49-1.69-3.87-2.48-7.14-2.48s-5.65.79-7.44,2.38c-1.69,1.59-2.58,3.87-2.58,6.74v21.21h-3.87v-33.31h3.37-.2,0Z"/>
    <path class="cls-2" d="M494.06,238.92c2.68-2.68,6.44-3.97,11.3-3.97s8.62,1.29,11.3,3.97,3.97,6.44,3.97,11.4v3.57c0,4.96-1.29,8.72-3.97,11.3-2.68,2.68-6.44,3.97-11.3,3.97s-8.62-1.29-11.3-3.97-3.97-6.44-3.97-11.3v-3.57c0-4.96,1.29-8.72,3.97-11.4ZM513.79,262.61c1.88-1.98,2.87-4.96,2.87-8.72v-3.67c0-3.77-.99-6.74-2.87-8.72s-4.76-2.97-8.43-2.97-6.54.99-8.43,2.97-2.87,4.86-2.87,8.72v3.67c0,3.77.99,6.64,2.87,8.72,1.88,1.98,4.76,3.07,8.43,3.07s6.54-.99,8.43-3.07Z"/>
    <path class="cls-2" d="M555.52,278.67c-2.58,2.58-6.25,3.87-10.9,3.87s-8.13-.5-12.79-1.59l.69-3.47c4.26.99,8.23,1.49,12,1.49s6.25-.99,8.13-2.87,2.78-4.66,2.78-8.33v-6.15l1.19,1.19c-.89,2.08-2.48,3.67-4.56,4.76-2.08,1.09-4.66,1.59-7.73,1.59-4.56,0-7.93-1.19-10.31-3.67s-3.47-6.15-3.47-10.9v-4.96c0-4.86,1.19-8.53,3.47-11,2.38-2.48,5.75-3.67,10.31-3.67s5.65.5,7.73,1.59,3.67,2.68,4.56,4.76l-.99,1.29.4-7.24h3.37v32.32c0,4.66-1.29,8.33-3.87,10.9h0v.1ZM552.65,240.8c-1.88-1.59-4.46-2.38-7.83-2.38s-6.05.89-7.73,2.68c-1.69,1.78-2.58,4.66-2.58,8.43v5.15c0,3.77.89,6.64,2.58,8.43,1.69,1.78,4.26,2.68,7.73,2.68s5.95-.79,7.83-2.48,2.78-3.87,2.78-6.64v-9.12c0-2.87-.89-5.06-2.78-6.64h0v-.1Z"/>
    <path class="cls-2" d="M577.73,237.23c1.98-1.49,4.36-2.28,7.04-2.28h3.97l-.4,3.67h-3.67c-2.97,0-5.25.99-6.94,2.87s-2.58,4.66-2.58,8.13v19.13h-3.87v-33.31h3.37l.4,7.24-1.49.99c.79-2.78,2.18-4.96,4.16-6.44Z"/>
    <path class="cls-2" d="M614.7,240.01c-1.39-1.19-3.57-1.78-6.64-1.78s-3.67,0-5.75.3c-2.08.2-3.97.5-5.85.79l-.4-3.17c1.98-.4,3.97-.69,6.05-.89,2.08-.2,4.06-.3,6.05-.3,4.26,0,7.34.89,9.42,2.78,2.08,1.78,3.07,4.66,3.07,8.43v22.7h-3.37l-.4-6.74,1.19.5c-.89,2.18-2.48,3.87-4.76,4.96s-5.06,1.69-8.43,1.69-6.54-.89-8.43-2.68c-1.88-1.78-2.87-4.46-2.87-7.93s1.09-6.05,3.17-7.73c2.08-1.78,5.35-2.58,9.91-2.58h10.21v-2.18c0-2.78-.69-4.76-2.08-6.05h0l-.1-.1ZM599.73,253c-1.49,1.19-2.28,2.97-2.28,5.45s.69,4.46,1.98,5.65,3.37,1.78,6.15,1.78,6.05-.69,8.13-2.18c2.08-1.49,3.07-3.37,3.07-5.75v-6.74h-10.01c-3.17,0-5.55.59-7.04,1.78h0Z"/>
    <path class="cls-2" d="M631.95,282.54v-47.09h3.37l.4,7.24h-1.49c.69-2.48,2.18-4.36,4.36-5.75,2.28-1.39,5.06-1.98,8.43-1.98s7.93,1.19,10.31,3.67,3.57,6.15,3.57,11v4.96c0,4.86-1.19,8.43-3.57,10.9s-5.85,3.67-10.31,3.67-6.15-.69-8.43-1.98c-2.28-1.39-3.77-3.27-4.36-5.75l1.78.2v20.82h-4.06v.1ZM638.6,263.31c1.78,1.59,4.46,2.38,7.93,2.38s6.05-.89,7.73-2.68,2.58-4.56,2.58-8.43v-5.15c0-3.77-.89-6.64-2.58-8.43s-4.26-2.68-7.73-2.68-6.15.79-7.93,2.38-2.68,3.87-2.68,6.64v9.12c0,2.87.89,5.06,2.68,6.64v.2Z"/>
    <path class="cls-2" d="M675.67,242.49l-1.78.3c.69-2.48,2.08-4.46,4.26-5.75,2.18-1.39,4.76-1.98,8.03-1.98s7.53,1.19,9.62,3.57c2.08,2.38,3.07,5.95,3.07,10.81v19.43h-3.87v-19.53c0-3.87-.69-6.64-2.18-8.33-1.49-1.69-3.87-2.48-7.14-2.48s-5.75.79-7.44,2.38-2.58,3.87-2.58,6.74v21.21h-3.87v-48.48h3.87v22.11h0Z"/>
    <path class="cls-2" d="M716.42,220.28v4.56h-4.96v-4.56h4.96ZM715.92,235.45v33.31h-3.87v-33.31h3.87Z"/>
    <path class="cls-2" d="M747.05,235.35c1.78.3,3.87.79,6.15,1.39l-.89,3.37c-1.78-.5-3.47-.89-5.35-1.09-1.78-.3-3.47-.4-4.96-.4-3.67,0-6.44.99-8.33,2.97s-2.87,4.86-2.87,8.72v3.67c0,3.77.89,6.74,2.68,8.72s4.56,2.97,8.23,2.97,8.23-.59,11.9-1.78l.79,3.47c-2.08.59-4.26,1.09-6.44,1.39s-4.26.5-6.25.5c-4.86,0-8.53-1.29-11-3.97s-3.77-6.44-3.77-11.3v-3.57c0-4.96,1.29-8.72,3.97-11.4,2.58-2.68,6.34-3.97,11-3.97s3.47.1,5.25.4h0l-.1-.1Z"/>
    <path class="cls-2" d="M809.4,225.54c2.58,2.48,3.87,6.05,3.87,10.71s-1.29,8.23-3.87,10.71c-2.58,2.48-6.34,3.77-11.2,3.77h-11.6v-3.57h11.4c3.77,0,6.64-.89,8.53-2.68,1.88-1.78,2.78-4.56,2.78-8.13s-.89-6.34-2.78-8.13c-1.88-1.78-4.76-2.68-8.53-2.68h-10.61v43.32h-3.87v-46.89h14.77c4.96,0,8.62,1.29,11.2,3.77v-.2h-.1ZM803.06,252.2c-.79-1.19-1.69-2.18-2.58-2.68l4.26-.69c.89.69,1.69,1.59,2.38,2.68s1.39,2.78,2.18,4.86l4.66,12.39h-4.16l-4.36-11.9c-.69-1.88-1.49-3.47-2.28-4.76h-.1v.1Z"/>
    <path class="cls-2" d="M825.36,238.92c2.48-2.68,6.15-3.97,10.81-3.97s8.43,1.29,10.9,3.97,3.67,6.54,3.67,11.6v3.87h-26.57v-3.07h22.6v-.89c0-3.97-.89-6.94-2.58-8.92-1.69-1.98-4.36-2.97-8.03-2.97s-6.25.99-8.03,3.07-2.68,5.06-2.68,8.92v4.36c0,3.47.89,6.25,2.68,8.13,1.78,1.88,4.46,2.78,8.23,2.78s8.92-.59,12.99-1.69l.69,3.37c-2.38.59-4.76,1.09-7.04,1.39s-4.46.4-6.54.4c-4.86,0-8.53-1.29-11-3.77-2.48-2.58-3.77-6.15-3.77-10.71v-4.16c0-5.06,1.29-8.82,3.77-11.5v-.2h-.1Z"/>
    <path class="cls-2" d="M877.21,235.45v3.37h-19.63v-3.37h19.63ZM866.41,223.26c1.88-1.88,4.76-2.87,8.53-2.87h4.36l-.4,3.47h-3.77c-2.68,0-4.56.69-5.85,1.98-1.29,1.29-1.88,3.47-1.88,6.34v36.68h-3.87v-36.58c0-4.06.99-7.04,2.87-8.92h0v-.1Z"/>
    <path class="cls-2" d="M887.42,238.92c2.48-2.68,6.15-3.97,10.81-3.97s8.43,1.29,10.9,3.97,3.67,6.54,3.67,11.6v3.87h-26.57v-3.07h22.6v-.89c0-3.97-.89-6.94-2.58-8.92-1.69-1.98-4.36-2.97-8.03-2.97s-6.25.99-8.03,3.07-2.68,5.06-2.68,8.92v4.36c0,3.47.89,6.25,2.68,8.13,1.78,1.88,4.46,2.78,8.23,2.78s8.92-.59,12.99-1.69l.69,3.37c-2.38.59-4.76,1.09-7.04,1.39s-4.46.4-6.54.4c-4.86,0-8.53-1.29-11-3.77-2.48-2.58-3.77-6.15-3.77-10.71v-4.16c0-5.06,1.29-8.82,3.77-11.5v-.2h-.1Z"/>
    <path class="cls-2" d="M929.95,237.23c1.98-1.49,4.36-2.28,7.04-2.28h3.97l-.4,3.67h-3.67c-2.97,0-5.25.99-6.94,2.87s-2.58,4.66-2.58,8.13v19.13h-3.87v-33.31h3.37l.4,7.24-1.49.99c.79-2.78,2.18-4.96,4.16-6.44Z"/>
    <path class="cls-2" d="M949.38,238.92c2.48-2.68,6.15-3.97,10.81-3.97s8.43,1.29,10.9,3.97,3.67,6.54,3.67,11.6v3.87h-26.57v-3.07h22.6v-.89c0-3.97-.89-6.94-2.58-8.92s-4.36-2.97-8.03-2.97-6.25.99-8.03,3.07-2.68,5.06-2.68,8.92v4.36c0,3.47.89,6.25,2.68,8.13,1.78,1.88,4.46,2.78,8.23,2.78s8.92-.59,12.99-1.69l.69,3.37c-2.38.59-4.76,1.09-7.04,1.39-2.28.3-4.46.4-6.54.4-4.86,0-8.53-1.29-11-3.77-2.48-2.58-3.77-6.15-3.77-10.71v-4.16c0-5.06,1.29-8.82,3.77-11.5v-.2h-.1Z"/>
    <path class="cls-2" d="M988.74,235.45l.4,7.24h-1.49c.69-2.48,2.08-4.36,4.26-5.75,2.18-1.39,4.76-1.98,8.03-1.98s7.53,1.19,9.62,3.57,3.07,5.95,3.07,10.81v19.43h-3.87v-19.53c0-3.87-.69-6.64-2.18-8.33-1.49-1.69-3.87-2.48-7.14-2.48s-5.75.79-7.44,2.38-2.58,3.87-2.58,6.74v21.21h-3.87v-33.31h3.37-.2Z"/>
    <path class="cls-2" d="M1041.97,235.35c1.78.3,3.87.79,6.15,1.39l-.89,3.37c-1.78-.5-3.47-.89-5.35-1.09-1.78-.3-3.47-.4-4.96-.4-3.67,0-6.44.99-8.33,2.97s-2.87,4.86-2.87,8.72v3.67c0,3.77.89,6.74,2.68,8.72,1.78,1.98,4.56,2.97,8.23,2.97s8.23-.59,11.9-1.78l.79,3.47c-2.08.59-4.26,1.09-6.44,1.39s-4.26.5-6.25.5c-4.86,0-8.53-1.29-11-3.97s-3.77-6.44-3.77-11.3v-3.57c0-4.96,1.29-8.72,3.97-11.4,2.58-2.68,6.34-3.97,11-3.97s3.47.1,5.25.4h0l-.1-.1Z"/>
    <path class="cls-2" d="M1060.81,238.92c2.48-2.68,6.15-3.97,10.81-3.97s8.43,1.29,10.9,3.97,3.67,6.54,3.67,11.6v3.87h-26.57v-3.07h22.6v-.89c0-3.97-.89-6.94-2.58-8.92s-4.36-2.97-8.03-2.97-6.25.99-8.03,3.07-2.68,5.06-2.68,8.92v4.36c0,3.47.89,6.25,2.68,8.13,1.78,1.88,4.46,2.78,8.23,2.78s8.92-.59,12.99-1.69l.69,3.37c-2.38.59-4.76,1.09-7.04,1.39-2.28.3-4.46.4-6.54.4-4.86,0-8.53-1.29-11-3.77-2.48-2.58-3.77-6.15-3.77-10.71v-4.16c0-5.06,1.29-8.82,3.77-11.5v-.2h-.1Z"/>
    <path class="cls-2" d="M1132.68,235.45v3.37h-19.63v-3.37h19.63ZM1121.87,223.26c1.88-1.88,4.76-2.87,8.53-2.87h4.36l-.4,3.47h-3.77c-2.68,0-4.56.69-5.85,1.98s-1.88,3.47-1.88,6.34v36.68h-3.87v-36.58c0-4.06.99-7.04,2.87-8.92h0v-.1Z"/>
    <path class="cls-2" d="M1143.09,238.92c2.68-2.68,6.44-3.97,11.3-3.97s8.62,1.29,11.3,3.97,3.97,6.44,3.97,11.4v3.57c0,4.96-1.29,8.72-3.97,11.3-2.68,2.68-6.44,3.97-11.3,3.97s-8.62-1.29-11.3-3.97c-2.68-2.68-3.97-6.44-3.97-11.3v-3.57c0-4.96,1.29-8.72,3.97-11.4ZM1162.82,262.61c1.88-1.98,2.87-4.96,2.87-8.72v-3.67c0-3.77-.99-6.74-2.87-8.72s-4.76-2.97-8.43-2.97-6.54.99-8.43,2.97-2.87,4.86-2.87,8.72v3.67c0,3.77.99,6.64,2.87,8.72,1.88,1.98,4.76,3.07,8.43,3.07s6.54-.99,8.43-3.07Z"/>
    <path class="cls-2" d="M1186.21,237.23c1.98-1.49,4.36-2.28,7.04-2.28h3.97l-.4,3.67h-3.67c-2.97,0-5.25.99-6.94,2.87s-2.58,4.66-2.58,8.13v19.13h-3.87v-33.31h3.37l.4,7.24-1.49.99c.79-2.78,2.18-4.96,4.16-6.44Z"/>
    <path class="cls-2" d="M1240.64,235.45v3.37h-19.63v-3.37h19.63ZM1231.91,226.92v32.91c0,1.98.4,3.47,1.19,4.26.79.89,2.18,1.29,4.06,1.29h3.47l-.4,3.37h-3.37c-3.07,0-5.25-.79-6.74-2.28s-2.18-3.77-2.18-6.94v-32.71h3.97v.1Z"/>
    <path class="cls-2" d="M1254.52,242.49l-1.78.3c.69-2.48,2.08-4.46,4.26-5.75,2.18-1.39,4.76-1.98,8.03-1.98s7.53,1.19,9.62,3.57,3.07,5.95,3.07,10.81v19.43h-3.87v-19.53c0-3.87-.69-6.64-2.18-8.33-1.49-1.69-3.87-2.48-7.14-2.48s-5.75.79-7.44,2.38-2.58,3.87-2.58,6.74v21.21h-3.87v-48.48h3.87v22.11h0Z"/>
    <path class="cls-2" d="M1290.6,238.92c2.48-2.68,6.15-3.97,10.81-3.97s8.43,1.29,10.9,3.97,3.67,6.54,3.67,11.6v3.87h-26.57v-3.07h22.6v-.89c0-3.97-.89-6.94-2.58-8.92s-4.36-2.97-8.03-2.97-6.25.99-8.03,3.07-2.68,5.06-2.68,8.92v4.36c0,3.47.89,6.25,2.68,8.13,1.78,1.88,4.46,2.78,8.23,2.78s8.92-.59,12.99-1.69l.69,3.37c-2.38.59-4.76,1.09-7.04,1.39-2.28.3-4.46.4-6.54.4-4.86,0-8.53-1.29-11-3.77-2.48-2.58-3.77-6.15-3.77-10.71v-4.16c0-5.06,1.29-8.82,3.77-11.5v-.2h-.1Z"/>
    <path class="cls-2" d="M1350.38,221.87v46.89h-3.87v-46.89h3.87Z"/>
    <path class="cls-2" d="M1368.92,237.23c1.98-1.49,4.36-2.28,7.04-2.28h3.97l-.4,3.67h-3.67c-2.97,0-5.25.99-6.94,2.87s-2.58,4.66-2.58,8.13v19.13h-3.87v-33.31h3.37l.4,7.24-1.49.99c.79-2.78,2.18-4.96,4.16-6.44Z"/>
    <path class="cls-2" d="M1405.89,240.01c-1.39-1.19-3.57-1.78-6.64-1.78s-3.67,0-5.75.3-3.97.5-5.85.79l-.4-3.17c1.98-.4,3.97-.69,6.05-.89,2.08-.2,4.06-.3,6.05-.3,4.26,0,7.44.89,9.42,2.78,2.08,1.78,3.07,4.66,3.07,8.43v22.7h-3.37l-.4-6.74,1.19.5c-.89,2.18-2.48,3.87-4.76,4.96s-5.06,1.69-8.43,1.69-6.54-.89-8.43-2.68c-1.88-1.78-2.87-4.46-2.87-7.93s1.09-6.05,3.17-7.73c2.08-1.78,5.35-2.58,9.91-2.58h10.21v-2.18c0-2.78-.69-4.76-2.08-6.05h0l-.1-.1ZM1390.93,253c-1.49,1.19-2.28,2.97-2.28,5.45s.69,4.46,1.98,5.65,3.37,1.78,6.15,1.78,6.05-.69,8.13-2.18,3.07-3.37,3.07-5.75v-6.74h-10.01c-3.17,0-5.55.59-7.04,1.78h0Z"/>
    <path class="cls-2" d="M1427.31,235.45l.4,7.24h-1.49c.69-2.48,2.08-4.36,4.26-5.75,2.18-1.39,4.76-1.98,8.03-1.98s7.53,1.19,9.62,3.57,3.07,5.95,3.07,10.81v19.43h-3.87v-19.53c0-3.87-.69-6.64-2.18-8.33-1.49-1.69-3.87-2.48-7.14-2.48s-5.75.79-7.44,2.38-2.58,3.87-2.58,6.74v21.21h-3.87v-33.31h3.37-.2Z"/>
    <path class="cls-2" d="M1463.89,252.1h30.83v3.87h-30.83v-3.87Z"/>
    <path class="cls-2" d="M1512.27,221.87v46.89h-3.87v-46.89h3.87Z"/>
    <path class="cls-2" d="M1528.92,268.76c-2.08-.3-4.16-.79-6.25-1.39l.79-3.27c1.98.59,3.97,1.09,5.95,1.39s3.87.4,5.65.4c3.07,0,5.35-.5,6.84-1.49s2.18-2.38,2.18-4.36-.3-2.28-.79-2.97-1.39-1.29-2.78-1.78c-1.29-.5-3.37-.99-6.15-1.59-2.97-.59-5.25-1.29-6.94-2.08-1.69-.79-2.78-1.69-3.47-2.87-.69-1.09-1.09-2.58-1.09-4.36,0-2.97,1.09-5.35,3.17-7.04s4.96-2.58,8.72-2.58,3.67.1,5.65.4,4.16.79,6.54,1.39l-.89,3.27c-2.18-.59-4.16-.99-5.85-1.29-1.69-.3-3.47-.4-5.15-.4-2.68,0-4.66.5-6.05,1.59-1.39.99-2.08,2.48-2.08,4.36s.2,2.18.69,2.87c.5.69,1.29,1.29,2.58,1.88,1.19.5,2.97.99,5.35,1.49,3.37.69,5.95,1.39,7.73,2.18,1.78.79,3.07,1.69,3.77,2.78.69,1.09,1.09,2.68,1.09,4.56,0,3.07-1.09,5.35-3.17,6.94-2.18,1.49-5.35,2.28-9.52,2.28s-4.26-.2-6.34-.5l-.2.2Z"/>
    <path class="cls-2" d="M1565.3,237.23c1.98-1.49,4.36-2.28,7.04-2.28h3.97l-.4,3.67h-3.67c-2.97,0-5.25.99-6.94,2.87s-2.58,4.66-2.58,8.13v19.13h-3.87v-33.31h3.37l.4,7.24-1.49.99c.79-2.78,2.18-4.96,4.16-6.44Z"/>
    <path class="cls-2" d="M1584.73,238.92c2.48-2.68,6.15-3.97,10.81-3.97s8.43,1.29,10.9,3.97,3.67,6.54,3.67,11.6v3.87h-26.57v-3.07h22.6v-.89c0-3.97-.89-6.94-2.58-8.92s-4.36-2.97-8.03-2.97-6.25.99-8.03,3.07-2.68,5.06-2.68,8.92v4.36c0,3.47.89,6.25,2.68,8.13,1.78,1.88,4.46,2.78,8.23,2.78s8.92-.59,12.99-1.69l.69,3.37c-2.38.59-4.76,1.09-7.04,1.39-2.28.3-4.46.4-6.54.4-4.86,0-8.53-1.29-11-3.77-2.48-2.58-3.77-6.15-3.77-10.71v-4.16c0-5.06,1.29-8.82,3.77-11.5v-.2h-.1Z"/>
    <path class="cls-2" d="M1640.74,240.01c-1.39-1.19-3.57-1.78-6.64-1.78s-3.67,0-5.75.3-3.97.5-5.85.79l-.4-3.17c1.98-.4,3.97-.69,6.05-.89,2.08-.2,4.06-.3,6.05-.3,4.26,0,7.44.89,9.42,2.78,2.08,1.78,3.07,4.66,3.07,8.43v22.7h-3.37l-.4-6.74,1.19.5c-.89,2.18-2.48,3.87-4.76,4.96s-5.06,1.69-8.43,1.69-6.54-.89-8.43-2.68c-1.88-1.78-2.87-4.46-2.87-7.93s1.09-6.05,3.17-7.73c2.08-1.78,5.35-2.58,9.91-2.58h10.21v-2.18c0-2.78-.69-4.76-2.08-6.05h0l-.1-.1ZM1625.77,253c-1.49,1.19-2.28,2.97-2.28,5.45s.69,4.46,1.98,5.65,3.37,1.78,6.15,1.78,6.05-.69,8.13-2.18,3.07-3.37,3.07-5.75v-6.74h-10.01c-3.17,0-5.55.59-7.04,1.78h0Z"/>
    <path class="cls-2" d="M1662.75,220.28v48.48h-3.87v-48.48h3.87Z"/>
    <path class="cls-2" d="M1731.95,264.6h.4l.99-5.25,8.23-37.47h4.06l-10.31,46.89h-6.44l-9.62-37.77-1.09-5.25h-.4l-1.09,5.25-9.62,37.77h-6.44l-10.31-46.89h4.06l8.23,37.47.89,5.25h.5l1.19-5.25,9.52-37.47h6.25l9.52,37.47,1.29,5.25h.2,0Z"/>
    <path class="cls-2" d="M1770.21,240.01c-1.39-1.19-3.57-1.78-6.64-1.78s-3.67,0-5.75.3-3.97.5-5.85.79l-.4-3.17c1.98-.4,3.97-.69,6.05-.89,2.08-.2,4.06-.3,6.05-.3,4.26,0,7.44.89,9.42,2.78,2.08,1.78,3.07,4.66,3.07,8.43v22.7h-3.37l-.4-6.74,1.19.5c-.89,2.18-2.48,3.87-4.76,4.96s-5.06,1.69-8.43,1.69-6.54-.89-8.43-2.68c-1.88-1.78-2.87-4.46-2.87-7.93s1.09-6.05,3.17-7.73c2.08-1.78,5.35-2.58,9.91-2.58h10.21v-2.18c0-2.78-.69-4.76-2.08-6.05h0l-.1-.1ZM1755.24,253c-1.49,1.19-2.28,2.97-2.28,5.45s.69,4.46,1.98,5.65,3.37,1.78,6.15,1.78,6.05-.69,8.13-2.18,3.07-3.37,3.07-5.75v-6.74h-10.01c-3.17,0-5.55.59-7.04,1.78h0Z"/>
    <path class="cls-2" d="M1794.7,237.23c1.98-1.49,4.36-2.28,7.04-2.28h3.97l-.4,3.67h-3.67c-2.97,0-5.25.99-6.94,2.87s-2.58,4.66-2.58,8.13v19.13h-3.87v-33.31h3.37l.4,7.24-1.49.99c.79-2.78,2.18-4.96,4.16-6.44Z"/>
  </g>
</svg>